<mxfile host="app.diagrams.net" agent="Mozilla/5.0 (Windows NT 10.0; Win64; x64) AppleWebKit/537.36 (KHTML, like Gecko) Chrome/138.0.0.0 Safari/537.36" version="28.0.6">
  <diagram name="Page-1" id="6Fk4zuQ8p4S8Vk7pfcoi">
    <mxGraphModel dx="1042" dy="623" grid="1" gridSize="10" guides="1" tooltips="1" connect="1" arrows="1" fold="1" page="1" pageScale="1" pageWidth="850" pageHeight="1100" math="0" shadow="0">
      <root>
        <mxCell id="0" />
        <mxCell id="1" parent="0" />
        <mxCell id="9GS7-FoZsnU4gLhR2LzC-1" value="" style="rounded=0;whiteSpace=wrap;html=1;" parent="1" vertex="1">
          <mxGeometry x="100" y="280" width="650" height="540" as="geometry" />
        </mxCell>
        <mxCell id="9GS7-FoZsnU4gLhR2LzC-3" value="------------------------------------" style="text;html=1;align=center;verticalAlign=middle;whiteSpace=wrap;rounded=0;fontSize=50;" parent="1" vertex="1">
          <mxGeometry x="110" y="360" width="620" height="30" as="geometry" />
        </mxCell>
        <mxCell id="9GS7-FoZsnU4gLhR2LzC-8" value="Name" style="rounded=1;whiteSpace=wrap;html=1;fontSize=16;fillColor=#FFFFFF;strokeColor=light-dark(#1A1A1A,#B2CBFF);fontColor=#1A1A1A;" parent="1" vertex="1">
          <mxGeometry x="360" y="440" width="160" height="25" as="geometry" />
        </mxCell>
        <mxCell id="Cn8wgqeVP5xW0YeZEwN0-2" value="Student Profile" style="shape=parallelogram;perimeter=parallelogramPerimeter;whiteSpace=wrap;html=1;fixedSize=1;fontSize=27;" parent="1" vertex="1">
          <mxGeometry x="315" y="390" width="250" height="30" as="geometry" />
        </mxCell>
        <mxCell id="qEs55O2ABg0GS7RNk2vI-2" value="" style="shape=image;verticalLabelPosition=bottom;labelBackgroundColor=default;verticalAlign=top;aspect=fixed;imageAspect=0;image=data:image/png,iVBORw0KGgoAAAANSUhEUgAABLAAAADmCAYAAADFuXw2AAAAAXNSR0IArs4c6QAAIABJREFUeF7sXQV8U9fbfm6SugItWlyHu7sNWiYwBsW3IUMmUMYUH/PBmP2xCTZsAwZDBhQZ7sW1Am2hhRp1S+79vvcmKQWSNvcmTdL2nN+AQY8+59wjz2ucIAgCWGIIMAQYAgwBhgBDgCHAEGAIMAQYAgwBhgBDgCHAEGAI2CkCHCOw7HRmWLcYAgwBhgBDgCHAEGAIMAQYAgwBhgBDgCHAEGAIMAREBBiBxRYCQ4AhwBBgCDAEGAIMAYYAQ4AhwBBgCDAEGAIMAYaAxRGIjY1FVFSUwXo5joOXlxfq1q1rUruMwDIJJpaJIcAQYAgwBBgCDAGGAEOAIcAQYAgwBBgCDAGGAEOgMATIU1VMTAwuXLiAzZs34/fffzdYRKFQoE2bNpg9ezZ8fX3RunXrAqtmBFZhyLOfMwQYAgwBhgBDgCHAEGAIMAQYAgwBhgBDgCHAEGAIFIpAWloa/vzzT5w+fRrLli0T87do0QKNGzcGaVzlT+Hh4Th69Kj4T82aNcOsWbPQsmVL1KhRw2A7jMAqFH6WgSHAEGAIMAQYAgwBhgBDgCHAEGAIMAQYAgwBhgBDoCAEcnNzMW/ePHz++ecg7aomTZqgd+/e6N+/P7p37y7+mz6RllZISAjWr18PMjP8448/UK5cOfTr1w/vvPOOqJn1dGIEFlt/DAGGAEOAIcAQYAgwBBgCDAGGAEOAIcAQYAgwBBgCZiEQFBSExYsXw8/PD2+//baoVdW3b99C6yRzwy+//BJbtmzBvXv30KdPH3z99ddi+fyJEViFQskyMAQYAgwBhgBDgCHAEGAIMAQYAgwBhgBDgCHAEGAIGENg0qRJosmgj48Pfv31VwwYMEDM+rTZoLHyCQkJounh0qVLce3aNXz//fcYO3YsHB0d84owAoutP4YAQ4AhwBBgCDAEGAIMAYYAQ4AhwBBgCDAEGAIMAVkI8DwvRhPUaDT466+/4O/vD/JvtWTJEty8efOZOsl8kMwFV65c+cTPUlNT8dVXX4m/6tevLxJh7dq1YwSWrFlhhRgCDAGGAEOAIcAQYAgwBBgCDAGGAEOAIcAQYAgwBPIQGDRoEP755x84OzsjOTlZ9HVF/q0mT56MU6dOGUSKNKvIYXuXLl1EwkqfyB/W+++/L/rEmjJliujYnSIUUhI1sNKyc/DfjYcAyKEWR//6uAFB5yU+/7/RTw39u5S8+jpMqdee8mpRK3n4sI/PLAQaVPJAbV937ffDEkOAIcAQYAgwBBgCDAGGAEOAIcAQYAgwBEoJArVq1cKdO3cQFhaGmjVriqPOT2B9+OGHGDdu3BNokIP3zMxM1KtXD9evX3/C1HDr1q34+OOPRX9Y//33nxjFMI/AiopPQ7cPtgHEy7D3dylZYmyYlkSgQ/1y+GhIKzSuoWWGWWIIMAQYAgwBhgBDgCHAEGAIMAQYAgwBhkBJR4B8X61atUoko8g0UJ/yE1jkkP299957Aoq0tDR4enqKWluvv/46fv7557yfq9Vq0f/V2rVrRQ2u1q1bPyawIuPT0GHalpKOKxsfQ6DIEOA5Ad+N74jALnWLrA1WMUOAIcAQYAgwBBgCDAGGAEOAIcAQYAgwBOwJAfJRdebMGfz444+iyZ+pBBblIwfvDg4OCAgIAGld5U9vvPGGSIyNHz9ejFDo7e2tNSFkBJY9TT/rS3FF4LPX2mFE97pwUJIpLksMAYYAQ4AhwBBgCDAEGAIMAYYAQ4AhwBAo2QjoCayUlBS4u5NbHW3Kr4E1b948vP322+K/k6N3vbZW9erVQb9u374NlUr1BFBz584VIxGSTy1yCF+jRg1GYJXspcRGZ00E2jf0xYJR7fCcX1lrNsvaYggwBBgCDAGGAEOAIcAQYAgwBBgCDAGGgE0Q0BNYFEHQzc3NIIHVqlUrNGrUSPwZOWk/fPgwcnJy4Orqih49emDbtm3P9D04OBjTpk3D1atXGYFlk5lljZZoBHgIWD29J/o0r1qix8kGxxBgCDAEGAIMAYYAQ4AhwBBgCDAEGAIMAUKgbdu2OHv2LArSwKpUqRK8vbwRGRWJ9PR0EbjevXujYcOGWLx4sUEgKarhjBkzcOvWLUZgsaXGECgKBBaMaYPArnXh4vik+mNRtMXqZAgwBBgCDAGGAEOAIcAQYAgwBBgCDAGGgC0R0BNYiYmJop8qfcpvQvjWlLcw4IUB2L9/v6hRdfDgQdE8cNzYcUYDCc6fPx/fffed6Cfr4sWLqFq1KjMhtOVEs7ZLHgLNapfBTxO7oVZFz5I3ODYihgBDgCHAEGAIMAQYAgwBhgBDgCHAEGAI5ENAb0JIPqtmz55tkMD66quvRG0qStHR0ejYsaP4J5FYet9YT4NKTtxXrlyJoKAgsV6KWMicuLOlxxCwIAICeOycG4AWtX0tWCuriiHAEGAIMAQYAgwBhgBDgCHAEGAIMAQYAvaHwLJly/DRRx+JJoS5ubmixhSl/BpY+Qks+tnSpUsxdepUCIKAL774QiSpnk6vv/66GIXw5MmTopkiJUZg2d/8sx4VcwQ+e609ArvWhrODspiPhHWfIcAQYAgwBBgCDAGGAEOAIcAQYAgwBBgCxhEgZ+z169fH3bt3RdPAbt26FUpgUYZJkyaByK9atWohNDT0iQb++usvfPLJJ2J0wlOnTqFNmzaMwGKLkCFQFAhUr+CJLZ/0QcUyjyMwFEU7rE6GAEOAIcAQYAgwBBgCDAGGAEOAIcAQYAjYGoGRI0di48aNaNmypUg4USpIA4t+TiaE1apVEyMRTpw4Ed9++61YLjMzE++//z5+/vlnzJo1S4xEqPetxTSwbD3TrP2ShwAn4MSiQajm41HyxsZGxBBgCDAEGAIMAYYAQ4AhwBBgCDAEGAIMgXwIkPYVRRTMzs7Gyy+/DNKgKozAouJ79uxB//79RSLrhx9+wIsvvog1a9aIBFZSUhL+/vtv9OvXL68lRmCxZccQKAIEvprQGcM61YRSobX/ZYkhwBBgCDAEGAIMAYYAQ4AhwBBgCDAEGAIlFYGwsDDUrVsXDg4OGDBgANatW4e4uDhkZWXBx8fniQiFegw0Gg0iIiKgUqlQtmxZMUrhm2++iYSEBJDfrMmTJ4saWvrECKySunrYuGyKgJMjjyv/GwlnJxUUNu0Ja5whwBBgCDAEGAIMAYYAQ4AhwBBgCDAEGAJFj8DuXbsRMCAASqUSgwYNEs0KTUlpaWn45ZdfRL9XZEI4f/58UQvL0dHxieKMwDIFTZaHISARAZ4Dbi0dBg9XB4klWfaSgoAgALwgiJE1xF8UNUMcHP2fntbU/jsl8WccB1Lao8gdCl30jpKCBxsHQ4AhwBBgCDAEGAKlAwH9HYjned09hwMEDcBRgCNB/I+uOeJ9R8HuPKVjVbBRlhYE6N1DUQO7d+8uRiSkRNEGKdKgPjphfiwo/7Fjx9C7d2/dnqDAe++9J+Y3lBiBVVpWEhun1RGYN74LxnWtafV2WYPWQ4DIp7TMHPEXuMekVA6A2zEp+O9cOE5cDEfYw0dIyeKgVKoAhQOgVIkEFc9rIGjUEPgcOCkEVCrriJb1aqBry9po+1xFuNGljgcEhZby4iDA1dkBrs6OUDLrVOtNNGupVCGQSt90lvoxsQyAB1C5zGP19VIFCBssQ4AhwBAoAAENL4j3oIxs7b6p4YDwhxnYevAydp+8hrgsBRRKRyiUDuChAMerAU02XFQ5aFytPAb2ao1ODSvCk2S+dO8BB07g4enmBBcnB53wj02BpRFIzcpBSka2iLeg+53neFT2djdIMli6fVZfyUfg4sWLohlhRkaG6MtKnxQKhWguSOQWkVdEatGfzs7O8PPzw2uvvYaPP/7YKECMwCr5a4eN0EYIaDTZiPljLLg8YsNGHWHNWgQB0pXSCEDkg0fIzCGtKiCTF7Bmbwg27r8CzskbnEIBCMQs6fWqzG9ar5nFazRwc1BjQMd6GNStEco6c9pLHa+Br7cbynu5ApxA1z7zG2U1WACBxzp3FqiMVWElBGjW5m84i6W7ruTTlAR4BY/wX0bBTUXaA6UtsbVs3zPO5se8+SlO+NlPX0nDPOxeIrJ4DvHJGVgVfBX/nr0LTukM7U1E/j2IHrIq9SNMeqUjBrStDdp1OfAo5+GM8mXcocin027e3Jfu0j/vuoZPN5zVzZX27qgUgAv/Gwwfj9IgsLGf76kkrkQtutrft2/fjjlz5ojDfPTokegTixy9k4lh+fLlRd9YRGq1b98eP/74Y6EEKiOwSuKKYWOyDwQ4AZeWBqKcq5N99If1QjICtO0mpmYiPDYFqVm5SFMDC9cfxq3YHAicgvgika96/KeePJJ/cZPSSWqFz07FwG4NMbhTPaiUApScAuXcHVC/ui9UUiqTmDcrR43wB6l4mJypI+x0Yydmj66vZCogCHBzcYSzgwqe7i5wdFTC1dkJTg5KqBR6k8rHBpWmd4EIRE40P6CkR1vEA0CuRkBaRjayc9RITs1AZnYuMrJzwdM1mKNyWhMGumTTn7UreqCqBaOGpmZmIyQ0BjxHNvv6C5KWWhSohzwvXsbpYHcjPBxV8HBzhpMF8dEio7060C8iX7NyeWRmZSMzS420jCykZ2YjW60BL9BzgAMUJIfV4SmCKqCqrwdqV/Q0fWqKec67D5NFAmvX2eg8o1/9kL6d0gMj2lUt5iOU3v1HmVm4EJogkvbiN6f9TWcGpPv6BN2aFng4OzvCSaUStUXp/x1VSrjQn/m+e30N2lX6+Csx3rtCHhpi5/S1Pd4TaD/gBSBHLSAzOwfZObnIyeWRnpGFXI0GajWPnFwNNAKpumrrcHJwEPetcl4e8HJ3gouD9ruwz8Tj1M2HyMzldeeQzkRdHA/puvDifktaux6uTnB2coC7qwucHDmRFNAj9nh88h90eXsN7cFqaPeXnFxxL6b9JitHA7Uo4BHtxrQSd/qbDvcujSpb3XSejNvCY5MRHZ+RN736nVrgNeIOqlQAHi6OcHVxhLurE1ycSStIBRUNQ7d+TVkfeocBeiGTHi9ao9m0JjNzkJqeiZT0LFGTic4xMrcTxO+NzlTAxUmBdvUq2XQpPkzJwPWoZGTl5OLDZfsQk6Gll2g+H49NayJoqUTnpgoa9G3thyHdG8NZAbg4cGhU3RfuzsxVhxycY5LS8e2WC1h3KOzxZUzcEATMHdEab/Zt+MwZKKcdeykTm5iOG9GJ4j1Hf2+kvYeUDGgf4PLulI/v8USkatcx3ZDoS6W/C3BQKsTzjExfiYBxcXIU73EUuEsl/kwl/lIqFeL+Qa5B8vtDzr9fmLJ3FIphAdt2/vuxfty0tah5iOdfdnYOcsV7oCDemTOzcsSzUUM/U2ugpgNUHLnWDiTv/M87b/U7Wb6TXPc2EngBXq5KtKpTUVuH+D4ADh06hC1btiAmJgbu7u545ZVX8MILL+RpYhU6Xu25IQiR8WnoMG2LKflZHoYAQ0ACAlNfbY0ZL9IhwFJxQoDIjkt34nAvIRNX7sZh28m7iE3KtuR9rMjgUCoFNPFzw0j/lnAB4KgEGlUvixoVvJ+Qspnbgaj4NHy1+QI2HwvTHW66Y1j0d8GD02RBIahR0ccL5TxdUbOKL7w9nFGhnDfKeDrBhbgknY6L9vqb/7Zr+DTWS3O0dwqtvzDx6KQ/BW0NZL6ZlsPjXmwSklIyERYZi4dJ6YhNSoOGc4QAFRQqIpbowa0tM2toC0z2b2Sxy9rl8Bi8PHsTMhRldUSZeL0XBywIZDaaC6WghhJqVPYpA293F1SvXA7ens4o7+ONsh5OcFZC98CkHj9+5Iv3SxHxZ689edIu8R6hJei0tAKQJQBJabl4EP8I8UnpiIpNxP24R0hOz0EOrwJPjySlY94a0V9FJgU0wpyhrcxdLsWm/M/bz+LTDefAqejreTK5OvEIXT6mUMlgsRmsCR2lNXUyIgGD5u584kGqJ3/Jp432kq+GQsiFgjRCy3rA280F5ct6wKesOzzdXOBbxhOe7o7io1O/nvXPCK35iu5enNcn7X6Q95TQPTTou9W2rfum6H90fgb1pAj9E615qpQMmnIEICVDg/ikFCQmpyM1PQf3HyYhNTNTJHNT07ORmUs7h7a9Mp6uqOzjhcZ1qqGOXxn4uDtAoX/ICBrUqOCB5nUq6My4LfL8MGEmjGUR0G76VkTGpYl91xA6nAKCWg1OyIWSU6OsmxMqlPVE1Yre8C3jDr+KvvDyUIJEazQHevN07a6qR4HmRPd3nWmHntjRQftUh7T7jAaAmgNSMoGYh0l4lJKG6NgkRD5IRGJKFjI1RMgowSmVWu10nQSI1kDkqpFQWpkqpP7O33gOy3Zd1RKA4jokUxYNeN0+7eygQDVfT1Qs7wW/8l7iGeZTxlW7RwvafZrQyo9P/h378cmm1dzW+n/RrnkRLwBJGWrcf/gIkfficScmATFJGUjP5sU9mefI5QCgEICq5d1w6ttXzFgv8orSWjh/+z4iEzJxOiwOa/eFah+2nM7HgbxqZZciUs/XTcC4gGbwK+MBXpMN/w4N4CZK7Wz9TcoellUL/nnkFqYuPyqur6cTx2lwbyWddSUnDNXG/66L44WKdj4dw6K7l4l7Gi+InkAEQSFyNOIewJMglvZIEhBoTd1IMODppBSFsioHBZwdHeHj7QlvLxc4Oyrh4ugAL3dXeLi7in8nYYEjkVg6GUse6a27p+UXHoh3UrKkIL8hYh/yz8xTjLD+kqY7C/W35ryzVLef5d2R8wkzswUizYH0jBw8Sk5FOgl8NRo8Ss1EXEKyKHygszElI0sUjoh3SY5MeZUgH8+iEFhHBOrFT7RStAIJ7Seo9//brJYv9szzt/jaZgSWxSFlFTIEHiPg4sgh9NdRDJJigADtuVkaHqv3XkVqZi52nbuD61Gp4gFCUhadz9FiMJJ8XeQAVxWP3i2roWWdSgCvRvuGldHIzxsqpXmmUFHx6fhqcwg2HwsvEkyepLDyqBmttoZOFUT8f50GnLFO5Dvjn8qia4EjAqslJvs3ttg4tATWRmQoyplkTio+aHSO/i3WCQMVyWlnkn8jzA4sHQRWplqDH3dcxuKtl566OGrBdHTgsGJyR/RtVbsop8mu6hYJrHAdgWViz/IctD61prUCW62fC1OTqLCjuxTr/1//d/HP/F+YLi/VLpJiunb0vjX0ber7YawP+ctRHu3fdcE4eDVa1fHFC+3riJJ2dwcBr/RoiCfjI5k6OkvkIwJrCyLj0nWqwHpUDNedf+xS5kHEoZC91lR8jY06ylYE1oZzWL7raoGTYczp8LOFnhW+GBbHPC6prztv3em+E0N1V/V1xalvB1ti4ZhUBxFXF0NjERKRgL+O3MSlyBSoBeVjbT/xU7YlYaRFV52bjhnDu8LbASjj7ox+bWrAzUkh7gMsPYtAelYuftl7DV/+ddEoPBve74lujf1KDHwbDt/Eu8uPQKGwzG5t6D719D5h7AwqGFTdfdfgfqs/O/NpO+mjIRRwrBra9/Ofi8b6nfd1Swgq9fS50rxWOeya46+zmLDc98gIrBLzabKB2CMCLo4qHPl+MCq5W2bDtMcxFvc+0Z4fm5qLNfuuID1Xg+X/XBKlw6TRU5ISHVC8Ro0uTf3QpHoZOChU6NzQB10aVdEZuUkbr5bAeqyBVXyxEjArsJXFCayXZm9EpokElj1jR5pphE9pSCdvP8ScdWdwKSzB4HDpDte8ujt2zhtYarSw5BBYpWGtiGNUKOCh0mDE803h6cihfd1y6NCQHnzS9lLz8BLQdvoWRBGBVayTgOjVo22jgWUCgWUv0BKBdXqhdQgsMhX87/I9bDx0A2dCE5CjKR7aOGXdnfBip9rwcADa1SuPns2rWfWLtJe1UlA/LoTHYfqvx3EtKtlotla1y2DHnBeKw3BM6uPGI7cxdcVR8vJlUn6WyTIIEIG1e65eA8tyZyMjsCwzP6wWhoBBBMge+tUetbHwtY4MITtEIDIhHev+u41bMSnYc+YOeFIhFlX7C5OZ2uFgTOiSXmajN85pWsMLzWr6wtVZib5NK6NTwypP2/EYrZURWMYBJw2sF2dvRFaxJ7A4aDWwWpqwuop3Fvom1h8JRdCKo2ScanQwfj5uOLlwoOhrrjQkRmCZNsuOKqBRVW+0reuDgDbV0Lp+FSsF1CghBBbHI3rVa1Z/WoomhIzAemKR0zd/LSoR3227iAvhCbgn+gcrhncigceb/RtizvC2jMDKN8M0k3svROG1hQcKvO+5O6lwY8Uwq5PKpu240nLRmDcdCcW0FceLhSsQaaOz79zNdASWpQNMMQLLvued9a4EIFDFxwUnFr4CZZ69cAkYVDEeAh1k5BPl9303sOd8JC5FxCEjk7xQWE4yUNzgcVRxqFPJE9V8PdC/VTUM6VKn0CGQk9nL0Y+w/tA1/HMsFOlqMfC16HBWtIG30yT6F6AYRjyPyl6OGNi1DgK71kWdCp4W8/dATnj3htzFjnPR2HM6DFDqAznY+RrTRSMQBDXKe6owsk9TDGhdAw39vO10Ni3XrZDwWLz3y2Fci84qsFIXRwVGd/fD3JHdLde4ndcUl56NX/Zdwx//XkJCus5ztZ332VbdI5+DDfy8MHVwa/RsXBlOyqL+5nnsvhyLqYu2IUXjlheK3FbjN7ld3V6jETTwdsjBR2P7YEzHGlBYmRgm7y7n7z7C52uO4OStOPAgPy/2k+i8Ep2LcQLq+Dhg3uvd0atJlSLrYHpWNv44eBPbTkfhfFi8rh05iDw2gyJ7bEU+v195bgCKbBSPK56oM4GXMwIrdM8mTUTEPsLbSw7gXERage2TAD6wQ0V8+2Yfm/TTko3Satx4JAzTVhyzZLWsLhMQaFazHHbN7W/xvZ0RWCaAz7IwBMxBoGJZN2xb8BL8PIoyJpw5PSw9Zck2e/OxUKzcfwt34tKRkFLwY9U8ZOjKxIPnc8DnZsLDkYOTSiFGJcnJFZCaw4NXOIJTOoiRhuiSZ2kJheT+C7zozHzWsDYmFaVIJnHJ6bgXlwq16KCSQ2y6gK9W/Ys7SQrRQa09kFlEqvE8j5Z+Dnj/9V5wE0fHgZzzVvV1Rxl3J6OO0U0CwkAmiiAVk5iG2MQ0aKBAOg8s2XwMp2+TDxE70t7ReS4u55yNb6e9hDK6QDPOKg41KnrD05Ucu5f8tO9CFEYv3AcYcGj75OgFNK/uhV3zX7QY4Wnv6NLlPzkjG3diHiFHo31PZwkc/thzHsEh95CjcQYvfu0s6RGoWt4D5d04LJrQGfWq+BQpMIT8pdv3kSuoxLkJi0vG4g3HcT9Z64Zd75q9SDtRWOWimz81yrsp8WqPRujWtBqcaO/hAAdOjYa1KotO0W0hSKKzKzL2EeJTs0BxG0mcNXfFXlx5oBVsWf9cFkQBSxUvB0wb1g51ynuJs+jhpMBz1X2LbD/OzM3GoE93ISohBwmp2YXNqOGf87loVK0MRj3fGPUreou6rDxHqFKkW72GO5BIfkZPhuKf47eQxTsWmUk2I7CenaaQ8HgEzNkBXkHCxoJP96plnXFy8ZACdJLlLRNblNp4JBRTVxy3RdOlus3mNcth5zx/i/ujYwRWqV5WbPDWQICiwnVvVAGr3nu+yA5pa4yjeLch4Pb9BCz6+yKOXIlHfFqWRS6ldPZTZBGVgkfXRj6YOLAjKrhpyYnHkmRt1BISxD921kqh3XUxnvJJnIlg03DA9Xtp+GTJ33iU46kN704BSazik0uDyf2fw6xh7WVPdy4PPEhMQY5aa3SQqVZj55kI/PjXMWgcvOg2K7vuggsKopNhhfgb4KrMwduDO6J3kyogMoaSswOHSuU88h4ARdUTQ/0ksi/+UZoYWUrDC8jmOMz44R+ExAhQ6qKoFbXimtYJM0UpE1CnoiveHdwajSqXFZ1ROyh4+Pl6Q0lRpfKCwxfRVNlZtY/Ss7Fk91X8uP2K2LPC5qFRjXLYNCcAZUuxKw1aJYkpGUjNyBXDa5MmzfrDt/DTjqtQEiGv07Cxs6m2bncEAVXKOOOfuQGoVNbdam1T6HOKvJorBtASEPUoG9//eQwnbyYACkeTnbHL7bA2ihYnRvTq1dgH74/sDCdRCwdwVHBiNFp3F0e7fRTT9x8Tn4IMNTnu53HrQSrm/HZISwjmbQ4WPD3EqgRU9XHFpP6NRb+URFg5KjmUL+sGJ1XRbzQUba3jjM24+zBLvNSIVFNhG6FugaiUPHo19MYno3qKNJWzgxJlPZ3h5KA0+milCIYp6dlITs+GRhDwIEONOSuP4cqdJHBi0BzL4MsIrCe/4tTMLCzcdg7LdoeahHHFsq7YNrc/qnlrxX7FNTENLNvNHJkQ7pwbYHHzcEZg2W5OWculCIHmtXywY55/kUnOShGUsoZ6KSIer365D2T2JoZ+NjOR2UGrqo5Y+/Er4iWcrnuOKoUYPpfuXuYm6mNGVo7oSF6ABteiH2HKd7vxIF0BoShNLAQNJvubR2A9PXbRZFOtQVY2hSDmkMsBX204jrXBoeAc9KZ15iIGOKp4BHbww/vDOonRTshHEc2Hg8o+4xARLumZOVBTFHIIyNYIWHvoJr7dcAKcg9vT8ZPNBshVqcHQLlURNLQrlBCgUnBwcVJBxUybEXInDi99+i9yc03bG8i0wr9NNSyd0tXiUkWzJ9qGFWTnapCZk4uMXGDjybv49o/TYkhw01C1YceLuGlPFwdc+GEQXJwst99J6TIJSzKz1cilzQY80qDAoPdWITrdAQKRjRZKdFo5qNOx9cuhqFXOAwJ4kXxxcbIvszypwyWBQ3qWdq9+kJaNb/46h50nI6BQmKtVn4taZZT4+/NhUAoaKJVKuNKZpbSuhi7pmbWduhExidK0rhyVCrz/ahMM61oXzioVXJ3lByuia1lGdi7Uag1Gf7EZZ6PVFgmkM8m/oRiExPpadFJXmXXy341PQ+cZf0Otob2g8ER3qXY86s13AAAgAElEQVT1ymLrJwMKz2zHORiBZbvJaVKzHLbNDoCL5Y4acTCMwLLdnLKWSxECDaqXwx8f+6OiqwXYjVKEm7lDzczVYMOJCMz89YSo8SQ3kf8GBSegiZ8rfpjSG3UqekPDCaJzS/01gCSPRWn+oH16AL/tCsFnG88il3MUJWhmDMsAHGpM6f8cZg7rIBcqk8vl/L9mwNjvDmB/yD2zH7gta3uL0XK0Dvgfp+L4tVH/gy/exeebzuFGVKrZa6qijwu2L3gVVVx1rvt1y5Rd6LXrhOA4FRqHgfN3m7x2KWOPppWxaloPOCgtfCuT1Av7zkzU1ZId5/HZphAIpPlj2pvJ4KA4Je232oe9/hun71ujVoPTZKCKlxKNalZAx+a10bxhTdSq4gE6blXQajjmRQEXgFxOgYiHmVi/9yz++u8GEjXO2pp5iNqRRZFUnBK3fwuEsx2tl1wNj+93hWDR5isQzNSMVSo5/PZuD/RuVgkKkRSjyVaQEb1oPlbSEpFzC9YdxdpDkUjJ4gHSXDXRNFzhCOycPxjNKrvaXKiZpdGgy/StiE4kR+2mJSLwXYVkXP99sujbSqtZbrn7j7hNCECtMT8gB95m3A8ETCQCa2hrnQ8u08ZXknPdfJCKnjO2gJew8prXKIt/5vlDVZTC0yIGndYUBWl5T44Joeg3Ve/vXjSleKydKKop5l//+U8nQz97Oq/+liqApy1E5vGjUGp9uz7+DvO3TeAaatdY/3RnrNgXXitIl9kvqqF2ZU8sf7sLGlYpZ9FZZgSWReFklTEEjCEgoFfTilg943kGkZUQePgoAy0nLYFa5SPbdNPFUQkPVweMHdAUY3vVgyv5DMh7CVlpIAab0WB/SAS+23ED1yOTkZmtMeOS97gBjs/BZP8GmDm8s1UGpxHUCJj7Ly5GJMpur4aPM45/+wo4RckiEpJzNRi3+CCOXr4vGxs3ZwVuLhsBpV2sWdnDKNKCkXGpaPXuRjgotaZVpiY3Jw5je9fFR0Plm9ua2lZxz5eYA8z45Sh2nQyXPZSF0wIQ2MILnEBaqPrLuvZiLmHajLYvCBok5Arwn7oSWQpP5Gh4JKfnyO7v0wXpoe/oyOH0Ny/B19vDYvWaW1FKRjY+XX8ca/+LMqMqAd+M7YjhXeuUOqLg73N38dGvJ/EozTTtJUcnDv999gJq+HoXpbzLpLmkPg/9IhiXohMKt5vW1VjGwwlrP+yL5n7eVpnriMR0BMzchqS0XFnCHNLAmh3Y2iQ8Snom0nCr+cYKKJS0/5jOSHg4qzC+dx3MGNK22EKUwwtY899tzPz9pEljoCuTq5MCbk4OcOBy0KiKF9o0qoIqFbzh6eGJsp7uopmsq7P2/Mkzt33MRz3RjtZ9w1NN58v7KEuDoJ8P4vQ1efe9hZPbo2/relqiKV+cFfp7/utf/r8/nZeWBJFoZHqenJGD+MQU3Iy8j7MXw3A2LB45Si/RvJdXC6Bzg/y8mpIqeDvh46GNMaRTI1Oym5yHEVgmQ8UyMgTMQ6Bnsyr4PagXVCVPGGkeMBYuTVvqzehE+M/djuxcco4uyhAktUI+HKqWd0f/Nn54b1ArUYpP/9kHefV4KCRVWrrzHLafvovLEamSpGqGAOH4bEzpXx+fjOgqCS9zMr/06Q6cCU2UJeEhc82+Tbzw23RyqG2JZ6w5I7FsWdJeGblwPw5clHehod50qOmEv+aRA9aShY2lkCafc+fCY/HigmAIGq0PNVP9vlAfhnSug8UTOjJ0TZiQLzadxK/7biM9W9peLFbNCfgp6EUMbOYtzk/RfusC1OBw+FYsFqw5hYSUHDxMyjRhhAVnIQKL1ltFtxyc/t9YqOxov7oQHof+c3Zog4nISBzU+G58ZwzpUq/UfQu0mtsH/YXIeNM0mEb1rItPXm0JDzcnm+ql3U9MwZSfDuNEaILJFHCV8u74dWpPNPXztto8E77XohPx+rd7EZWQ/eRrvNC1KmBiQCPMHtraav0ttEs2zHA7Og5dP5amaazvbu/mVbA6qFexxTEmKQ0Lt17AH4cKF6I4OihQt5IbRnSpgdf6NhcJIC0vVHT3qDS1gDcWH8CRS/dkrZAd8wegVfWyhhWtqEYpymAF9IDeHPfiU/HFxtM4FZqE+wnphRLLbk4KjOpeA3NGWFYwzggsWUuFFWIISEegYY1y+PyNDmhTs6z0wqyESQjQ5no+PB6vLwxGXFqOpMeotgEBrg4cBnaqiw+HtUU5F3r6F92hZdKgTMhEmkxvfBOMm3HpuPswXYpw7YnaFXy2qIH1iaiBZZ1xf7H+KH7ZfwcZOdLti8iH0+UVw3VRBU0AqphlGfbNHhy8FCvzwS4gdPWYEouNJaYyO1eN177diUPXk2VV17VxRXw2qi3qVPKWVb40FaJ4r68vPIBDF6NlDXv17EHoXcfdSruStovkG2jb6bv4YUsI7j5MRTaFqzMzlfN0xo9vdUP3+uVlftdmdsBA8dv3EzH++wO4GWMaCfN0FbV8VPhsTAd0b1bT8p0rBjUO+2wbDt9KRqHWp5yAHbP7oWXtClZdx09DSIoTM1YEY9ORSGgKjbqqLV23ihe+HdcBrWuXtzrxRl/dudsPMH35f7gVmwExOoCJaVJAQ5HAYknAoM+24MRNIhykpxa1ymHRuA5o4Fc83y8Xwh/ivV+P4GpUweOnW2+Dqh5YNrUv6vpaz3F9lgC8vmg/Dl2UR2Ad/24IapZzlj6xMkvQbf3A5fuYtfo07jxIKbAWDho837Q8fnsvwKL7HiOwZE4eK8YQkIoAL/AY0qkGFk/splPptA5BILWfxTU/qQgfuxmHj349hrtxqbJIHP/21VHVHZg9qqs4R8WBvNLPFx0oe85H4I/DEdh/LkqipFJbCxFYU/o3wMcjulhtGZyNTBLJt7hk6VoOrk4q3F4xFAqLxzex2vALbGjYF9tw8GoCOBnOgsnM6t7KMWL0S5YMI5CSnYsGY/+AINORvcDnYlK/5zBnZEcGcSEIEBk0ZuEBHJBJYG37ajBaV3K1yeP5xLVIbD8dhd0h9y2ijVXd1w2Lx7ZG+4bV7WLdUNCQ7eeiMeXHgzL6I2DaoOZ4e0BjuFghWp6MDhZ5keO3YzH8y/2gIAYFJx675wxA89o+Rd4nYw0QGXT+TiLm/nEGZ28+MKkfFcq64Msx7dG3hZ9NtXmPX7uHWX+cwrWoNJP6TRq1k/0bY/bQliblL8mZ1BTlcuRKQK6rBV6DIR2rY/HkHsXqXqyf00OXIvHG4mBkqgsOvODupMBb/nXw7kDrugYgA9kxC/fjoEwC68KS4ajgqrKW3FmElfaSZf9ewWcbzkFdgA9FgdegR2NfrP/QsoEAGIFVkncsNja7Q2Bgp9pYOKETnEwXINndGOyxQ+SvZN+le/hiQwjCYx5JNBgUfc1iTI/6mD2mHZzFANLFi7zKPycP07Lxycrj2HEmSjKJpxB0BNZw6xFY4ckZeGXOLsRKcCKrH6+WwCITOXOjQdnjqgZGfrYF+68nAQoHWR2MWT1aV85yDnZldcQuCwn4ftdlfLnhglm9G96zPmYHtoSXs7w5MqvxYlSYCPbRi/Zj/wV5Eubg7wejYRnbOb0m5as1h25j0eYQxKeQPpn8RBLpPs18sWq6ZS/0cntEu8Pei9EiwSiH7/4ksBWm+DeSVVZun+2pHOmtNR6/Toz0WFDiczOwZ8EgNK9d3mbdv3wnFp9uOIcj1xJM64MgYFSvOpg+sAUqeLlYTTPbWOeOXIvB/I3ncMVEv5mTRBPCVqaNtYTmou97xb4rmLvmvPS7cT5M/NtUxddvtEc5N1oHxSsFh0Ri1Lf7AKXxc5riawzrVgdfv2Z9twC5EMT9Vy6BdX35MHg7OViVwKIVcPrmfczfcA7nwpIKWBCCGNxjzfS+Fl00jMCyKJysMoZAwQiQGvZHQ1vg+RbVGFQWQoA0r/ZciMbCP0Nw65508kpQZ+LNF1pi5pBWUOnCV2tj2cm5yltoUGZWcy8pHZ9tOo+tx8je3/Rx2ILAikjOwKA5uxGbKF21nQisW8uHQinTd4uZMBd58dFfbEXw1SQIMjSwaNbvMwLL6ByRj7GKo36FgqJ5mpFq+3mLYdqfb1rFjFpKflHCe9SiA7IJrMM/vYq6nrZ9OJGJ2Lr/bmH+xvNINdPBe60Kbpg9pBmeb1PHLiZ/38VojJJJYM0MbIXJpZjAIlf/z41fh4xCCCwnIRPb5w5Ek9rlJZzKllse9A0u3XkRCzaeAw9TCHcObev4YOawlmhdl/ps+l3Ccr1+tqbvt57DDzuuIoPUVgpJtC5pfy7NiYQHdd9YiQy1eZLzqr5ueH9wMwzuYB97lpQ5Db4QhVGLgoECtPWdnRQ48vXL8CvjLqVqi+QlDTmthrI8Ac+NFcPgRQSWlRO9lD5dfwpLdl0v0LS3T7PKWD29t0V7xwgsi8LJKmMIFIyAIPCY6P8cZg9vx6CyAAJ0MAdfjsbnG87hVlQK6IImJTkrsjHu+YZ466U28HI17yErpd2izksoRMan4evNF7D5WLjJ106lTgPrIytqYN1JzsBAMzSwbi0dBgrhXhLTa19swt5ryRA4JxnDExCzaowU/lJGG8W3yMrd5/DR+iuSCF7DoxUwc2gLTA5orAtjXXwxKdqeCxgpamBJD0pApkCnfnwV1W1MYBE+FBDkzxMReH/FceSopfvt02PMCTwCu9TAogndLLAGzZ+5YB2BJaemmYEtMbl/4yeiXcmpp7iWIcPBeiYQWA0qu2HFO71Qu7KXTcigM7ceYM660wiJSDJNO1ujxsT+z2H2yA4m3yGsMYc3Ih9i5tozOHYjvpBvRxCJ1VmlPArhhkOX8MHqS2btV9p5FTDRv5EY1bG43bhof6Pzhysg1HCTGp7YO/8l3RK27gjNMbGnId1aNgyeNtICP3jlHhZsPI9rd41rYfVuXhlrghiBZY39kbXBECgyBF4XD4BWcLTu/lhk47FVxfSQ+O/afcxfewY3o5N1hn+m98bDSY0p/g0xpm9zeLk5F7sDubCREom1+2w4Pvr9GB6mmkbsaX1g1cfHVoxCGJmcgZfMILBuLx9mlXDeheFdFD8f+9UG/HslFbwMAkvgeMSufI0RWAYmhvaOdu+sR/Sjgk1+TJ3ThhUd8OmoDujYpIapRUplvlGL9iNYpgnhmZ9ehZ8dEFhaEgvo+/4fuBpbmM+jgqf5pQ418O24jnB3sL0JtEhgLTpgGrHx1LBmDm2p1cCyo8iK1vzARA0XEwisEb3r44OXm8HXkwQS1r0AUh83HL6N6SuOm+wfs319X3w6sg0aV7edzy5D80iCyh+2ncPS3bfwKKPgPXxyQEPMKuVO3PvP2oqLkamyIj0/jX+9Sq6iRlvvFsUrYEPhGqYcts3qg7Z1K+YL2We9XcQcAot6eWvFMHjYQAOL2s5S8wj65Ti2Hjce4bFX8ypYG9TLooAyDSyLwskqYwgUjkAFbweQyv2gTvUKz8xyGERAAI8zt+MwbcVxRMSS5pW0y6ATl4OpLzXBG/2awtPVtmYpRTnFyelZWPz3RSzbc9Mk3TQFn4Up/Rrg45Fdi7JbT9QdlZKJF2fvlOUDy8VZhdClgVAotF7LSlp685tN2HkpBRoZZm4klYtdObokwmL2NGcKAhqPX4+MHMsQWByvwXcTOmFI13olcBWaDbdYAVHooxcFI1iGBhaFkz3z01D4eVgvylJho75y5z76zt4n+ezJX285dxWC6Bx6vklhzRX5z7UaWPtl7aOlncAiQqUO7SeFmBAueL09hneuDRcHZZHP59MNnL0di3eXH0b4A9P8txEXOaRLHXw3zvr+gEwB50FSKiYtOYoTN+KMZqcbwaT+DTFrGJkQlrz7QeE4CcjiOXSZsQXRcaY5vi+sTgXHg773if2bFCvCmkwIRy46aHQVCNDg3urXoLTROjGXwLq5PBCezrazInn3l6PYdDjM6HfWu3kVrGEEVmGfF/s5Q8DeERDwMUksyeSklEoszZ2h69GJGP7tPsQmZJksTcxrkyKH+T+HqS+3hmcJMhs0humD1GzRyeKWI6GFwi4SWGIUwuJDYIUtG15iTVcmL/wL/1xMhtokfyVPTq9IYK3SO3EvdOpLTQZBEDDoi904fTO+8LD3ElD5fHwnjOxSW8ZMSWikmGclHySyCCwA534egsp2RGARJUfR3Pzn7CR+TVYi4mOSfyPMsQMTp/0XozBq4UGTBB1PD/YTMqH1b1xiNWELm1xTNbC+n9QFA9tWh4PO12Zh9Vry51ofQAdMJnIqeLtg2ktNMaZXfUt2w6J1jf5qN/ZdeVCA7x0Ok/0bYlYgRSEsjQQW8Mb3+xB84QFyNfLNnZ+etHdfaop3XmgCV0frE7FyF1BhGljt6nrj71kvyq3e7HKkFT564QHsl+MDiwNuLxsGdxuZENLx9/32ECzbfQOP0g07putJBNa0nhY9I5gGltnLjlXAEJCOwPShrfBWQCNmRigdOtyPT0HfGWuQoHEDJyhQgEm7gdoFjOldF7MC28DNUW+2UbIvNnRt+XT9WSzdfa1QtDnygdWvAT4ZYb0ohNEpWXhh9g4zNLCGQ2Geb9JCcbFVhmnfbcGWC0nIEaQ75xRNCFe9Zquu23W77aZvQaSFJNL6gbq7KPDrO93RtZGfXY/dlp0b9d0BBIdES+4CreWLPw9DBXc5vuAkN2dygbRsNeqNXQNBbmh6AOP7k4+elnAQjyHbnUX7iOBYuB8cJ30zJZMiMiEsvUmD2uM3FqyBxQn4fVovPN/cz+qzHJ+SgYVbz+L3A3dMJlu7Na2M39/tYRNtMVPXUXxmLoZ+vgfX7iYaLEKa+ZP8G2JOKSWw1P9vqRAw919ciogTNUXlEu1Pg+vkIGDRuE4YVEycuRPBsudiFF5feNDw0uJ4nP1hKKqIUTZtkzQ6AkuOE3d6A5ErDVuZEBK+6blqjF18CIcvG/ZxKRJYQb0o4LvFEiOwLAYlq4ghYDoCgiYL303ogqHdnzO9EMsJXhCw/9ZDjFrwryzttcGd62DxuA5QiiZnpSel5PJ475fj+OeEcRt1EQ1NDib3b4BZIztbDZx7qVl4YdYOxCRSMHJpiUwIw5YMB6ckms6SR6O0fhRV7o+X7MSGMw+QqZbuI4cRWIZnZfwXm/DvjQyoBQuvF3qgTu2J51tUtfoDtajWnyXrJW2jkYsO4IBMH1iXlwTCx812JhKGsKCL+634NHQP2iIbqnIuGtGnzNAeTWXXYYmC5pgQfhLYElP8KYhBaU0CaptgQrhqek/0aWZ9AiskPB4D5uwAbzI5KaCX6HS5j13PKQ8e/nN342J4gtGFp/WBVTpNCGesCMafJ+6jEMtW6R8tJ+C7sZ0wtEudYqH9LhJYF6LxuqiBaDiFrRgKVyfbCUjoBqvVwJIj4AFClw+Hu5P0e6L0yTdcgs73MYsOYt8Fw/3v2bwyVgb1goMFdxRGYFlq9lg9DAEJCAgch0XjO2Jol1o2iUYjoat2lTUiLhVdpm+FmoNkaVKPZpXxy/TecMnzWlK6rtvTfz2K9YfDC3TkKQhqTOn/HGYN72C1eb+XloUXZu5ETGK65DaJwApfOhQwQwNCcqNWLPDVuv/w68FIpGbLs1GKWc1MCPNPF0WB7T9/Ny6GGX/wuOjU8DOzTIjR/tRacFdlYuvsgWhco7wVV0nxaMpcAuvasmEo4yJdE7Go0YmMS0HraZuhlLsHCWqRwJoc0Kyou1pg/cEXyAdWcIGh0I1VMDNQa0LIWfBxYlMwZDRea8I6ZGYZ96kncIKogUAElrXT+fB4+M/bJenOVBROl4ti3KO+/gcHryXBsIWcgEkBjTC7FDpxJ1P50Yv3IzjEeNRXZ0eVKMxNl3HWVfVW4afJ3dG2QeWimFaL1pmSmYPl+65j4V8XDdbrhmxcXvEaXGzkBJ06ZZYJITjcWhYIDxuej3RDHb94L3aHxIA3YBbTpl4F/DCxC2r4uFpsbhmBZTEoWUUMAdMRoI996uBmePP55+BlQ8d7pvfY9jkTUjPQ5K3NoINZaiJXV6M7V8Wc13pILVpi8v+++ywW77iJh6kFRM4SeEz2fw6zhrWz2rhjMnIQ8Mk/iEmQSWAtH2ZT05uiBGrpzvP4cedNJKZJJ1PowRS7akxRdq/Y1X07Lg3jFu7HrfvJRvv+hs4U6rddVyWPj0ianXMD0KqWfUXtkjyQIihAuzb54NlvREJbWJM3lg+Hl7PtJMzG+heblIZBn25BRHxhIzD8c7rrU1Tiyf1ta4JnSph5IyPAzECKQlh6CSxeAOqM/wOZOQVHpVwd1BN9mluXwMrK1WDt0XDMXHlCAoElQBv2vo+8RW3FUtkAOgdtQXS8YSfl5GOOvq/SlkIfpmHqsqM4d/uh0aG/1Lk26lT2xsJN56TDw3FYNY3WcxW7p63vPHiEt5cF42yoYS3/Ze92wYAWNXTBgKRDYYkSRGDR+ShXQzl0+TC42cgHln78h67ewfu/nUVU3LM4V/V1xYeDm2FQh7qWgEusgxFYFoOSVcQQkIYAz2dhzXt90bsFC71eGHL0+Jmx6ijWBYdL9HkFODkoMbhrLXwzup0s/x6F9a24/JxUlMnHSUE29vQAJ6enswPbWG1YcVka9Pvob9yXS2AtG25L1zFFitOGIzfwxZ+X8PCRaZGj8neGEzjcXzOqSPtXnCrXRsHbj/0h0eA5w7oiClr/Ac+hjKcbFm+7jNSMHMlDnDemLUZ1rQMXB/sjWyQPxsIFRhL+Mk0Ib60YDg8bmkgYg4L2zLMRiXhxzk6ZaAlaDSz/xjLLW6ZYsOjE3XQn3/lb1RJYjUq3Bta4tcjMKchRtoDVpIFlZQIrKi4VbaduApRStBcF9G5aAWumPy89SI5llqPJtdD31z5oCyIT0vDs5ZCCJFj3PmNyx4swI51105YdxsajEUbnT6UEhnWvjcZVfbFg01mkZpCQTJpVwvRBTTGhb0O7D4Z0OeIhXpz3N7J4w1FsTy4aiOo+HkU4I4VXLd7PF+2XR2BxPEKXDYebjZUh1P9/Fg6YswsXI57VcHdSCRjToxbmjbKcf11GYBW+rlgOhkCRIMArBKwK6oE+zapJPDaKpDt2WykdxvtCIvHmj0eQpS5YwmloEFXKOuPY4lfhVMpRJhzf+t8BbD8dDbWRezbloYeINSWWSTkC+ny4FfeMSFALWpiiD6ylgeBKqBf37afCMHfdecQkZcr4PjnErGYElh64C6H38cGqs7h095FRLGuVd8ZHrzRF8wbV8OHvJ2VpCwlCDk4tehXVfb1kzFkJLiIAI+iCLifKEoDbK4bB3YYmHgXNzIWIBPSfu5MCE8pKRGCRpoi056OspowWIt8r9IASpEVFER+95ISeBB9SH8CWHYHtaiMSpc6E9cgowISQercmqCd6W5nAuhufinZBm8FJ8REp8OjdtCJWv/e8LF+j1p0JAf1nbcHFyHSD7hG0UQhbW7dLNm7tRlQCZq49g2PXHxj9JmuWd8MnQ5qjgZ835m88h70hMdK/X002ds9/Ec1rV7DxiAtu/kLYAzw/azsUKgM+rv7frcCpRa+gmq/tCSxRwCZLwCMgbPkIuNqBhnK/WX/jwt3kZ4UZvBpDOlXH95N6WWytMALrKSj19w+O4yCQXjD52oH+XkJSW5k3FItNGauoJCEwomctzBjUEr5elrMLLkn40FiyNAK6TP8T0YnStVBUSg5v9a+HD4ZYzyTOnvHffz4UH64JQXSCYUKEzM5EAsuKPiNSNEDPGVvkE1jLh5VYyf/Os+GYvfY87stwcE8P0VimgZX3OU5fEowNx+6CVxjTRBBEn4SLx2slhO8s+w+bjkbI0NoU8OXoFhjZszGUJZRYlbvHjShEA7Sgem+tCISHk305cdf3l5xk+8/5B+DkhZX/eGgrTPFvBFvGFpGvgcWJJoRTSjWBBdSd8AfSswoSsAlYM70nejerKvfzkVXubnwK2gdtlUhOCOjdrCJWB/UtFgTWhsNX8MHKi8h5RjJHGlgkkCs9BBa9UL/adAo/77oGNU+BSgzR4gL6NK2MVdN7iXen+RvOYIkYpVp6YJMFI1tgRPfnQP607DVdiIhH/zk7DI6vdS0P/DbteZu/wbQm9vIILJI5hC8fDlebaygLmPH7Ifx5NBrZuU9xJQKPIZ1r4vs3u1lsmZR6AouHBpW8ndGlaVVU1akQEkn1JIFFhgWPNTEF8CDzDP7/Q7Q+SM7E0ZAwRCVmQQMFFJxClALYUpJmsdXBKip6BIQc7Jz/AprXsm8JRtEDYbgF+u5+3X8T3/wZghQZ5jzlnAVcWj5GxrFsqxEXbbskKfafswukMWAsEYFFGgHWSmkC0H26fAIrfNkwuzdzkIvl3gt38fGqM7iXID1CI8117GrmA0skwQUB05cfx5ZjYUanokZFD8wc2hIBLauLB/iOs+H4bOMF3Hlg2LdKQXNa0UuJY99SVCP7vdTLXZPyywkYsfCATA0sAaErRsDNTvG8FPEQL8/dikxBXhj29wa3wNsBjeColP6AlD8fT5YkJ+5k4inHEfvMQC0BV3qTgFrj1yOzwHBvWifu1tbACotPE31ESU29m1UB+eyit5C9J6IN644z5IOs9DlxT8tR49MNZ7E6+KZR0rK8tys+GtIcQzvXEd+qh65E4dMN53Et0rhvSGNroHoFN/z9cX9ULGO/QviQCBIwGCawlrzVCQGtasLBhnuvHlsy4SZfhHJS2Ar7ILBuP3iEVz8PxoNnrAZIQFgTi8d3lTM8g2VKJYFFbGUdHwe8FtASCoGHj6cjWtariIrebuLH/KyW1ZMbuJ5XpD8T0rIQcj0KsSm50AikpMshPVeDf09H4OytB4DCkkEjLTbvrCI7QYA0XrbN9UfrWr6M9DQwJ6EPkvHG4kO4fU/6wUrY/vhaC7zSoykjsPKwFdBv5mZcvJtulPSxttPTdAHoJpPAIoIgbBFgnUAAACAASURBVHmgrMhZdrIFFNiNw1fuY8bvJxEZJ51EEaBB7OrXi8Mwi7SPdE5vPxOJr/88j4jYFKM61D2a04OtF/SUk4bCQn93UPSZJSddXzEc3nZKuMgZj/lltE5qg2WaSGid1NqnBlZ0Qipmrj6GPSHGHSYXhN87LzfFuy80hqsN/abtu6glsBSyTQhLOYE1bl2hTtytbUJIwvST4YkYNI8e79JS72Z+WB3UA1r+yv5JrFpGfJDRfYYEcvY/AmnzYzi3gD0h0fh04zmE3U8xWmGTmuWwY7Y/HJQ0sxw04DFt+TH8ST6zJCcOxxcNRE0fd8klrVVAS2DtMtjcrrn+aGEnQVfIR22wLBN7AWErRtiBwEwALwhoP/1vRD3lEoTeY0O61MIP45gPLMnrXnsmazC6dwN0ql8R5dxVaNfQD6LCt9kbtKifpe2TICCHF3D9bgIi41IhcAokpuXgryM3xWgQCo6ux6VjK5U8SaW0QIeGnlg6pS98PO1XgmGLqaGvau4fZ7D20G1kFCjZNNw7d2Umbv42FhynlCVVtsWYrdHmP+ci8MGvp5GURvF7nk3WJrAyBKCrTAJL6wNrKDi5IeytAbgZbZwNS8A7S48g4oHxy6jx6jWIYQQWyN0bSaSX7r5qwMmvFj0FePRt5ovfgvzzaRwIWL7vBr7/+zISU6WbL/drXRm/vU0aDLbTqjFj6Vm8KGkEjhYlzPdk1X17+VC4OxvwYSKrNssWylTz2HTyDj5cflRWxW+/3ATvDmgCNxua4ZDkf8SiYCgEaevVXqIoygLeQoVoj6k3fh3SC7mnWJvAUvM8fg2+irlrQySPtGuTSvjl3R7wsOGalNLphuNXIin72bVbmggsujP/b9cVLNhAUQUNvzNJ0ahHo7JYMyMgLw/tzb/8ewk/7LiO+BTpgUu6Ny6HldP6iQGT7DEZJbAENXbPIwsYX52jINu+zWUTWByPsOUj7YDA0nIgLaduQEzSs5GzicBaPK6TxbQ6S4UGliAIqOIl4Os3e6FhtbKo4O2mNQm0wpdG7ZBd9p0HyYhPyRIv0JsOXcffZ6OhUdNcM59aVpgGu26CQw5OLHwVVcszp7/5J+ry3Xi89+tJXLqTKH3+BAGb3u+BLk3I34Q1vnTpXbRViWyeR+f3tiI6Pt0uCCzyxtUlyBwTwpKrgXUpMhWTfj6I8BjjjscZgVXwl/T3kSuYv+EcYlKN7wN1Knnil7c6o35Vnycqi0/LwtAv9+FaZJKMz1XA/dWjGXmeh5yA0YsOYJ8sDSwgdMVQuDnZJ4FFJky7LkRjwiKK4ic9vTOwKd4dYFsNLCKwyAeL1DC/RGCRhsuU/qVXA4tu8XUmrEVGVkFRCIE103tY1QdWrlqDmSsPYPVhctAtLXm6KDChb31Mf8V6EYml9fDJ3JtO3MG7Sw4/U4W1BXLmjMHcsocvR+Hj1ScR9sB40JdKXo5Y/0Ef1Pcr9+RZl5yBif87onP8Lq0n5Iongnww2aGAgb7NcxHxeMGABlaremXx44QuqGkPby9B6wNLloCH0zlxtxON7wV/HseyXWFQa57kN4Z0Jh+jjMAy6esi6ASOxw+Tu6FV9TKoUdELCo7+VZqEyaTGJGSKT85EQno2eB7YdzkKX/xxHpyCg9g1+k2yCreExktiVo7kB1rDT4WIIa+LpMOJ0m9eoEsF4Uo/U4gq0ZxdEYcCDi16BXV9SQPLtmvTXpYHzejstWew+sAtA445TeilOgOhv42Fm7OU0NEm1FtCsrQM2oiYeMMaWBPFqD2tRHNoayTqBfnoiJYRhZBMCENXBEqLsGSNQVmojeux2Zjw/V6E3pNOoHCCBvfXlHYTQgE/77iI+RvOQ6Ew7o+qea0y2Dl3wDNrngRMz8/ajMuRRPZK/x4m9Klp0bDRFlpWNqmGjt8xi/Zh34X7krGkK9Htpa/Cw0Wej6miHjARWHsvRuONhfIIrA+HtMSUgEZQ2dDfUPDFSIxcdACcDA2s0k5g0eWyViEmhLSG1wZZl8DKUWvwwfJ/seGkcZ+Xxr8NQet0eULnYnEvTVXzqP/G2rzh6J/ObwZQUBq6z5TsROPddOQ2glYcF/0zG0vVyzni+HeBBvAQMPKr3dh/5SHEaBIS36FBAxtixkD7c5ZPbwkyox04b6f2jZ0vfTexMwa1q2FT34OPF6zOxF6mhrJ9+MDSjiYxPROt392KzBz1E3gPFjWwOkJpIa30Eq2BRc7Wf5jYBS+2pwVqn6qN2bkapGbm4lF6Nn7Zd010vCf1AlGyt+XHo6P9lGgqnufhyuWgU6PKGD6gLRr6ecGFTieetioBCl3kJyKuyB43JYfD38duYM3ui4hL58SfS3+KFC3KPk6ZOPHT63C1Ux8fRTv6Z2t/kJaND347gT1nI2U1/c88f7Sq4aPz3yCrihJcSECLib8gNt3RoB+siTqfEda68JHCeie5BJazAmHLhxeLC7acBRWamIM3vt2L29HStRA5IRf314yV02yJKfMoW43vtl/Gsn8uGdWEqljODf8sGAA/N8PaPQ/Ss9Hvk38QKyMSpLebI678PIRFIxRXlIBR3+1HcAgRWNLT7eWBcLfT85FEZP9ejMZYmQTWzKGtxOivNuSvROfB5KNMTqDtWYEtxf7LIXmlrwR7LMGjluhEvGCLCmtrYKk1PL7feg7fbr8uC7Q2Dcpj/sg2aF7tSW0dWZUVcSGSScelZj1xt6d7voujslQIMklb+Mddl7F8h/G5dnZUYvdnA9CgAll7PGuHlJCRg6Ff7MXVu9LvG05OHMJWjAQ57LCnlJ6ViyW7LuCbrVfzukU9pNGvmd4LfZtbNyqoUWxEDazi7sT98ehqjF2LrFwKeKfbEwUOL3eujUXjO8JFaZk1UmIJLB4CFo7vgGFd6xYbFX5RY0wQsD8kAgs2nMftGG3kKctMtT1tKcb7Qo7etFFwOKgFDbyVyfh84osIIJZc1LPK96wWCa3HiS6RWRoeP207ix/+OgvOwUOMCElbVZ7ClUjBkzaWtZ7npuFOY75JJhJ2ekE3bRSWyUUztGDDWSzZdVWccamJtC5PLRyM6j5Mo80YdlEp2egWtPkZCQnlH68jsKylu0behciEUI4GlpOLCneWBZZYAisyNQejv9qLm5HSL5QKIRv31oyX+vmUoPwCNh4Jxbsrjonrw9hOQtGHTy96EYKxq7cAtCYT1wTpjvRdnFS4umy4VsBSyhMJl8Ys3I99F6UTWCS8Cl06HO4u9hnVkeTMe4jAEjWYpE/0x4EtMMW/se52I/3Mk97isyXEKIQLg2X4bBNEjd3J/o0t0Y1iWgePOhPWIb0AE0JbaGDxAnD4dhKGLfhHHq4cMNH/Ocwe2rrYvKPkDbT4l9pPBPTCg6IQ31ii+1LE0uGiZZLCgA4WBS4hU7uQAqJUF4RU2OrRsFdPvoaMbmwpMHgWR16cPzkmhORrO3x5oH34wNINzKCR01NvdnO/uhJJYDk5KvDJ0JZ4o89zFnMWZi7QUssTkaXhOEz5YReOXUtCtpqT5chaarvWzO+g5ODm4giFggMRjtXLKPDJ6C5oV7eCqGllSM1QwwvIyM5Fdq5a1B4Jj8vC+//bgdsPNKK2lYKzT007U3A9snAgapX3MCVric6Tnp0rhvRdtZ/CAEtPrWq44vfp/vD1stejVPqYLF9CQJ3x6w06ne3WrKr4IGlUxdPyzRqo0RwNLGdnFSIoCmEJNRC4n5mDEV/8ixt3pPvAUgg5uLdmnFXm0B4byVZrsOrgTcxZc8aoGIjOmaZVePz7RcGmlst2ncVnf95ArqZgHzeGcKheRomT34+wR4is3CcB2jDhMp24LwuEu4t9RiFMyczF8n3XsfCvCzIwtQ8CSEtg7ZdxZ7aP/ssA3qJFyAdWwQSWgLVBvUDR/ayZbsenomvQVtlN+nhw4n3g1S4NZYgTZTfLCkpAgM6lv0/fwTtLjuhKGSbB29R0xfZ5gwq8L/3ybwi+3nodqZlPmn+Z0h0XIRXhayaXMrULU5AxJY85BBYQTj7I7MQHlimjtUSeEkdgEfv8er9GmDWsNZxLiNSTxkRRDJftvo0sNY+IGPKHUvwGRxGiq4uqq4AKGrSq7YGg4d1R3k2VJ93Jv+3qlKfwKCMbcY8yRG2cu3GpWLb7Mo5diYVSoYKosSXaFmp9h4mWhJb4MqxdByfASZ2C8HVvlfLNX8DP285ofdY4yCGgBOyeG4DmtcoWy2/EestOg1rjNyAzm7y3PJkqeGovrK90bmiV7lCskg5Bm3HPiFP5gjrh7AJELBtZYuf6YVYOAj/bi+syVPpLO4G191wYhn+9Ew5O3kaXkKuzEjeWDYdDIaJYOoPrilHGnv1eCvtIKpd1wq45/VChTOkO0iFGISQntaIPLGmJjviw5YFwc7JPAutmdDzGfbsdoYlyNMTsgwASCSzSIJM2NaLPUVEDq38TqSVLVP7a49ciI7ug2ycHbRTCKlYdd2R8GtpN3yzZp5G+k/TtTej/HIJebApvV/sMomBVQO2wsQthDxAw62/wDs7G55njEf37KCgLidhMigBtp9N9TGsBJCU5OStx5psX4OtlHeGnlL7ZfV6Bx6hFcjWwGIFl9/NrqINVy7si6uFjB6u+HipMe7kJxvQteYcpbSxJuTzGf/2veFBevRMPHvarcaRSCKhTpQy83WlT5VG9DIcvJj8PR4HXSfmevSrRJVcjcLgcFoMstQK8hseuC1H4dedFKFV0ePK6DVryNcvu1zfH8bizehRUdjynRQ2iRhDw867L+GLTeVlmno4qHttnDUCzmk9GEyvqfhfH+ttOXY+oxGdD3Sr5LMwObIUJA1pZZVhECbSXaULoKvrAIu2WkrcfEPgPs3Ix7LM9uMYILElrUc0L2HHmLib9/GxUqvwVdW5SCRtn9DFBHCRgyFe7cOSqdGfIpGk8oFV5/DylrwztFknDtvvMoxYFyyKwaGChy4bCzcU+H9DnQx+g/ydboHBykzwHSqhFAuhN/2aSy1qygFYD64B0P1yMwBKnofb4dYVaSawhJ+5W9rkTFZ+KttO2GPR3aer6UUDAlAGNMMm/Ccq42+c3aOpYSlo+Dc/jwKUojF74X4HXoCY1vLB33osmrYM3ftiHPedjwZMNqoRErqYHd66JxWO7SCjFsmoRkK+hLJA10vJhTAOrOC0lR6UG30/uhkk/Hc1zPDmoS20snNAJWjnds07qitP4jPWVSJ47scn4av1xxKTwuHI3EVnPvkOtPlQePHy9XNC0hi9cnJRwd1DjDf9maFjNB8o8u2wy2tD7uXrcxbjkDFyPSkJyejayBAU++/0A4jOU5JddvPTTL9G2W9p+anUMzG3w16md0a9VLXOrKbblb8em4PO/zuPf0/Kct/dr5oMFozujii+TABW2CFYfvIwPfj+vI3/y7ZWC9kE1OcA6DyqzCSzSwCqZ/BXis3IxVDaBlYV7ayYUtgxK5M/vJ2VgzoZz2HEiosDxXVs5Gl4KwaSImzlk5j6aolxJP4Sa1SqLHXMHQI5+TkmaoFEL9yFY9IEl/YMNXRYouhywx3QhPA7Pz96ZF0BGSh/rVXQR99teLWvJQEVKSwXnlU1ggTSwWpdqH1i0I9QWoxAWYHbFAaun9UAfmxBYfwKcebsPJ/B4+4UmmOTfSCuUZskuEEhMzcK05Yew9+IDo/sqadGd+OZl1CxP9+LC38X0nGxgAiFrCAA/H3ecWDjQphFV7WJiJHfCHAJLQPjyEYzAkoy5jQoQmTG+V3W8H9gJ9Sasy1ObHNChFr4Z1xGejsXPxE4qlLQNXY+Mw7YT4bh0NxkXwuKRkiHdbllqu/r84jbIAVW8lOjRqjYgaFCvijcGdqqHMq4qnSTP8EWV5i8mMQ1HLkUhS6PErXuJ2H02ErFJWeJjQvoTQe4o7KtcGZdcXF7+Ril1mClgw+FbmLr8GLgCQt4bmzHypLYyqBf6NPMr9ZoOpqzqLEHAnFUnnyWwOAH+rauhWyPrmDqoIaBD0FZZTtxdnXQaWPbljdMU+E3Kk5CViyGMwDIJq/yZzocnIGDeblHz11hS5KYjet2bIpfyRHAQYwUEAZ1m/IXwh5mS+1O5nCvmj2mDgObVZJE3khu00wLkJHy/6ANLGoGldeI+DO4u1gotIQ3AkPB4+M/dJa2QLvf4fs+JBJADha63YdKaEO6XcfewDxNIG0InNl2oBpZIYPVEn+bW9YGVlJaFD1YexT+npZvuPospjykBjfHui03hYadksq3XgbXbvxOfhg7TNheoWeWkUOPqkhESNFgF9Pp4M65FSzcjpMi7n49pg4Hta1sbimLenjk+sBiBVawmn5x+31oxAmSmFjB3J25GpYj9r+fniY+HtkCf5tWL1XjM6SyRPbeiE3H0yn2cuBWHI1dikZZZdCpZhH2rOj7o1LAiVEolapVTYWA3iqCTn9k3zPJnqDVYse00eKUr7jx8hJ3Hw5ChUYpCAdKyMkU6YA5W9l7WxVmJ6yuGwcEEoxZ7H4vU/pH54Lojt/H+ipNS3zfapgQ11pCTVHokllBCQyqmBed/mia2zQNKDV5HYJEpuLTk6qRE2IphJdYHVkJ2LoYskGtCWDo1sJIzsjF33WlsOFyw9tU7faviw5Hd8qLemrLyth67gcnLTpuS9ak8Ano2LY8105+Hgiv5wjVjAI1YGIwDMqIQUn1hZCLhbH8EFu2ip8ITMHDuTsnrgkR1pNEyM5CivNk2BV/UOXGX0RMyOadxlOZUe/wfyCjARx6RsGtsQGCRsPhcRIIYXc5SaVy/Bnj/1dbwcCi9e5mlsDSnnlw1j7kbjuO3vWEFCAUETO5XBx8O7QAHpenztfPsLYz7gQScUpOAZjW88K9ormh6e1JbKXn55RNY5IcwbPlIpoFVXBaFgk/Hzd/GwdFBiR2n7mDK/46KXVcpeEwOaIgPhrQtLkOxWD8FgUf4g1ScvRWHPecjEBzyEBpBLdt5Y17HOAEUFbFDw8ro2qgy3JyVaFKjLFrX8YFCoSz4uiMAuRzw/Z8nkZwhIIMHNu27BF7pks8Uw9ZXN4tNgdkVKVVA0Iv1MHVge7PrKm4V3IiKw6w1J3D0hvSIazTW6uVd8OObXdGmboXiNvRS3V/zNLBUCFtRcqMQMgJL+qcRFZ+G1tM2QVGAyQyRDqJTcGdpJmkUIbXWuFVQcNLK0Shq+Dpj5uCmCOjQQPqgSkiJUQv3y4tCyAkIWzoMrnao9ZGQloWgX45g7/kYybNUsawb3nulOYZ3qS2DNpLcXIEFgi9E6Zy4S7uPEQlHBNZE/8aW7VAxq62OGOTBuAWErQgsglFr4rodCoVlCGAay7Bu9VDZjcd7QzowjXcbrdX0rFzUHrsSnNK4XzIOGhxfOBg1fKVHOK886ncIMiK7Vynnhi9Gt0afFqVHkcT8JWCuCSFFIbTM923+WKxTQ7GNQvjRyOZ4s3djqJQcouPS0S7oL50ZgICJAfYh0bLOFBpuJTQmCdcjU7Bsx1lciEiFIIcJ54D6Vb0xtFtdVPR0Qs1KXvg/9q4DLKqja793lw5i7x2x9957b0k0UVFRk9g1iYrGNLvGfEkENTFGxRSxm1hibFFAjTUqCgh2UAFBEbHQt9z7/+cuRJLIsne2LzvPl0+FKWfOzJ3yzjnvqVOpBJwdCwOtBJCVVtCxq/jrxhOoZQ4IvRKDTAUn6bXbnPozV9sUVbF6aRecCRgOWRGzIgoJv48xK44BMmcN35nENPONRpjSryGK2yPlSNScebOTkxeRuBPwIDW5ujggdoMtA1gqDF92hInEXS5kI6GIcWARoe2W0Gv4aPNlMTBtQWnOyLaY0ac2HCS8SFNdKp7HxpDrWLw5TOpUhYwTMKpLTXw9vovksrZSQONCyOLKJORaYEkHDo2tu3uPn6PtzF8ho9cnSTCUgL4tq+HLd9qjnKeLpJLG6BNZYI3xD5VctSyXA6uoA1i1JmxFpkJ7lFJNFELTuhDSgKamZ2P171ex4fB1yeOrrYCrXA2fHvWxyLcdnKThngaVo6hW9lNwBD7dFAFBpgnE/qo0vl89fDikGYozgP9bT9/BnA1nJauX7uWvtamGNVPJwtmedNEA3Xlo/dW42EtLdG+M3WAHsKRpzUy5CRw57T8UXuWKiR/HkxdZmLI2BGejU0WJhnerg3kjW6K0W9FCI181HNfjUnD7wRN8svEUnioctHJ90KsKJwjwcHPCe4MboplXWZTwcEKtCiXg5qRbtMNz0XHYcCgS6Son3HmQiuRn2fncuexLmS6fTOUyHjgTMBSORUpdAo6FJ4hhZDUMaNI7v3JiB4zo7M1QUpdRsecxlgZotNvaAaxXqvdJDjuAJROKngthliIbnT78HYlPtfNUnVoxBN7lpL9I0yDdf5yGdhTVi4GzaEinWlg5sSOcpS9vxvr8TFrvaP9juS6E0hVAlpZuzpYFYIn0DSnp6D57rxghWaBDlI6JSLGHd66BlZPyLnm6l9WxCUnZWAEson3QuBAWdQusLcjIKZhzj/SkAbCqShoXQ2Smy/GxiASMDTghnvENmehBu0Wt0mhdoxg+HtUOXBGOom1IvRZWF41isw+2IfmZdt7j3Z/1Rbs6ZZlc19NzVKgzaQsEQsgkpq5NKuHHmT3g5iC9rMSmbCY7q4WywPGItbsQWsc8oC3ir4ChqFbWQxRYzQs4efUBxqzQvB55uDpgvk8L+Paoy3QRtg4t6C6lUq0Woxaejk7EvKCzAPfPCCIicMUJ6NmkLD55qw3kjo6oVMoNHjryTTzNyMTKveE4E/UYadlKPExNh5phwdO9R7ad09mBw7B2FfDl5N623dF8vVPyAvZdiscHa04w93nVxI4Y0dlOHMmsQDMV1McCy9nFCfc2DLdZDqynOSoMW3YE0fc1jzOSEp+NpC1FKwphao4SDSZu1wpiC5lPcHHtu6harrgkdeZlTn6WjpFf7MO1JG2X1VdX7enuhBmvN8a0fkWTL8jX/1iuBZZ0sOb2eh94MFgRMA2yjoUyFSr0nvcbYh9K5+9rU6ccvpvaEVVK0zlWuj50FFHnbMERDzAmIERykE16cKIoikUewBofhAwt1LNkJaHhwDI9gEWT4Hm2Euv/uIFVu68w2LcXNo0EeDjL0bZ+WYzvXQ/dG1Mf7cBFYVrT5/cEW1Udu0nr2uEiZOO3xa+jiVc5pjUmW6HC0MW/4kq8QrKoHi5ycS58PKyl5LJFtQBZYNFDguRELvb2KISS1WaWAjJVOs6t9kUVMSQoHSJlCL+bgv6LDkLG03bK4zMxDHxjCzgWmEVFr2w0R6nGs8wc/HzsOlbtuwqZTICHLBvrZg9Evaql4e7kAA8353zbTkGWMIJ4yInPUGPgRzvAwQlpWQpQ/Ro7Vk5/3i3LUZtZJGlesxQOLBlklrbN0Wj03UcYvmQPUtXuTM3zvAKrJ3WGTxcCre3JmjSgD4Dl6iITTadt9bCcqtBYYEXfYwCw1FlI2jrZmqaC3rI2mbYZj9O1WxgE+XVGjybVIZexXbB4XsCZ60kY8VWIyA0pLRHFQQPMH9FKjLZbtJKAlyTu0vpOj2waFwly07OclJajEsPNS4cygV7NKotR6TTBa8yfgiPi4esfKjkKoR3A0oxdrYmbkZlT8HpAetqUa4FlnhGnKM+3MTPwnNHmnFzGwd1VjnH9GmNKnwYo5aqb54b5Z791SUD7TusZm/FAC10sAabfTOqEIe1qSiJvz68Jms3RcSnoM/8w0143rHN1rJrYBTI7mKnTBPMNCEZIuHQXe0HGI3a9ncRdJyWbO9OMYc0xvW99uOc7zDzLVGDdH9fx7Z4IUbzX2tfAR281Rw1GNwFz99GY7fOCgGyVIHpAUBARmUz3ozR5+A9fuBMX7mVCEOSQfH43ZsdsqO7GtUrjwKKBsKzjuvEUHJELQEtxwcgvTXl3Hl++2wl9W3sbT0h7zUbRgD4AlpuLDDE2DGA9U6jwFiOAxamykbit6Fhg0TyqXMiLtAA1Di8ajOZeZfSay+F3k9Fv0SFwDJbG9ABHFitTXmurlwzWWFgfC6w7G0bCXUercFPpptLbGyHwZNEuDcJqXLM09i8YABc6hJkHzfiPijQuhCGSLTXsAJYEAGt2D/RqWtVsQ06Rnr87GI0vdl026idCmCwBs2s/6IFBzStDbiFz3KidNmHlavCoM2knMrMLNvmTCTyCZvdCTz051+Ifp2mCojAEAPBwEjBjUAO890ZrE2rHeptitcASZGrErh9jcQ88xh4JqyRx/23xALT0KvOfTSD4cjzGBoSKCycvqLFyUkf4dKljbB1abf2E4qvVasjl8gJfZBRKNTJzVIhMSMVXv1zBlduPLdC6SoCTgxxOLnI45LIZ8rmzgw5XAq+GoMyCnFOguLMcpYu7w9lZDge5E5SKbDxPVyIlLQtZgiNkDm6g3ZYMyTiBA71iZOeooFCy0IqzTw0HjsdrLcvi2xkD2SuxopKX7z7GgEWHtRIvF9wdAVOGtMTMQY1Q3E57Z0WjnicqjzZ+exGfIt0NJ4/EXbBRe5bnCjXeXHaYyQKraAFYPMZ/vQdHIrPAa2FvXz65K0a2qwYXPW9UBFccikjARAbSa5r180a0xLQBDWEhxjcmWzN8/UOYSGopTPjNdaPgaUEuhIkZCrScugvgKNKz7tZ8RObfoU5J7Px0sMj3yLEE2DHCiBGARST7nERrCTuApRmMmhODkJ1T8MCQnoLMxIGVX6o/wm5jyY4wxD6S7hbGMu3oDH1gyWDUKuOOEu7OZgPvWGS3zDICZqw7ij3nH0GlBTf3e7MJJvdpoPeaKVL2xKZg6KJD0tXBCZjcrz4WjGgNGQNnpPQGrbmEgDErQxF8RTqJOzg1YjbYASyrGP3fF/dHC6+y/5H1zLUHmPJtCFJzg1nNHd4Y43s3hIfEUNlWoQQjCEmAFoF/9OfzLCUePc3EH5di8NWOi+AdXCWbdO/TygAAIABJREFUlhtaROLpKubqiBLFXEWTWHrUIVkd+HT0alkTowe3RxUPMlYVRFlp4RUPiKIguj8BadxCNHWk8RwC957FkUuPkEU18wISH6chRyXVdUS6NujlZNPsHhIkl96GJZQgTYbFJmPwoiPM4nxGF8KBDSUevZmbsxc0qAb0B7Bs1YXwhVKNN5ceQdS9J5I1zqmykLitaLgQkmWw94StyMlRgy8gIhORZgfN7pkbBUz3/aAgxYdGJmDcylCotAcee2Xx0X0bYM7rTVDBw7JIySVPMokF2KMQArfXD4OHq6vEFo2TPfbRc/T67BCyFFpIj17RNAGWzWqVxO/zBuS6sOo/Dw3Vw2AxiIr0KIR00tJwYDU2lChWWU/hABaPzbN7omdT83Bg5VfqdwfCsfr3aKRlMSxejKPDczyCvxiCYg5yVC3rYbfKYtQjnZfb+e1F3JPnBQPngiAacBgqqFHEvcd4fckRpntP39bVsGBESzHomj1p0wABWMcRfIWFA4tHjJ3E3fKnF4ELB5YMeCWARaR220/F4OMNZ8SOOAjZ+Gl2H/RoXsPyO2ZmCWlRVKtU4GQynLsWj2NRT7DxYLSG00oEdEx50BLEJksWc4J35RKixRfxmjlyajT3Lo2+bWrDQw4oVSoxnwZq0oBv7q7OcBNBLncQGbru76KFDwBpIVulxrz1oYh5psKzNAVuJzzLF2Wx8Dqk5GhVuwy+mdwB1cuXkFLM6vIq1Dx+v/IA0789zmiBBczzaaGxaDDpPLU6VVuowOwAlouLA+5u8LFZDqw0tYChSw4h6i4LgJWJxG1TLHTMDSvWuZjHGL38KDJV6gLXEK/SMqya0g2t6xomjP2NuGTM23QaZ27nvphJ6BJFDaKgEz6daksoZf1ZWaMs0aDGrPeBm4uz2ZVwM/4xhn1xFMkZBc+1goR0dhSw67P+aCOSKltWEqMA+4dI5kfioMoFsJpaVodMLI3XpM3IytbGgUUAVi/0bGqY9Uff7n3zezS+PxyFZ+lazMb0beQV5cuU9EDA5A4ieO9dsThcicfEfm7TWdOX76VgnH8IUp4XPG7VSjnii3HtDXb3TUh5gU9+Po1jV1MYzugagHtaEQe4CxtguuNSFPaQcOkWWGTlqOGILFouKNbnQigocHDxa2hW69UHgH3nYjBn41lkKTRE48vfaY0RXWrDxbGosAkV9plo/322UoVZ3/2B5ExHnL/+SLREMlXycHeGUpGFbIUaaoFDG69SeOe15qA3ah4C0pTA3aRniL2fjPjEVKSmpUPN59H4C5DLOdSoXB7VKnqikXd1lPOQiQF98yy1irnI0dCrLEoawIyZF3hcufcEa/dF4G5yJm4SkGXg5CTj4dutBpa+083ANVtWdU9eZGHKmqM4feM5s2CaF2ACsOzJ2jRAvERt/fYxuRC6uDji7oYRNgtgZQrAG4sO4ioDgAVVJpKKAIBFzt1tZv2ChCfZWqa+gJVilFJvg60RtDPu+PMOZgWekXzpJ0Hf6emFma83R7kSbIErrO07J3nHrAhBcKT0AzqVjQn0gZuzeS3WYpKewm9tMMLiMsUziqTEAUPbVMCaab2Z5oukthgyHw1PwFgmAEudC2A1YWjVdop4TdyCrBwtPl0cj81+vdDLQgAsWr9W7Y/E+kPReJ4pzZLQEKNWs1IJvNu3HhpWLIZ6VUqipMc/o6Mbog1bq4PGrN+8PYi8n6b14fwz8UG3kUEf8I+GE0VPiGQXYxqDNztWx0dvNkfVMhR4zZ5epQE6B2sALAYSdxHAGmn2/dHUI2t1AFbN0jL8MKc/6lYp/Upd3Yh7jGU7LyE08rF4UG3uXRbfTOkIr/L2D0fXyUWL5L2UdCzadB5nohKRRaZtJkjlyngiK/05XmTxmsVZ4ED0EKKFlQaP1Fw+cs+N4r91wddEt0geFYo74Y3OdVCjbDHRYqtL0yqoVtpdrwsNHVdOXk3E5tCbCLv9GCnPtV2ipCvxrS61xJd6iUdl6Q2ZsUT84xdo+cEmyB3ZwtqT6OILT/+G9oc8M44ja9M81GjHDGDZtgUWrSavLzqIyFjpFlhQZSGpCLgQnoy4g2mBl5D6omBOlzpVS2Kpb2t0rl/BoGvphdvJWLDtEiJiUiRPf06Zhc0f9kXPFkXFQpyiEIYiNEI6gKV5YTbvAT3s1gNsOByF4KuPkamQRtpO+/fwrt5YNb6DSHugiTxoast27VP0WG4UQt1D+mjqs7sQavTgNWEbshTaDstq0QKLSNwtJdEM/Oa3CKw5eA3pWgjBjSlvzXIe6N+6KhpVLY5ODSqjbBEC9KXq9cLNRHyw8TzuPyrY6rd6eQ/M82mJQS2rS61ea/7ouFR8GnQeF25J3+s0UcI7wKdLfbu1XYFa5uEbEKoHgGW3wDLohDdGZe8PbYLJfeujpNurTclpQV576Co+3x4mIsUEfuxe2B9tvcsYFI02Rt8sq04BcY+eY//5uzhx4zHORiXZlHsWmWu+3tEbdSoWEy21RvVsrNfFJiE1QySnXXcoCnEPpbuUFDT2zWuVxKJRLdGqTiXLmh4GlCY+JR1t5uwDeGmXgvwizM/lwDKgWPaqTKQBHrzI6cBE4u4sQ2zgKJu1wCJIZjAzgFUULLAEjFq2GydvZ4DXYhHzwZCmeH9QY3iI7iqGS7RirT0UjeU7wiTbKhOEsWBUa4zpXvsfEZUNJ53l1TR6RQhCIh8w7LUCYgLNB2D9GfUAK379C1fuPYeKJ7tuKYnD273rYtHIVnBykAoPSWlHv7zBEXHwDSA3fmnPZcQtJ1pADyzaHFheE7chK6dgAIuDBsCyBA6s/DOFvBvWH76G/+26AIVa6tzWb87llaZ7W0k3DgNb10SDiu4Y1r0Birma313YML0zTC10Z3n/+xPYfyEBygKpywSM6l5b/B5LGFh/agHY9ucdzP2BKHqkrRGkAb+hDTG5byN4Glguw2jXEmoRcgEs6Q889IhwJ9DXHoXQEoZRmwyBfj3Qt3kV0TWsoBQWm4JlO8JwQXSBA/q2qYGv32mL0h72BVHq+NLGEnEvBf6/XMCpqGQoiSHXppKAUm4cRvZsgC71y6BTY3q1kL44a2jfgSOX47Aw6AISn2QaREuOcgHTBzbEnGGtGKQyiAhGryQ+5QXazv5NfJlmSrkH6GlF/ADNpDsLKEQH6LZ+e5Hw/1afUpOrszwXwJL+zb7aAsIQVhGGqEOjCXLsGMQMYGUgadtUqSq1qvw5goDXFh5A5L2nBcotqHLEA/3011oYpW8/HYnA0h1hyOKl0xTUqVISG9/vgtoV2a1PjdIpI1XKzIFlJhfCbDVwMioJK369hKv3UyUHhCE1ju/fEHPeaIISro4WZnP1z0EOJgssiuItEcAiEocFdhJ3eE3ahqxs6wOwaBaQG/bPwdHw33kOT3LMd08iOTwdeQxqXxfe5Zww5bUWoLBM9gRkqQW8szIUJ7W5YPNKTB1QDwtGdTS4yuhUs//8HXz4w1mkMdCm1a7siZUTOqJlrf8GYDO4sFZYIc39Mf6hTFF67QDWrD0WP+RkRh7klxdFqGBx1YKApTvDEHjomnhHoYvx6ZVD4VXWHgWBdZBvxD/G9QcvsPbQNVyjywIj1sDavrHLOTlwqF3RHWN61odvz7pMft6agwBwICwen/xwDk/TDONOOHlAQ8wf2dKGAaw0tPHby+5SwWs4OKYNKtocHMb+RoxVP1mxtPPbA7LEk5rkMmBw2xqiu7EGeOYh/P98UPNKQOAhFzQuLnQGdpA7wEnOQS6nn3OilzKR/tPxWC7jxP/oZzKZDDK5DDJODpmDDHJyQc6NeEquyBSJlDjwePpT/LsAQU12ZBR8gpgM6E9O83OxHCcaFypFuaDh7RPoPTUXdCM5ZI7gOGqTLDRy28uNpPpnVBIb0a7K9gGs1Qej8f3BKDzXQkTcq0kFcX2oUwDtgNQ59+/89x6mimHpD19OYqhKwO+LBqKlVxmbXd9fKkWAr2iBJZ3jAxxFWSIXCdNwYNH3HRn3DGsPROPGg+e4lZAHXkkb4ikDG2LawEYo4+5kkbxX+XsTEkFRCEPE9UpaUucCWEV7/605cQuytXFgkQUWcWA1sxwXwvzjTLvV0Qu3ceuZGl9svcAwD6TNGu25ORR3AXq3qI7B7aqgT7OaTA/LhpTInHXROWLjsev4dv9VPNZCU9KmTmksHt0KzWqWN4q4ianpWLH7Crafuiu5flpVfpzVHX2bVy0Ce51k9YhnRXrgIU8eqckOYFkBgEWHmE0igFX4BrD95A3474lEUqoGRGhRqwR+/WwgnB3NYyIrdUJaYn76wMgPeuqqI4hNVtCtyxLF1EumciVcMWtIE/h2ry1eJlmSkhfQ/r2fkJSWRyHPUsvLMvUruWHeyJboJm7itpdEF0I/PQB0XiGG6Z06uLntKacI9EgfAOvfVlQirk4gk6BxR9Vw5BHnDNHq5YFUgvhzDQ+NBvYS/8v9v7y8BCRxBGrlHrdEOEr8nyYyqxgBNRekEv+dB3Lljlkexq+JlEpiEWilCeoq/pfvnkjglQinidx/GoE05dnjagrKDDzcbrsWWKQfX/8QrZxKpM8pAxqAXIylXsulfHpkgUWuhCypWU1PbJrVu0iQufuuCEZIRKJ0I2dOlRsm3LgAllrNI/hqPH48cg0pGSpcu1+wZV9hYz25fwNMJ/DK08Woc68wOXT9fTCRuAcEQ5Bo8SIIKhHAmjawaEchrDFhC3K0cqOpscWvF3rqcH/RdcyMkS9docYvJ65j3qaz4OXmJVan7bBGOXd0alAJ80a3gadT0by/0V43I/A0fjkVoxXIG97FCysndJL4BUubRWsPXhUtjlnuf/Uru2P9+z1RuxJZHBtzR5bWJ0vJzWyhLPCI2Wh3IbSUcXylHHTgD/LrgV7NCg9D+yIzBx9uPI8DF++LddGF5sYPo+FZxMJMGmNAY5Oe4XL8c3y47jQUBTtjG6Npk9RZytMZFMVDE7GKbZG9Ef8EAxYeRo6Sndcpr7NyuSCSMk7q18gk/Td1I3EEYM3eoxsh/yuE43iNi9DUQcZxETK1Popae2S5pOHAkm6BVdR0JaW/tg5grdgeivUh95CuKNh1r1ntCpg/qjXa1yrJuJLrpvGEZ1n4+OfzCLkcr1uBfLmIG+d8wFuoVsbWLcSJxF0DYEneVzked9aPhLuL4dybNGTqZDHJ4ejlWATsiYKaA56mK/AwjwJA5FqXdgbghBxM7lsPHwxpjRLu1gFe0XQMCU8QXVgkdheCoMQCn1ZFHsAqLAohJ+RyYFk4gEVzIStHiWsPnmPvxXj8cPBqvmjk0r4FyYthAQVcnOSoUc4DA5pXxpy3WoqvTeaRxFA9klKPgJ+PRcL/t6tIeVHwfaJOleJYMqYVutSvbFTdxKdmigDW7+elW2HR4+LBhf3QwpssxIrOCOo02oKAMQGhCGawwBIEBWI3vm3nwNJJ0WbKRBedzbMJwCrcAotEnPX9H9h1Oh6QaV7tyroqcGX9eIs35TaTeiU1q1TzSH6eidYzdks/jEpqyTyZS7iq8dX4ThjYtjazALXf2YR0NQeZnu6WdKD8jF44BzS0ySU/NiUdHfWwwOL47FwAqyXzWNkLmlMDvOhCykLibk6pLb5tG3YhJHs3v42nsfPPWDFQy6sTh6GdvBAwvj2c5MYlz6Ylfub6M9h1OobpXO5dQoVjK8bCxUk6j5bFz8N8Ao76+hhCIxOZzmDlShJ4JRfNF+XKF6hTvhh6dWiALi1qoEYZD8jBQ5brGqyxktS4BFMi20dyjcvmZLgS+xg/7rsgErLzcAJZ9mcplHiRUSAzso4q5tC7dQ0sHNUcFdyd4O5iXGsxHYXSORtZYJEFwN9K07WkoNK48BdxC6xCSdxFAKsnejarpqtmzZqP1rSMHBUCD17Cqt+uQiEYDjxm7ZiLsxy1K7hg1mtN0L81+9mctX1zlKO1bOmOS1h36FqBex2NVfcmVRA0qyscxL3OeOAQkSUs3R6GdYeuM+117bxLInBGL5Qp7moOdVpum3oBWErEbhxnB7Asd3SJO0SBzbP7oHcL3TYAJc/jbf9QnMjHuXAvaBQcOds+JJpyDJ9lZKLl5PXIlJXWG6gxpdyFtiUI8J/cMdcKq9Dcr8xwOeE5Bn/yG1vhf5WqXILDF+90QM8WtQxSnyVVciclHZ31ALBkfA4W+LTAZNECy3gbtyXpzJZk0ScKoS3pweB9sWEA66mCx4cbz+Lg+diC1cYrMKJDVayc2ocJMJE6HvPWHcbmMwlQcNIvegTC3QkcAQ8TcTxJ7Zth8gsY/fVRhEQ+NMh4iB6/Mg6yPJQqV0j699+uveQ6nOvCm9cH+p3IT5f3sMTxgMBGF5BXp4sjh2Edy2DZ2B5wlBPfVd5vrGc/0gBYoZK3UHIhFIMkFHEAq+bEIGRrIbfmBBU2z+5t8S6E//7W6VtRqNSY89NZ7D4Tq/e3Yoi1xEEG+E/ogGGdyEvCtlPisyzR4mnfWW17nQo9GpTGlk9fMyp4lafpb3+7gNW/X0OGgmHd5IC/VgxBNTsn9T8nriDAd2UoQsKlc2AJQg5iN75jB7AseSkgl4iguf3Qq4XuXEBT1xzHwYvxInEuJXfZC9z4cSpk8qLpS22M8VWoeRyISMDc704hS6HvK6YxJGSr01Gdjp8+7I/uzXWfb/lbovNxlTFBbI3/qxRZYZElwYgu3gY5/BtEKANUQjq69jAdveayc2Bx6myRg2PKYLsFlgGGxORVkHs3caAlpKZbxOHY5AowUoOCMg0Pt083Uu3mq5bWjCU7L2LdwWtaAeseTSuLnJkOJrrhkIX4uIDjICCAJQWvehMNS7mzFLWaMqO//gOhkQ+lW/lYYA8d5TK4OwloUEGOXxeNAMdZ95mS5q1vQIjkCzARCIsu/AMaW+AomU4kr4lbkZVT8PlXUOdgy5w+6NWcIl1bXxItsgRgzJfHcDU2BRnZFCPXvKlRVTesmNAFjWuU/Q+QbV7JDNW6gLWHorB0xxWtFTapWRoHFvaDo8w0axDtdbMCz2KXyMklMXECfpzTB30bVbDRMZOoj7+z57oQ2gEsnRXICYIgEAdNeysgcXeVZ+EHvz7o2kR3QEEB4LWFB3E19omoFBdnGU4uH4wq5aSHrX6VJ5iJzsY6D6jZMgrAmWuPMHXtn3jyPNMmDqg8p+Es6NVUN5fV/+qeR+UxWww2JAtGNce4nvVtys2EvqmwhDQM/pSiELIlssCiA/QUOwcWmwLNXIqHCm399iEhJdPMkthW82plGpJtEMBKTc/Gsh1h2PFnTIHBcMmNYnC76vhucmeTvtB/+NN5/HI6BjkM3JD0xvYoaKxtTcJ/9EbAqC+PIDTqkRhx0yqTIKBiaXc4Ozigb9OyWDi6499cxuTqY0zXHWPri17+x6wMFa3XpCQCsIijkwCsonwe9pq4GVk5BetOrcrG1jl9xch61phyY4uIa+6V+FT4rT2NJ2nZSHlhmGjbrDoRoMCuTwagY72KYsRgW0ovshRYvT8Sa8XHmlcnip7cuXEFbPPrZbLHbZoDS7dfxM8ht5ClVEniCaTHeJmgxq0NvvBwcbSl4dKzLwJ8A+wWWFKUaFUAVuXiAr6d3hNt6xdO4p6nBDF6w4bT+P3cPShUYgwo1CgJnF49VuvHTuViEp7gWRa9qGhCnvMchUZ/GffKgQ4sAi8exmjT93CRoU61ssTSUGRT8OX7WLz1LyQ+VSDbAATm5lbkzyLnWhXmg1nlMZvzEWDq15uKxTl8N70H2tavrF9FFlSaDv2X4tLw2vy9kjbB/F3geI0Lw9RBRTsKkgUNqyRRaHVta+fAkqQzXTILqnQ83DZNl6xWlee73y5iyY4wyBzdCpS7ZsXiWDOtG1pUl/5QpY8y6ConPpjd1TyYSU375/VC6zqVpBazmvwaAItcCK0IwBIElC3hikql3eAgqLF8YhfUr+gJB7mc+VxgiQMWHP5AvEBxBcLCr5aaACzRArqIW2DVmrwVmeJ94dWJV2Ziy4f90LtFDUscfskyCYIahy/H47uD1/HwaQYS8wIfSK5J/wIUMXzLRz3RrEYZlHSzHVBk1583MCvwFHgtbunEJfXDzK5oU6uc/oqUUMPzHBUmrj6BU1GJEkq9zLp1bnf0aER3edsCHZmUkVuIXLiDI6RbcKv5bNz74V27C6E+yjd22QZVXEVz0aa1KIKB7ilVwaPv3L1IfJIhFqKwxt9Pa48ODf9rWaMSBJy/8RAvMpVY8+t5hMdniIct+o/gr7yQ63mt571W8f9P0FirrCM+9O0KCjwrdwBqlvNArYoldRfUBnKKrzO3H2L7yTsIufoQj1Kt26oicHYP9GtWhSksrehCODZIfJWV+qpZ0FTYNLu7zkEMrGE6iQBWfBpe+2wfs7j07dEBevrAJsx12AuaTwMUB4wssNhJ3MVQYf/pgPiTPGsCgUicKd4YETsLkBE3zv+7otHBVybTGIzKZDLIOI0VBfHoiNYUHD1dyCGSQucSQxNnl/gvHiKXDj1q8LxIEw2B13DriL+nn2taFBvT/KnZQUTZ8n5mJNVzqnQk2hiAlaVU49sD0Vi1N1zrNbtpzRI4svg1MY+pj8cDPtuNK3HpTFbILsjA3aCpRpoR5q2WvqHRVmSBVdrTBc1qlYGjIKBrsyp4vZ0XSrg5mnw+mWrUjkXEw9c/FFLDHdhdCDXrfe3J25CRpSpwuHhFJrbMtR0AS9xeAeQolfjjSgJ+ORWLu4/TEJP4wjzfCCdgxtDWGNy0LBrWKGuqz8Zo7WTmKPHDsWtYvis8t41X72RVSjrh4iof0290AN5ddQx/XEkELzV0KZ29FBl4sGOKGXZoow2ZXhXTt0QAVggDgMUL2bi70Q5g6TUAxi7ctLoHvhzfCY1rSkOaCXj6eNMF7Dh+C2qRDEtA8+ru+H3ZW38vtDR5zkXH43pSBr4/cBVJT7KYu8NxHIiLtWvD8ujZvAaKuzmgmVcZVC5TzKpNzKUoJEvJi64U3/4WicQn6Va7SK2b3QMDmlVhtKoTUHncFrrlSlGd1rx+Q+pjYr8m8HSTThRsMCEMWBFdaiISM9D/493Mc4TqEElkBzQyoGT2qkylAYJ+KAphQormgUFKkssAny51RDRJIHAo74yXR9zMa6xkiWhYrVaBbCZkch5yAqw4Dg4yORzkHIgS0VEuB5njUzUOBGaJYBfhEAQ4aaKaaQArHupc0Ir2ExUviPsKPX7Qn3mglpry5wJYGuCMKpMTUpYPwCJwTHMV+A/vM7XFyfDHpTikpjG4aajTkbTVtiywwmJTsHBbGMJuPSpwmri7yPHegLqY+UYrKVPJYHnX7D6N1X/cR3q2dD5IJyc5fvusN5pJPOMYTHgjVzTqy8NMLoR0P/KQK5GuoE/IMReY1gZN6g9delcuiQW+rdGzQfkiwdUSHB4HX//jkt2QaHXUcGAV5f1XgPekHVp5oXhFOrbM7Y/eEjh8jfw5GrB6AZkKFU5EP8LRK3G4EpOCW/FPmc90rILRnt6+TknMGNwInZtYt6VbxL3HmPvjWUTee16gOhxkHCb2roYFo7uyqkyvctuPR+F/e6KR/FxL9IICWqDgGkeX90ejqtYPNuqlxNzCGgArBCERdhJ3XfVpVS6EzaoXw//Gd5QMYJEykjOy0X7GXmTnaIgHK5R0xXyfJnijQ13x36eiHmDp1nOIjk/TXDIMlgSU9nRCtyaVUKticfRv4wXv8h7iy7+tJ/ogfzkVgy9+DUNyKsMFzAIUtHF2D/RltMBSQ0DVsZvFKEiGSuWLy7Hlo/5oULWUoao0az0EDNxKzkC3D3/Vi8CbODimDWhonpc/s2rQ+hsniyZyIWQBsIjTMCbQV7SQzM/RYWqrm1eNwssrNPtlmt7zBy06iIhcDkdJo63OQNJW27Hmoaen7aduY/aGs1ov2VXKuOOc/1A4mIkPhUa73ew9iHtMDzfSEl3AejevhJ9n9pRW0Cpys0chJADrk9dqI0PFgZM7iwDWy++dg4IHUtMVeJD8FA8ePUVqWiYyc9RQE9Ls4KYJRciQGlf3xIIRzdGpkXXyFknpcnB4PMb4H5dsyWEHsEjLPGpN3IHMHC0WWDlp2DJ3AHq31J3DV8r4WUpeumEdj0zAxZvJ2H8+BnGPyQvDdDsyWVQ3quiCeaPaonNj6/xuabU6Ep6AdwNCtQ6rm4sMtzeMlmw1aai5Qp4lAxYdQjijy3yvFpUQNLOXCWeHoXpujHoE0QIr2A5g6axcqwKwGlVxxVcMLoQabfBYvjca3+3RRHOgyFfdm5TH5rn9EXYjAUu2X8TlmOcUl1ln5UnNSJYGPVtUQ82yHujSsAK6N6kKmdyaaT8L1wC50ew9H4vPfvwTL7KNp9vCJZGegzaRID1c9g6F3cXEVaekN6y1hICDiwegmZetvFoIuJuSgQ6zdzNzYBF0oQGwGtk3QgPPNlNURwBWO0YOLBdnOWIDR9vsuFMQksGLDiKSBcBSZSFp22RTDKFJ2rjx4CnmbfkLZ6KTC2yPLOje7OiNlRPbM7l9G6ojm/68g/k/n4dS5N2UliqX9cAZ/6GwDRvb/H0XMGrFMYRGJjFZoscEjoKbc97josYNN895mACsZxkKJKU8R2LyMzxLz0aWQgWVWkBytgxr90dKG4Tc3JygxsR+9TBvZDs4kt+xDSfiXiELAKlgA42EhgOrKFtgEYC1E+T2VVDic9KxlaKot/Sy4Vn0smu08h25dBf3UzLxzZ5wEGeSwOBqxqIsBznQrXF5LBvXGdVLF8yVyFK3KcrEp6Tj003nEByRpLW5oV1q4rsJnU0h0ivboDV4U+htfLErDC8y6bQiLbk6OyB6/Ui42vjaqptW7CTuuunpZS6rArCqFIdI4t6GkcT6ebYCjSZt/9tft3xJV8x4oxGyshVYviMMasFBqv6Y89ep7In6NUqhRVU3jB/Yghz5AAkxAAAgAElEQVRbmOuy9IK0yB26cBsfB55CarbpdKy3XjgCsHqgZ1Pdgwbkb7P3/P24du+Z3mL8u4IJvb0wZ1gbFHN1Mnjdpq9QwL2UDLT326NX0/N8mucCWLZ9ydBLSRZaWB8Sd1cXGWI3+Fpoz/QXiwzzX2MEsGRqBR5snaC/EBZSg8ZCJFirhbSroxxHlw1GrQrFJLtCGbKbOeBRf8JWZCmkW/64uThgQr/6+HhIM7P2wZD6yKtr5IqjOB6RxNQvDYBF56R/M5Fql/Reygt0n7MF2bwHU5e8KnmKLnL9mrFGI2Zq1uSFgsMT4BsQIhlctFtg0VDx8Jq0E1nZBQNYyEkTH8yLCoCVN4EJyPrj4j28UPKYsfY4OJlpSNaLezhj0oCGmDmwkch5aU3pSmwKBiz4HZBp8wbi8Kf/G6hdpphUzNmgqshU8ug2dx/iRaoYaYkenMb19MbnY9pLK2iDucmmeIw9CqGkkbUqAMtDlo1Avz7o0pTVt1nA9nP3MWftn7lKElCuhDPcnR1w95HpycYFTkBZD0c09y6Hnk3KwrdnEw3Hrw3aE9DHee7aA3z3ezhCo1JADDOWnjg+C5vm9BV5zKQmsiqpM2EHsrSYlEutMy+/pxuHkOVDUKk024GctV3jlBMQl5KBtnoCWHTBIBdCe7I+DegDYLm4yHDXhgGsLAF4fRFbVDsHIQfxmyda34R4hcRJT9KwOOg0frvyOJ+z6H8zesgVuP2T+UE72u9qjV6FLHlpJv03rVkKBxf1h9ygdAZMohiwkIBRXwcjNDKRAcDiEBM4MhfAknZ2yFaosP3ENXyy+QpDu5rue1dwx7IxbdGlMXtEYgMq0ihVBYsk7sclnz7pyKrhwCrK+y8Pr4nbkZVTEO+dAJkyHUEfDkBPm+TAKnxKEpB1MiIeD9MUmLXuNDgToEoVSrvB740mGN2ljtWAWM8ysjF/0wn8er5gS2PStjr7BZJ2TRd5PV8SKBQ+DsbI0WPuDtx4qJAYv1QjSdWyzji/YniR4BnUpnsKAjRWJHG3c2DpOketCsASlBkIIhNcPTaAZ5kK1JuyFXIhD9nOeyE1H0RP63gpDye0qVcBE/rVQ9s6FXQdP6vKR5qOT36BnefuY9WvGldOS07vDWmMqf0aooSbdEunsHspeGvxESgYXEgK0wktdH/5D0W1csUKy2oVv49PSRNJvPVJH/m0xHsDGsKK7Pv06a5NldXLhdDFAXc3jLIpfeTvjF4AFq9E/JbxNqGbq/dS8NrSw8hWardoOrx0AJpVL2MRfb569xF6LzjCBJq4OgoY2aESPh/f2yL6YighRn59DMcZACzyPIrdkGeBJQ3AItmJm2jLidtYuPUiY1cEdG9UHotHt0XtyrYZWZosHCkKoRhsQkKyW2ARfMCjViEWl3J1GoLm9EeP5kXDhbCgKZSj4nE94Sn+vJWM5VsuSLb4kzA1xaxl3DUA6/Cu1gGwxqc8R/ePfkeGUrv7+e7PeqFD3UpS1WGU/NcfpGLAwsPIVjAELnEABrcsj2+n9ZG89hilM2aq1E7iLl3x1gVg8QoEzemDXs2rSe9pbgmKEHUmJgU+iw8z12Gsgg5yGTzcnDC6VwPMeL0R3OS2aIsFpGWrsP9yPOZ+b2h+KMONDB3KAiZ1xPDO3gyVCug7/wCi7z1lepHQpcE321fAikk94UTO/lae4lLS0W72XhAhJFsS0KFBWSz0aY0mNhA+mU0H1ltKHxJ3VxcH8WJrqymDB4YsZrPAkvMKJGwxvzWSvmNDx/jzMSl4c8khzUNzgUnAg6BxFmPbS3JXGvsjOCZYXUBP4uj06wOOWIltIgkY5R+C0IhEyVY+1P2b3w+Hp7sLsyYu3XyAD74Pxd1Utn3GUS7Dj7O6o2eTykzyMwtuooJHw+MxNiBUOqDA8SJAMK1/YxNJaonNFEbiLsBRnYZNcwagexEHsPJGL0upwsVbD7F6fxTOXks24mVHjY9HtMT0gU2YVmJTzjZamaKT0tF37h7wWnBknlMjdv0ouLtYBlMiyV1n0lamyLuk3xZkcbx4oE16H+k6f0QXQrsFlq7qEvNZFYDFczw2z+6FXoycRHmaiX+chjYztkImt0xyP/ILlskEfPVuewzr5G2TqLSCF/BbWAJmfnu8kEuJpPlssMxuDgqsmNgJr3eoJ7nOLB7oOudXPBCjrxgnUbSqm6JLhfXbHBFhZbvZ+8AL0gmP87TrKGRh5cQueLNLfeMo3F6r0TRAAFb72fuYorZRFJ4YG3YhTFMJGLr0EKIYovzIeAEPtowz2riZquKElHS0n/ML1LxcK37l06UGAsZ3tqj98vbTHHSZsZNJVRVLucLvjcbw7SZ9D2Jq0ASFRvofw3ERwJJm5SMCWOuGwdPNlVlKerzcduIW5vxwjhkUdHIE9s/rj6Y1bSWIykt1HouIE6MQsoyNPQqwOpfEveAohG5Iw49+A9C1mW1HIZTygdKjpUqtxrJtZxB49DYEmXRvB13ao3fegAkd8FZHb4aVR5cWDJOHLEXrTNoEtaCdJ2zK4Ib4dGhTOMot5/x/Pu4Zhszbz6SIciVc8cnwZhhB4yPRApSpQQsspLHAIhfCBMnSCUIOYje+YxP3QSmdtyoAixa7oDk90asZG6l2nmJoolyOSRG5RQSLXs6A6qWB797rg6a1ytucj7AaAnadjcXHG89BVYi5rJRJbYi8n/k0x9SBFNVO+kF70ML9uBL7DOB4QDDe63nEmiEoU9z63QjjH79Aq5k7IaPw6IyJvunVEztgBJPFHGOj9mIG0YA+LoS2TuL+TKnGW0uPIPreE8m6lglKPNhs3S6E9F1fi3+KnvN+F19nuQKsNGkfj93gAzcX0xAE6zoYmTnZ8JqwFRzHIpeA4Z29sGpCJxs51JMFVnCuBZb0ffXOBh+4u+h3waUnknV/RItBe8i7n2MwxuJznuOvb8aiRvniuk4Dq8iniUIYyiArp7HAGtCAoaxtFKF5VXviNtFV9ZWJE1C7ogdWTeiMFt7lbKPTBuwFfYYUsGTaNydwNCwOaobvsjBxpg9uJPKklnJnP2cW1oa+v096noEW7+8upBoBF/yHompZyzv7V357M3hBzXTv6dW0EoL8etrIXid9JtB9eJzdAkuS4qwKwKLTxia/HuhlgGgwtxJS8M7XB3Av1XgAg6SR0JKZFvOd8/qiRklnVC9fwlDVWkQ95DG9+fgtfLEjDOmZWiK4mFDa4q7AvBEtMKqn9LDQiU8z4ft1CG7GPzW6xANbVcCGGX2M3o6xGyCC5v6fbsejLHb3EMIZV07sCJ9OtYwtrr1+A2tAQ+K+D2SJJzW52DgHVqpCheHLCMBKlaoaCFDjYdA7kstZUgEKS19n7LdQO2vntaroKcdp/xGgsNz/THlPVNIBE0PoIStHiY4fbEBSFttlo0+ravjq3XYo76HH2miIjhiojtG5AJbU6ogD6876EfAwgMtMdFwqlu4Iw8ko7SHqtcn4xeQu8G1fDQ42494JEIDlSy6EEsEDyr6giAdRKRTAgoB2jati+ahWqF/ZU+r0Lzr5BQFTVx3A5QQF4lMy9aCV+K/KyLLnp5nd0Kd5VYZnadMMQe131yJdpT04U/liwOGlQ1GxlCUEcaKv/+Xe2m1OEG5q554vUJGt65bDmsmdUK2MJfTLNOOdvxVaQ8b6hzCSuCsRu3EM3Jz1e+Axfa/1a9GqACz6VIJmE4ClnwWWRmU8zl5/iKnfnULKc8L+LT85CM+wd9FINPUuC+tnPnqpbxUEbDx6A2v2ReJpmrnHQo0pAxrgM5+2kqOWqHgeY/2DcSIyiclyS+oMVHMyPAwabfV+41lKNTadvIPFQX9JVcE/8v/vnfYY3dUbDiaIbqOXoPbC/wEZiAPt/mPpAJabiwNibJgDKzVHhWHLjuDa/aIJYD1Jz0GT6TvBF3KpXjejGyqXcNXEYxIg8mC9DM/CiaY2/66CrGs1P807gOf/V25kJyF/fCdBfB0W6xFyS3Ev2xFEISmPpkohl43r4bMsTFx9gumrp9bIamCeTyum8pZWaJR/KEIjEiRfIAnAilk/Eu4GsrD74eh1rPwtEk8YzxsceOz8uCc6NbDcy7DUsWe3wNKQZBflKMBkd1VXmwUWgJ7Nq2ORT3N4V7QDWIXNzadKYPzXR3HuxsPCskr6/cw3m2JKn/oo7mp5F32KPlhv2g5w2rw2OAFfTeiIBpWK525MtEHle5wRtzPanGgDyt3bxA1JEH8scLTrEVSSVyZvD9SokZ576Cea32p+R9WI/84Ldkh/pX1QoN+pwXEyCBztuDwyc3iM+N9RSWPyMjOPER1rIWCSxuLYPE9OjKIboJh+HFgKxG582+5CaIBxMGoVa97vhsGtqhrkkkoRCb8/HI01+64aVWZDVu7oLMPa6V1RwV2GFnUqG7Jqs9ZFlljrj0Rj3e9RePLCfCBWlVKO+HBoY7zZVWN9JWURPXf7Eeb9fAE34lP/uakYSbO0PR3/YiDqVmEL1W4ksSRXS/24EJuCNxYdklw2f4E3O9fCR0ObomrpovmCo5fyzFy47ew9TBxYtu5CmJqtxLDlf+AakwUWj4dBb5t5ZNmbpwPdd0dv4fMtOgLbmhO6eLAmjsB/AFYioESH+Jc/F/PQIZyjQOR0qCcj/nwW2SIe9bIWEZfi8o7/L4Gvl/BXXl+pztwrAB3+/3XHkKqR/i0qixYuNSpYv/U1Rblj4fggd/w760cbDMBSg8e3B6Kw/tB1PEtnO29wgho75nZFl8a2EVUuOCJe5MBiSUUdwMoG0LAQAGt4j/qY+3pjVC5pG9aULPNEShnirPP1P47jEfcBzkBP9oIaBxcPQgsvC+OwE4CvfgtDwO4oJhc62sdeckfl3/k0cBTHCbmMJqRHXtzvNGAV7YHkS51726H9kQNkImqlAbDE/Sv332KuXCAs9xdiWQLdBI7X/KlH6KoO9cth2ZhWqC/eaaTcvqTMLMvMSyMyltmFUIXYjWPtAJZlDu3Lg+Hw7rXwyZstUY78vPROAv66lYxFW8MQGZuid22mqkBG/vTlHbFwbDd0aVzJZj5zOkauPxSF9b9HMx8q9RmDksVcMJX85PvVl7yJRMYkYeG2S7hwiywlTLPw0kbTrUkZbJszQJ9uW0TZK7EpGLjosF6bn5zPQdCcXuhhJ0m1iDHVVQg6brX122N3IXyFwp5kKzGcFcDiBDzcZL0k7gQnVfLdBJloUWmaNVXXOWvKfAKvwPwRLTB9UHPNy7rVJgG+AccREi6dpJYuS3dECyzDWU6kpGdh8jcncPY6RUBj02sF10xcXDcFDmzFLWgkBRwToxCyWQq+BLD+6VJkQR00qihPslVo/f4uZBXEgQVgRq71TwkLtP4xqnL0qFyhVGP696E4cOE+YBCCdwEBE9pjaAcvODtYDgE6gXW1J29HRpYS5Poh1Y2XVcX5jKpYqzBsOV6JqQPqYcGojoat1wpqswNY0gfJqlwIqXvFnJT4df5raFTDMAg6bbfrD0Vg+fYwqC0+yOo/B7hWRU/MGNIUnRtWRDlP23jVyVLxWPXbVfx05Boysk3JiSWgXf1yWPNed1TwdJF0XaI59L8d5/D9wesmn0MuLjLcXj8695InfQGwlBLhdx9jwEICsPRLQX7d0FvkyLP6G4V+irCi0mT70o4RwHJ1dkRs4Egr6q00UR9nK+Hz+R9sLoRWDWAJWHMgHMt2Rf7tziBNc7aVe2i7qvjorRaoVs66icN9A0IQEv6AaXBubzAMB9bLxnnsPHkLn/8agceMNBJOchnm+bbChB51JT96MSnBiIVEAGtlKIP1uIB5Pi0wbQBb0BsjdslkVf95LRFj/Y8jR0m+BK9OH/s0x4Re9eHuZDnAickUpEdDTzOysWjTKfxyNh6CTH/d1a/miR1zeqNcCXc9pDJkUQE/HLuGxduvQEmRJYp4GtS6muiSTCT1RekUrw+ARdbjMYHEgaX/92FN08/qACxe4HF4ySA089JO6iplEKJiH2LpzjCcviY90pOUdoyRt0JpN3SsWwYjO3ujfSNDcIMZQ0ppdT5Oz8GnP57GkbBE8IWRn0irusDcFUu7YIlvK/RvVVMSfxUBLmeuP8TnO8iKz/Tzx9lRjs1zuqFjA+t2J70W9wQj/ncQDDze/xjT5e92gE9HL7g6Wn5wBgNNXauvRh8AizbsmMBRVq+DgjoQ/0KBMV8exU1yS2ZISUFjGUpZQhEBNd/dhGxV0ba+yhuJEm4O+Prd9hjUpqYlDA6zDMwuhAAMD2BRNwRsO3sXSzdfwLMMBVO/irk54MPXG2NC/8ZWe+Gic8yx8ASMCwhhevyhqM3TizCANe/Ho/j5z0dQazmvLh3XFmO71QaBnvYkTQPJzzLx1S+XsO30fb2J3XmZChdXDEO1MmyBNaRJrktuAa1m7MSDp2zrjy4tWFOeUsWcRYvjEV1qW+16yqJvsjgnF8LQCOkPPOQSeifQ1w5gsSjelGVooz24uD+aG9iH+ULsEyzZehFXbj1i2sBNqYN/t8UJPBrVLIlFvu3Qtm55m/joo+NSMHLZXjzJMn7IW08PJ8wf0wYj29eU/Ip6/voDLNpyHlfjMswyBYjHpVPj8tj+oXVHI3yWmYO1h6Pw7W/ReumxXrWSCJzeBd4VrdtSQS8lWFlhPi8K4ZN0yabzri4OiLVhEvfohxmYvCoEMYnPJI+qwAlI2jTOCvcDAVuORuDTHVH2F+l8o/7lhA4Y1cXbyuzE809bAaNXhCI0UvoBndzlb68fgWIGiEL47w+J7Lw7fRCEuGfs7m+1K3rg+w+6omFl6+SjfAlghUpeZwgELOoWWH3nbsLVhxoS7ILSigkdMbJLrfwsewy6LrpFEp9mIGBfJLaduJ2fmlCyQmhfPL1iKLzLWgaAtfNkFBZsi8CLrIKt9yR30soL+L3ZDO8PbAQXh6ID9lIgiHH+IXYAS8LctToLLOrb7sUD0NarjEEP5moBmLn2GHafjQMnc5SgQsvJWrdqCSwY0w6d6pY1CMm9OXtGB6pz0Xfx1ufHwMmN6R4poEZp4OjXY+Au0WrnWZYS6wh02X0FMIBpM6u+q5R1x7mAIZBZ8dGIxvuP8AS8E8BygM6nOUHAoUUD0byW4Sw0WcfFXk43DRCA1c5vL+JTpIPALq4OuLvedi2wLsQ8wYx1p3Dv0QvdlJn/U7BaAAvo89leRMWn6e1SLFlpFlygTtXiWDm+I1oY0Prc1N31DQhl48AiC6z1I+Hhapyz2blr9+Gz4jQUKrZLpKuTHMM7e+HzcW0ht8J9WF8LrHkjmmtcCBm5xEw9Dw3dXptZ2xD/hK6gBaeACR3g08XboPcWQ/fD0us7Ff0A8zafx61E6WeF/H0b06smPh/VEY5mBkiIHH3E/47gzM1k8HxRcpjTPtOql/fA8rFt0aOxdXuWSPmeaOfRWGBJ54jkoMbtwDFwt7sQSlG5efL2aV4W/hO7o1QxwwIb9x89x4z1Z3Hx9mPzdMwArVYu44H2tV2xwLcrSnu6GaBGc1QhiPGgVv5yDiv33QZkxkPhnZw5HJzfFw2qlQO9zOgavJUOfH9ee4j3vjuJ1BcUg8Z8m08JT0esmtQBvZtWN8dgGaxNCuNNHCkUKUyf9ONH/dG7PoG4+tRiL2sqDegDYNm6BdbJqAR8+NNfiH8s/cDOy4BHP1ufC2EGL6DrnD14wABommrOmqudTX490LtZFTPuNvr1fHRACEIZObBurRuOYm6GPfO97I2Ai/ee4vWFB5ldlDzdnTChbwN8+EYT/ZRkptLB4fEYE8AWhfAznxaYPqChzucnM3XRSM0KaD3rFyQ8oXOgFgBrYjv4dCa3KP3ON0bqhFVUm5mjxOrfr2L1/ii9tOjhmIPIte/A1cwX/ucKHm8uPYjo+6YL/mQVAw1gxcR2GNm5NmR6jbS19BbQxwJL4NSI3WDnwLKK0XaU8zj19ZsiyZuhU+yTLIz3D8at+KeGrtpk9RFHZAlnBU6tHgsPZ8NF7TFFBxSCgIkrDuF6YjqevVAiQ2FMUkMBZ1cOQfXSxV6GkdWxk1fjUjHyy2N4+oItBLeOzeiUjZMB7epVwK+fWLcb4Z9X72HCqj+QptQvwmhpTzmOLnkDlUpZCkmnTsNYZDPZAayChz44PA6fBF1EAgOYQ4C8NUYhHOMfjONXk7TyyZDGOHUOBD5bDAku4+iYK4DmkiMng1zGQy6TwVHGgShniHfG0cEBjs5OcHV2gbOzMzycHSGn3ztwcJDL4SKnv8sgk8lEFxXis6EI48S7yavUUAqAUuCgVvNQq5XIVqiQkZUNhUIBRY4KSqUSSrUKSrUANQ8oOUClIhRdgJLiq/JycHJHQM6+vpV0VWHXp4PRqLphgtiYetHx9Q9GSEQiU7N3AkfC3dk4FlgkED1KefuuQKasHJN8VMjDUY0ZgxrgvSFtmeswV8FjEQkYSxxYDA9Ic95qjvcHNiyS/E6aKLq7C7UgXjmxPUZ0JgssO4ClzxxPzlBi6Y4w/HryFnM1AlSIDRxrVs4g2q1mrj+LvefvQUkbRoFJAPgsyNTk7CwD0YbIxJ1OBRknB8ep4CJzgIz2OBkHciRxcHCAs5OjuNe5uDrB2cURDgIPF9rz5DLxPxcHuTgXBZ4HeSCpqJn/dwdW8WoIKh68GlDyvMhDnKVQIUehQHaOAtnZtOepxN8peUClpj9lUKvV4DlO3DsF0QpVDji4QWC0yizuosaGD3qhSyMKymT7SQUB4xg5sMCpEWMHsKxnkpxf+QaqlvE0uMC0Gb0xbxsu3leAlgldksbyU+P9LtBHS39yPGR0EBAEOrqaAUUW4OrkhNsbfSzarFsTdU5AbEomFm+9gNORCVAoSW36xqPTPnJk43Xx+1Go7EEcW9K4L+JS0tB17h7kKCj6tmUcRpp6lcaBRQPEzc1ak4oXsOXP2/jkx/N6d+Ev/9dRraydB0tvRZqgAn0ALDcXTty4bTUdunQP87dcQmJqpuQu0h70cNPbksuZswCZ0Q9cdBARhQTEEJTP8fX4jhjWpZFWN8O/V8N8fxH/yuW3mc23Zv57+SxgG6I9PXfryv3j3/9+tRafZamw5uA1/HjkGrOaDyzoh5be7CALc8N6FxTguyIUIQwcWNT0rcCRKGZEAIvaSH6Rgabv/SJeFFnTuD71MN+nFdytzARYBLD82Vz4Jw1uhFmDG6OEi/EARtbxMH45Hm3m7Ed8shY3b07AyokdMKJT0SKmNpbuF2//C98fugaO09y3WNLt9T7wcDXfAz9BVmN0sEh1QA4+GdYM7/Zt9q9u5t+sctnX/rF/5UKluT97+av//EBzBfpPyrud5f7i7y0u331JvN++OiU/z8Y3B65iy4k7krlNNVu0gE1+3YtMVHF9ACyOU+OOHcBiWQZMX4YAo6NfvIZGlUsY5S2DwI0uH+1HbGLaKztHH5Yjp4AMKgwtEYV3i51CSf6xCFTR//7GEMTvXIBC7oHTWXXxU2prxAqVwQlyKAixzgW7jKlBJ2cHhH/7FjxdnYyiK1bZ6XWbXrAPnruBBT+fRQbvCmPaWuWXU8YBAdM7YWjrmuILvJT0NC0LjSasBZws6wW8Yml3LPJtjUGtqknpjoXlFbDrVAxmbDgnfjf6pCoeWTi58l24GfnCo4+M9rIaDdCrX1u/vUhgCEFp61EIf/vrjhheOyk1S/J0ofeTh5usy4Vw1LKdOH49DZBrv1hQmO1pAxpK1om5C9AZYe2hKCzbcYVZFO9SMvy68A2UL+nBXIe5Co7xP47giHim5m9tGIliJgBI7qWko5PfHlAATNZt6KO3muG9gY3gYEUR52hcaHxYUuuGlbDIpyVaVC/JUtyqy+gURZcDVhIHVmdvk/dVRdaiSrXm/P839sDByVEORzkBQNLOwCbvwCsavHg7EYu2heFyDLunzJ3AUWblDJqzLhjbz8SB5xy0qFTAlAENscCnlRWOErDjzzuYGXiG6aGfZmXrOqWwemIX1ChveGMVS5jH+WXQB8CSQcDtwNFmtSg0hz6tksSdFFXGJQvn14w3mg8zmVO2m7UTSU9euojR2u8qy4E37uMdzxB0cY8BR/5bdNAh08mCQuiKr72aTYIOsNnyklge3xpXZE2g5FzxROGhNXqJvhOjQmlX7Fk4EFVLuJrdQufR0zRkKAVciHmKOWuPgxc4psWNVSfkbtK1YQl8M60PSnq6iaa4ur62ZuQoMfLz/Qi7K52PhlVeXcvRvOretBK2zumtaxGLzLf/3B3M/uEM0hX6HapknICwb4ejgie7u45FKsgGhdJEISQAS/p35ebshJhAHxvUiqZLu05dx+e/RCL5mXRXZTUnQ/ImX6vRDfGbjF91Asejk7Qe1l1d5Jg/oiXe6VnPavqWX9Cg4KtYsiMMGQo2Kx9aGU/7vwGvstZ3qGcmced43Nkw2qguhHlj9PhZBiatOoDzsdK/ubw6OE7A0tGtMaZHXTg5sFuJmHKCiwAWcWBJfjsSIOOzsGpSVwzrUt+UIltEW+TY1X72Hjx4nF6gPPToHUAWWCIHlukSLwgIjkjEuFWh4rjmt5cJGN9eBNSs0WqfpuiMwDP45VQMszJvrRuBYm7Gj3L+KgEzsxWY/cNZ7PvrvlYA0cVJjvfJuvH1JrnzxpSzh1m1fxc88NcdzPnhDJ5ns8lNDwj7F/ZHS++yJv1u9O+59BqIZoBcCI9HSI/Sy3MC7m6wA1jStW6uEhyHm4Ej4WE0Ej6yBrmBWevPA6KZqoBiXAZ8ip3FJM9QkXdD3yTIHBAvr4VFD3oiTXDFfUUp8JxxTLC9KpfAtx90RYPyxUzOU0BuITfinkChVGPu+mBcT1RCEKlB2BY1Zr0LPOqUl2P9rAGoU0VauGuFmseaw1fhv+sKNMJbXurcqCICP+iKYmY0i9ZXK0R5tuZQNL7eFaZXVXQoGz+oMZYMa2qVL4x6dd7KCuvjQtxOfPEAACAASURBVGjrJO4bfr+IVYdu42mG9ghXrxpy4qN4tMl63Ct3nbqFr/ZE4sET7e6Sb3SqLQJYlYqbz/1Dn0+M9sOlOy5j/aEo5moC3u+K4S2rSbYgZm7QQAWZASwANwNHwdNo571/dvD6g6d4Z9UJ3H/0aiv8wtUhoEY5N6ye3AVtapcvPLsF5AjJDaLCdC7jFVg1sTNGdK1rAT0xrQg3Hz3D8OXHkPxUi5WsoMaqiR0xoksdkwpHANYf4Yl4d2XIf9p9t189zBjUGOWs9JHv45/PYOuJGKgYrmJ09bhDUU1NYNH5qgHffeYGvtwdifgU7cT/PZpVwhfj2qIa8fRaYSKgce3BaCzbyX6e/2RkS0zoWRduRO5sw4mA8HH+IXYAS8IYW60FFi1Ae+f1Rts6FSV0V1pW+vh8l+/HievP4MmlYYzHcbxT4nQur5UGfNEHgsnjT6J24pSlsOZJN8QJlRGjrAhBD9/ugnpZr1opzBvdGu1ql4Gro7FfBQXEJb/A/eR0vFAJ+HTDSTxOU760tjI1eAUB9Sq7Y8WEzmjuLe1ASdZ4v4fFwW/tSShotzS57LrN26rlPPDRiBYY0qaGbgUsNNfagxGihQKn1bRau/Cab4vH+ZVDUK2U9VkqWOjQGEUsnVwwCmjZzUWOmA2jjSKXJVS6YsdJBIbG4UW2ZLMIkYfRWjiwCNSZteEMfjldyIu6IGBq//pYMLJ1Pl99SxgpaTJ8sz9S5AfJyKaeMyQZjzvrRsPdTBcwBonFIr4BwQgJZyBx5wTcWDcKxV2N88D37/7Q13b6WhKmfXcSKWkK1u5i5pCmmNy3Pkq4WT7YGhLxAGMDyCqeAREgjqcJHc3iIsc8OAYpKGDq6gM4GP4USi2fsiOnRMDETnirk2kBPiLgPhwWjwnfnvhPb2XqbATN6Yueza0zevXRsBgs2RmOmIfSLbdJGTfX+4jUKqZO5KizZGcY1h+O1m7tKPAY3qmmCILrd9M0dQ9ftkfraFDwDSzdcYkxIBfZDPL4K+AtVC9jnSCertqnI947AaE4EZGga5G/89GVNHbDKLsLoWTNmbFAk5oeOLxkqFElUKhU8FsXgnLXfsbE4sQPII3wW4pwdGyIyKmK3zLaIkpVC/cU0qyEdGmrXrWSmDW0Cbo3qmQEc3xaaoAb8U8RdfcxTkTGIzTiIdKyGQ5EunRGxzwkVdMapbDYtw3a1K2gYylNNjUEHLqcgE82nsPTNO2vJZIqNkpmAW918sKqSZ1M6pZp6K4EX4kVo8zcSpLO+/NvWYZ398bqt9tb9WXX0Pq1tPqIA6ud317EM3BgkTtZrA0DWAs2HMTW88nIVEl/cOA5Ho+shMT9UmwKFm29hLDbyVqnZ42ybvj4raZ4vX1tS5vGkuSJiEnCgm2XcOE2O4fLF2Nb4O1ejSS1a+7Mvv4hIKCEJV39fgTKuJvO5Sf5eSZW/RaOH4Nvs0eO4zjMHFwX7w1qBncX01+Wpeg5JDwBYwJCpXsQ5jZCLnLkkqbPo64UeS0jr4B+C/Yh4h4RuBfc85a1S2PxqNZoWcu0wReIa/b3i/cw9btT/1GXtZNkk00yWayEMqwndOG/TS6ErqZbT/IGICr+qfhAe+qqdiC/Qgkn+L3WAGN6NbZaAIv6HHU/WTzP/xn9mPmT/Xh4Q0zv30yMFmyriYzs310Vij8jWQAsQTwHEydsUUpWa4FFgyTIBDzYNM7oG6YyPQVpv05Hzk16xTD+9qyWOeNUdj3sftECEYqayORdDDonG1QviZlDm6JH48oGs8R6npGN4+H38eB5Ds5ef4gT4XRIzY3IaBKtFaQiHk1qlsD8kW3QoT5Z6+k+fmR+vf9SHJZuvYCHT/QHUww6iAVU1rdVdXw5vj3Kelj2YVmbLujNZcmOy1h3KFpvlTk6cFj9TnMM6WxdFz29O25FFegHYHGIteEohLNX78avl59BIUi3PLEWAIuehJbsuJT7vWtfn4d19hJdcWQS1nFL/RRmBJ7CrlOxkvak/H3hVZl4tG0yc3nT60XAGP8QkZOHJV1eOxwVPQx7FipMjisxKVi0/SIu3CJgVfezQ/56BVUWDi4bhhY1S70M8FNYw2b4/bEr9+DrfxQyGZuOv363PUZ29YbciiMhS1e7gAGLD+JKTKrWou8NaSy663k4mvaCSQDW7nMxmLH+7Cvl+9mvK/o0q8YO0EpXmMFKiB4yjAAWCXEncATcnU0LYIkudYeuYtkOcqnTTkXSo1llbJ7ZAzKJgaYMpmADVrR0+0WsPUyRdxnXUHUW7mwcBw9XtrXJgF0xWlXPcwRMWB2K01EMDzwcj5gNvnYAy2ijY4SKCUX/7HVvTH+zgxFqz1clr0LW3VN4tGU6nLO1b1SGEoRcoO4oyuGysjZ+SOuKFGVxQ1Ut1tPIqzQ+9mmNTvXKwZFtTYEg8MhQC/Df8RfSctQ4Hh6Ph88VIiE9ZwFudoIgoHGNElgwuhU61K8kaZOmiBD7z93D179cQZwWck6DDooBKqNohLPfbIaRnWsZoDbzVbH/Yhz+9+tl3E3SEppaB/Foatet6ISQL4dDpkdodB2asmdh1IA+UQht3QLrA/9d2BfxAkowANIcjyQrsMA6HXVffKGNjCuYBJmmloeLHBN618Xct1patYVp3mdyNCIBS7ZfQkwi+xq3eHg9TBrUhvHLM30xChsfLD5uSU8XvhuOqsVMe4ERBOBEdCKW7byMa/fZz359WtXE+qkd4eJomfyZNBrnr8dj+nchSHzBJmPHuiWxbGx71KtaRvrgWmkJ8hocuPggImKeaOmBgHli1NRGjNd3duUQgLX55E188tOFV1YyrrsX5rzZAmU83dgbMVNJAoNoPQlhXE8o+AsFgTFlCo9NxuIdF3H+ZopWKhJ3VweM7VUb899qZRN73cnoJHGPj9ZjDV0ysikm9idOW9tMKekKTF5zEmevJUnvoB3A2iNdaWYsQVFeSrupsXxcWwxsb/xw2qqsF3h6aj2yQwPgwBpbWaq+OHJYlONUdl0EPOqMBzIvg0YrbOZdDsvebotm1UtK2lhp4/jj4m0cjUhGlpLHvtM3IZORhQAjEiZVLzrlF1C/SjEsG9cebetVlCQZcV7tO38XAb9ewf1kInG1pH5p7zyBdlMGNMD8kda98b3Ioigt53DgAkVp0S+RWe20/vXhN7S5FY2kfn22ptL6AVgOou+/raYpX+/Egcg0qDnpB22BE/Bw0ziLVo34In0gXPMiLe4hBSUBLbxLYuX4TqhTqaRNuATT5XfsilCEMrgM5GmpXDEZwtaMgIORgr8YevL4+oeCyMJZ0rk1w1DDDITT6QoVlmz7C5tDbgMUdZoxDWlXE2undWYsbfxiT9Iy8e3Bq1h/6CZTY7xKiS0f9kbv5tWYyltjoaDgCHy97xpSXhAFc8Fr1/xcAMvUfVSpeaz74yo+3xHxyqZLuMrwyyf90aiG4elKTNFXdkBcQEzgSJMDWDtO3cLMDWfAFcJxXLuKJ376oBu8KhSX9PBuCp2ztKESBPgFni2c41JL5WU95QhfM8omrK9f1c341Ey89/0pXLj5iEHFNJ/tLoQMijNPkcmvNUDP+mXRoVE1jbWPCTAGVXoK0k9+g6zTG0ze6cisCggVOmPr09agV0FDJFJZI6+SWDO5M7wrldBaJTVJTFb+v5xD5L003H34AvcfZ4kEexrSBBMMgM6d5lGjrCO+e68XmnkR54DusuWoBey7cA8rf72M+GSyCNC9rM7iGTnjkM61MN+nFcp7mtY82rDdEvDFjrP4ITgGGewcun+LVLmUK5aNbYV+LWoaVkx7bXprgNaVtn57kMDEgWXbANa7X+7AH1Hp4BkALHACkiwcwIpJSsXyXZdxKKwwtzIePZtWQNDsvjZ1gJ341T4cupqK/2PvKgCrqv7/575adyewhBGD0d0ITNKgQUXEVsCfTYgdhK2AIqKEEgqIgfToGg1jbGPdvb2+5/8/922Ug717X+xt3KMIspOfc+453/M532AFBqywV8hw6LOH4e9oXdMkIR89NQ2fsng3qK8lISnhiwcR3gCaIlS8uZJVgrk/Uz8uOVwQHyGJykrju/hg6bPxQopbvAzdh9fuT8ZLy+s2N6u/AwQ/zB6IIe2DG6HUVP/o/ptDj0eW/IN/EvNB7mZxQHTgCKx4qj1iOR+6dY2AElifbD6GpVsv0+PgP4l2e/v8YYgL8xECQIOXmbxoB3ZyJsk85XSdCldXPgpHO/6m+UIHnZZXgvd/OY4tx+rTsCFo38wNfy4cjRuTxnN8QjtpsXIEb6zaj9V7UqHVCxwLQ5Cw6EGEeztZrJcNWXFybhleXHYQJ5KF+AoTCayGnDuj26ZC0IczemJ4xxB4Oimszk7rqwpR8e8iKA+t5L1nGj3IO2QshQtOs60xJ3sM/w37jo0TRAW6Y90rQ+Dn6fDfA45GSCysxPc7LuL45XykZJeivFpnwy/gBEEeOqx+eTSig/m9KlVq9NhwOBWfbkxEfvHdQ7mbOpeWLO/qJOdU1if1s27IZnOPKbekEs98vR8HLwnZ0G/tjUzKIL5zML54qj9kAs9Pc49PrM+AgClRCJu6CeGjH/yKv8+Vg9xVO+nOKynnx6k2u8zoWf77kRT87/vDqFLScBl3ThGBblj+Yj+09DevKX1Dg5OSU4RHP92PJIFmhBKGQZ+2gVj70sCGHkq97dP5phpYQpwu08r/+OgBxPk33OUlpaASL3yTgOP1BBq4GxAudkDiN5PhKBWuyVUv0CZkWL//Kl5cfkBwDb2iPbBoRh+E+jat77QuQOiORX267a7Hp1vr5l6YOz4OfWNoACHrCh9anR7zV+/Dyt0Zd5zT3+YOQ5cIH5v2z3anzk9a9C92CfCpF9vcFb/NHQF7i0djv9HzPecz8fine1HFBbW682nn4+aAH14aiLhmHlZfL4I/fCMKZhRW4NlvEnA0Sbg83z7MA9vn398kzCpvh+x8ehHmfH8Yp1PuZo5cN9BU21504m7EImzILNTUZNH0HhjbM4zbeOg20BBiAKssRMWfb6P62Hqrw6Fj5DilaYEn82eAEfgSWFen/bwUSPhoDBwVtVo7BIcvZOLV7/agknVAWYUaSq3e8Pgo7AHS4lixDNA5RI6vZ8cjyMuVV3sF5dVYuvUkNu7PRHmNyo91RQ1e3a03MyWwnoq3vGltvR0xMcPTn27D1pMF0BHTo484KKSYNigK88Z3trIYaSIITby4aQSWBCnLJjdZhKZ98Ct2nC8HEWIixuiRs+pRm8VGQwh+2peMN787VO+REhvmie0L7m+Q896SANK1Hz9vGxLThPtXCvZ2xuHFY2tCpliyt6bWTTCZ81lTn7Zd3e18//poDGvJ71w3tcc3l6diz9OfbcG2E0WCzyPq37xjtC+2vD7U5s4gSjBSAmvWsoOCeRaZlGDbvHjEtmjqfrAI3lt7AN/tTEa15u63kEcGt8S88R3NFjCJz5rW6PSY/e12bDxy52inXgoV/vlwAgK9XPhUbRN5J9VoYDE8viaqdbZ13nB0CvO2GmmnZQl+O5GB57/YfVffVxTUYB8HHPz4AcglDXG7tey0Tl28Azu4/V/Y7crRToqLy8ZBIVBj2bKjM632Uyl5eOWHozibxj8yMWFYTg4WoxCaNgcWK80QPd59pAsm9W9pE6E0iaYQJZteger0dtBwtNZMLBgcV4XjqaKZnDq7sK3gvz2O9CHYvWgyLhQoMfq1TSCMFEo1DVZrrhYsi9Ibkzvh0X6RcOCpFpxXUokJ7/6KqwUKaIm+TlVry/bc/LVPG9YWs0e1hbeT7ZuW3G30Kq0G97/9D86bcMG7uX6ZhMWz8TF45aHG4/jY/KvDtmqkARO6z94smhDWMS2T3tuAXRfK6vEPVfd8SkCQ9aPt+sDafTYbjy3dDZVOf9dHEQlYdAtTYOOCpunrLKVUg7ELtiKvuErQh0n9gXaNcMemuaNs+qQ2aGDVakzwlym+mDUSD3S4u6sDQQDyKETloZHvbMO5a2WC5SIqL3YOd8Vv80bbnCbB+r2X8eKy/YCUv889DkYG+PGVQRjQKqDJRyN8YVkCfkm4Wu86eHJYDGdCSLUlrZ3UWh2mfbARe6+o79g0fZQ+smQsmnk7W7t7JrUnNAohfeg++skYNPOxHmF3Jq0II9/5C2oN9Xx450QDDvaMcsEvb1Arm6aXTqQV47mv9nEuaIQlgnAvCfYvnmxze6ew8dwodeRSFl5ffRwXMujZwi/pJQRp34o+sPihZqXcEijx+riOeHJ4TfQh658DdY6UrcpE8drnoL16uAHUkhgcVMVgdtFkwa+BdQ1KBxZS6mWE1DwUUPdi1uXneK0q+poil0mx9d3RaBvgxFGJfN4tCiqUiH3sG8DBCxI6Zl6t225mluiw9IleGNencZsRUoQ/2XgY3/x1FVXqux/+xs6GPaPG6w91wPThHZtEiGJjx22r+eisdhPoA8vRHri6zHbN5EzFfNL7m7HrfAkgEUZE26oJoZ4QbDuZgZmf7an3fKEv0ocWPQApkVjtxdzUeeNTnmphdZ+zyaRot+2au+G3uffBQW7dKH18xknzTl78ryANLHrOv//UEDzajZphNWyi7rp7mThf/p6OmDcxDmO61PpktA2hlrqL+HBjIjYdSBEMspQABxePRahP4yJE+Az4p51n8Mnmc8gv0+Fu7q+k0OOZ4TF4dXzXBiGXVRodBr++Gsn5d9dg3/v+/YgK8uQDQYPnpRY5Uxbvwi6eUQglDMHhRQ8gxEqEHUuAA1fyMe7tv+66ViigznYSXFw2ERKmacbMpma38fO343RaAUD43NRuLLdgbwcc+PABKGw4oquQj+PP40l4Z/0ZpOTxd1/DMhKkLqNRNYXJiUL6awtlGEIIoYdW91m2F4VQKmFA/bU9ObwlZtxvm2Y/6qxjqPj9deiyLoCw5rlgG7swWEaKf1Sd8EHRSFSy1nNGaGz/rJHP08UOP788BG2bufNm5DMLy9D5hV8hkQh8bbTGAAW3QfDh410woU80pCZEThLcvDkLEiB+4XacSikU6j/3P72JDnTkHN33bRcKWRNU1TYn/JauyxQCq6n7wJr43mbsulACRhCBxSDnxymWnj5B9Z9KKcDQ+VshqccUgCotxEW6Y9ubIwW101gKDX/zJySm0yuZsCRl9Ihv74VvZ9k2TlOW/It/TwkzIXzz0X54pr9tRLib+O467E3SgF5OhaYeMQH49pne8KaOsRqE3vhvz7mooNvPG6KCmpA+fb4vHogLBZXhm1qqUGrw9roT+Gn3lXq/1/guzfDJ9O5wd2gYGVOp0aHP7DXIrEfhxVVWjcSvp/O2XmjIuS1XazD90z1IOJfLqxudmjvi+znD4ePmyKuc0MwZBRXo/Px6MPL610BzXwcc+OQhXo/wQvvVUOUe+fh37DxfCh1VhROQ5NSfbZwfvnpuiI3smgIGUUeRn/ecwaLfLiCnWEDUKobg6jJRA8s8M2GGWuQyCWJCXPHEfZEY1bOVzS5UQlhUJ+9E5R9vg82/IjhCjVDI1BInrK/uhWXFPaFk7W0WJ6Hju2M5wiLYzwlLn+iNbtF+vJz50xfvC+klGPnWn1Bra81XTJBEzT4481Q4blBLvDSqLQLd/+uc3zwtWK+WQpUOnZ9eAxW1aDVT6hcbgFmjYtG+hTcUNupU10xDtelqTCGwHO0luNqEfWBNeP937D5fJIjAon4Rclc9YnNzr9HpsPlgEmatOF7vBdDBToajX0+EdxN/WKQia6sZa1Gtpvo9wlL/dkFYObs/7GyWkKc+sHZhJ0+NCYoG1XKZPiwW746nkdxsIRGMeedfHE6qL6LY3frKYHCHIHwwtbPN+B/iCKw/zxoILIEaErXq+xteGYierYNsYbLM1geKz7I/TuHt9SegR32EBIuHejXH0sf74sYnKezSLnQA1OS183MrUaSqJyI1AZKWTYCLQ+N5CF/5TyKWbr2I/DI+eybB1gXx6Ej9XwkFlUc5lhDsSEzH1MV7jDIhPUhNOb2cub5Zo388hmK2rBoQ9BToMqK2E22au2Pzm0PhrKjvGzRbty1e0Yp/zuCzrRdQUMafwKI+4K4snwAnUQPL4vNUbwNUNbB32wA8OTwG3aMDeH3ItTSEtT/+8nPbodzxAdj8pHrHZ94MBKk6X3xaNhQJSuq0W5hapnn7ZNna7OUMwvzs8MaErujTLpRXWPXiShXOZpTi2S/2orhCBepBzJZNJE1BkhAtVr80GAPb28artSljoWWnffwH/jnLP0LH3drt3S4QMwdHoVfrINjJTHcUb+oYG7J8YbkSBaVVaBVqXQe8VPzsIdiEsIkTWO/+jt0XhRJYBLmrbM8HVkZ+Obo+txLEjkZZuntylrFI+n4arweK+uq0xZ9TPzSDF2zH+dRCwd2LDvXCwmnd0SfSdk2BDARWpqAx9ovxwtpX4wWVtUQhum81n/wdWIERQmmfiF6LGUNbYv6kHpDZiLbS38evYOG6E0jJ53+RuhlnfXUZUtc9DacmdK5mlVTh402JWL8vuV5n3F7OMjwzvCWeuj/OEsvPqDopId7q8WXQMHf390QJ4q+e7o2xXWtNWo2qvkEzPb9sH35NoKauxt95fD0UWDNnMFqH8otQLnSgVWotYmb8AA3qIRC5zUCLrFWPQmKzDxBCUbi1HL2jj3pnO45fEW5REejliLcmd8b9HZuZp1M2UMsXW07gy78uo7SS/ys9faxM/nYSnO0bDwFtDshtzoSQqhzf37M5XhoTi+Y+LpzgaiwZlV1Ujv3nsxEV4s1pVRhbzhxAUu9JlRd3QLV7EbSZp63qTIk6Bf23qiW+qIhHhq7hfUSYB8+6awnyccHgDv54qEdzxIZTcpNuh8bN9ImkbPx1KhPr9qaiqFIF5m7OCyw5CKvVTfDNiwMwPC4EUuMgslrPhDREL3lTP92Ff08KuwDdqc0wHztMv68lpg5sYxMBIoRgY0qZKpUGfxxNxfnMMqRkFeGD6b0R5Gk9/yWmEVhSTnW6qaZx7/2OPReKIBFiQsgQ5NgYgaWn0ZgOXMSzK44bdUZO6uGDT54c1lSn95Zx/XsuHVM/2lOvVtrdwHi4dwSWzuhh5IlofVgnL9qJnaezBDUc7q5BwmePCyprqULPfLodm08UmjRnPdoGYO64jmgfahvEIzVkfXvdSXyz/bzJsL05rSueGhjNg2IwuUmLVZBdXIlPNidi7d7kGpnz7kLVoPaBWDV7IK8HVnN3nhJY4Y+sAORO9VYtYbXIWP2YUZpC9VZm4Qx5pVV4+YfD+OdkFqedaewj9DP3t8Yz8W3g4WQEoWSGMWw/fgXTPz9slGXOmM5++PLZwWAau8sPI3DbfjwJT319FBottYcRlmzh+xLW87pK0aimB/H9zquoEvBuQL+Bq8smihpY5psQITURPNw/Cv97sB0CXBx4fcgFpZX4cO0hrE1IxaQh7Tj/Ni4NoE6nTktA1f4vobm4B4TeuK2UKJGzWdMby0oGIF9rvcunlYbHNRPi64RZYztgZNcWsJcZT2zSWTh8KRvvrzmEU6llnJt6Y0kva47PEm0N794Cb03oiEAP69j7W2IMN9eZXlyFrs/9BEjNaxYpYVV4+eFOeGFkw72WWhq72+tnCYvlf5xAiUqCpZtOQCp3gJerArPHtMO0AS15PB2Y1nN6XvcUqoFlJ0PyckN0uibA0f4HyHEfbMOecwWQSPhrB1KhJneVbTm4V2k06DNnDdLLDYFC7p5oFMWpDXoBrK+H5vw5AYuAKat5+3K8uQ+xLTwxb0JH9GgZYM6uma2uyZ/8i51nhPjAIgiwq8TJ5c+YrS/mqEij0+PlH49i/Z4rgquj3+ng9gF448GOiA72bPBABfSz3HY8HR/8egopOfwjYt0MhFwqxduPdMbUPpEmrWvB4JqpIHe/WH8EP+2/ZpQ5t7ebPV56IBZT+0U36LlECaywR1eCkRkX3GHhhHaYMay9mVCzXDVr9lzGJ5tPI6dEZXQjEqLjCMVBHahFgnWkha6zfkZ6Uf2+kWkk2SvLJt1DBARBi8d+hEonfB4iAlwwf2IcBsU2BS0sgte/24Of9qVBS/jLevQjSFo+AS52ogaW0RuCuTNOHhyJOWPj4OtMJ8F4K+DSSiXmr9qPDQfSufC/EcFueGNcRwyODba+MEBYaAsuQrn/a1Qd/4WXequpeFZLXPBK/kM4rIoCaRJvXrWIEPi5STF/ak+M6NyceyEyVu+K5jt0KQ/vrj2GxBRqnlG7YQrfOE2dJ6uWJ1r8sXAE2of5WrVZSzWm1bH4YP1BfPV3qtkjfxKix+zRcXjxgdh6vVtYanzWqJe+sH/52zGUaxjudyJ35l4IaynhPm19MW9cR8SE+lijO1AC6DNnEzILKnm3R6OuXF0+wWAKzLu07ReY8PHf2H0mV/DlL/vHqTaFy6HLORjzzt9GPU4N6tgMP77Qp4nObN1r7/3Nifhs8xkTFiaLp4a3wtzxNOiN8aY1JjTIq+jkxTsF+cCi6noeTCkurHqBV3vWyJxSUIHus9ZBIhGu1cGAxYiO/nhtXFc096/ftNbS41LpCGatOIjfDl41uSlnRzn+90AHPD6YamI1vl26olqJj9YewPe7roKVUiKo/jG0C/PE1nnxUHCfYP35TQb5DhVUqzVo8dhqSKTGXWwdZXokff8o98Rrq4lqX7299jg2HrzGC9oRnQLx+rhOaO7nbpWhJVy4hoc+3GuUpvHgjoFY/kz/e8qNxWdbE/H+r8LPOup/mvqY++yJvoLlI6ssBKMaIXhp2W6sTbhWo2BhVKEbmRiCy8smwlUksHgCZ4bsBARj+0TgzYc7wN+tVrPCuE1fpdXh5S//xIajeWC4TZqWI2jf3AULJndF52jqRNJYusMMg6FVEBZsRQYq932BqgOrzVSpcdUcUUXi3ZIHkK23DXV043p951xSKTC8SwhG6PLx+AAAIABJREFUdw7FfZ1aGHXxqa2tsLwa246m4Zf9qTidYl7fSaaOy3rlCdbMjUevSC9IaUivJpAqlVp8uf08lmw5Y4QWB78By6QSjO3VHK195JgxoksTOBhvjJ8qa6/48zQuZFVg66EkVOukdfrxcLJjOJOWaYNi+IEnMHc1AfpSAqtQGIGVvGxCk5qnm2Gc9MkOTmNFCD1HNTtyVtkSgUUQv/BPnEyu388TDVC0Y+EotGvmJnBVNc5iZdRnyuPrwNavnnbHAbYOsue+377tw20OhGmLd2FHYiZ/kzuGwFFbgqtrXrS5MVWptPhs2yl8tvWSUZfVOw3ATqbHt88PxODYUNiCO6xNR9I4LayM/AqTMXd3tseLo9rgsSExkDciMUSt0+HVr/7GllN5qNYbF0nC09kOi2d0x30dQhqUvKKTRgmssOlrwBjpV4nKPzOGxWDewx0avO91LTp6V9x86CreXn8SucXGa19JWTWWzOiFB/taKyAYixHUz1NSsRHfDoONbwxG9yi/JivH1AUCdR3RbNpqkyyVWgU5482H22NAhzAjcLblLAQvfr0L6w9cA4S4iwBwefkEkcBqiCnu284fcyd1QcsAtxqNKeNPuOc+24otR/Kgk9wWjYDo8PETvTC+T1QDvUMS6CtzUbnnS1QfXGGSYMNrThgGT2VNwgl9a7CMLb+j1D8qegH7fvYAtAp0QTNffheZlJwSvLJiL5Lz1MgvU9ffWBPO0S7cHatmDYbvdXK48Q+2pFqDL/+8gC9/Ow1zq1lS/T5PJykmD2mLWWNijXG/adOAqlmCdfuTsfNUJk4l56GwvPZ7uPM+2yHUCW9N7oLOLakQbtlUxQJ9X9qELKEE1rcT0VTdRkxZshv/JmYIOj84AuuHKTYjFJ/OKsF9r24xqj9EX4WU5Y/D0ZFeGo2XByy7Ui1fOzX5aff4MlTV43T57j3RY+64ODwd387GsCOYumgXdgjygUUgVxcjff0sy0+CgBbyy5V4f9NprNtlWhCf2DBPfDGzDyICXAX0wrxFKlRaTP90J/afzzPLOvJ2tcfQTsF4uFcYOkfYvq9WPSGY8vGfSDiTDY1UYdRjGd2p2ofY4493HjJqnzPvjP23NrqfRMxYC/ogYCwnbq+QYGqfELw1ta+lu8e7/v3nMvHmT0eQlF3Fq+y4XqH439g4BHlb57tKuJSJyYv2Qq2u33yQqKtx9POJCPW1Tt94AWfBzFStpO2TK1FULfyeKpMAzwyPwSsPd2rkUgLBs1/txoaD1ERZGB4Xlk+Ah6iBZcEVW0fVQR5SLJ7ZD91aBoCy/3zSx78m4IttSdCzsjo36BBfRyyd2Qtdo/wbbHHrqwpRtWsxqg6tNMqRH5/x15mXAa5pfPBE4UwU6RvnhkgvXkRbiV/mjUHPaD/u9YjPFSa7VIkpH+7ApYwiGG62fEqbPAO2VwFhcXjJgwjxaTq+0ejhR+d58e9nsGbnZYtg7uKoQLi/E8Z2b4bHhrSBhOG3Di3SKSMrpf500vIrsOKvCziRUoKsokoUlvF4sZTqseTxXnioZ6SRLQrPVqxhMeTV3wQTWNR5pUE6b2rfOcGkxbu5qG1CRkYj0+T8MJWX1qrwWbx7SeoPcuDcLbiQUWbURWrZc70R36EZJFRCvYcSyxL8dTIV0z9LMGnU04e3weyRbeDpaDthxumeNGXRbsFO3JnqXGRveNkkXCxVWM+y2H4iDTM/PwCqJWJKig52xfqXB8HPveHP6/M5pXjy071IzjbNF1YtHvZyCQK9HDBrdDs80CNCkGapKdgaW1ZLgHHv7cDhi1kg9F5i5JTa2cnw9/z7EBVEfZkJ2bWN7aFx+WoJLCO7f71SP1c53ng4Dg/2ieb+ruFHApxJycUr3+1DYgZ1OmB8jzpF+uDN8XHoEunHo5Rx+NaVi7qiGP3e3ziWVGSUdtHHj3XFQz3DYSc3TsNPeM9srSSLhKQ8PPTODpM6NrZHc8wd3xH+7vUHKjCpIQsWpmfGC9/sxa8H0mrurPwbO7tsIrzt76011KBRCGWsEotm9sXIHlFQ8BRU913Ow9Of7kRJxd1DTvo6E/z8ajximlk3NPzNy0+vLEPBXx9Ac+wnyAlVnLR8GpE9Bzmsn+UbMnsLDB7uH47HBkZxoW6pvytjEz2kV++6gM9+v4DsoiqbECCM7bul8235YCzighxt0i+K0LGzhODMtUK89+tJ7D9LX4ktkQhcHRXwdAReH98Z8V0iGkij0/ixpRRXYdLbW6AlchRVqqHS1P8KeHvtgzoG4vWHOqJloIfFhb6sCiVGztvOfbN8k0ONE/emSHNQk0+qsbLztPComzk/TuEl7PPF39j8b6z4C6sS8qE3JugQw+LwogfRzLvhL/DGjs+c+TIKKtF1zmaTiBAXRxk+fqQbF/DEFi7SFB+6C01dtBO7BGlgAfqqfORvfMmcUJu1LkoWrPz3Mt5df9JYvuOO7Qe6qZHw8SNwaOCw6FSmGvrGepxJVwq+WNU1SA9nO0T4SvHW5J7oEGFDAQf+34ftGyt3Yt/FClzNrzKKgKgdn4Qw2P/xKIT5033LNk6karUa4TN/AVh+FBaVu9s0c8Pr49qjb2vq9LxhU1ZBOd78YS92nCuGnk/0cMJi+pCWmDehc80d0/j7hJARUyLigzUJWLHrGqo1xhx2wJ8L4tE+zEtIc42+TJVah7DHf+Z1z7t90I72Mswb3xHTBhjI1saaXvx2H9YdSBVM6v/74Si0DuBnqdRYsartd4MRWBKiwbuPdMP4/q1AI5Xw2VYqWeC+VzchLbccIPUdFASfPt8XI+NCoeCp4WXOyWV1KpSf3gbVrk9AitPMWXWddZ2TtcfMaw9DTRoPI8syLL56ti+GdgiFvUzKhcetb3ZrB8+yLNrO+A5K4gC1CaFZLT4xDdSAglHh/PJH4djEVEypxsKRK9l495eTOHGlxKLo2sulYKQEK18Zhp4t3CATaKtu7k5Sp+z0n+GvrMSVIjtOY7FadXdi/459YHV4bHA0R9bZK2SQWsE2b8WfZ/DRb+dRoeRP7lMn7knLJjQZ/243zwvVWpqyZJdAp9cG92YZqyZCjoY9A+is9v/fb0jOLzdK+8pOV4L9n05DiI91nO2a+3s0tb6Mggp0emEdGLmdUXjdqb1FM3pifO9wo89QU/tdX/lSDcGMT3ch4WxWfVn/+3OGBaPXIvunGfzLWrHEntOpeH3VAaQWUrqOj1R7eycJ7o8LwPIXBzU4GUJ9TvZ/Yxsyi8qMkLeNB5u+TSrkUvRt6YElM/vD3cWhwdYqPT+T8ivx+spDOHoxFzrK9/DjfLD1g5GIC3SFpMFG8V/sq9U6tJjxsyDn+ZTECvayw6yRbTG+XyvjJ9bMObOLK/DA3PVIr1Tw5OEIRvdojsXTe8FBLswsi+9QqNnpyIXbcfKqcT53PR30+OX1EWjdgAoWfMdozvyU9G827TvIFKZFSX91fAc8M7wNZCbtueYcGf+6Zi0/gPX7r/Lddq439NH0DpjSty3/hhtxiQYhsCQSwql0zhzalvcZr9bpMWLhXzifatwGQeeGlQD73h+FyEAbYCfZMhR9Ow6a9NP8T0g+C43Ro3fW+1CytmNCcKfuSyUMHCQqfDi9F0b14udkUadnUcUSDHr5N2QWVUHCU+jgA2ljz5v07Xg42ZBJiTnxTLxWiIVrT+DwxXxer6aC+yBl4S+pRsK3M1EbOkIm40fEC2mbap3p9Sz0LIHm/520vvzFNmw/WQytiWQa9fHaOzYEXz3TH55yUrMvm3IBM350Q177FWczqwS98FMNrFNfj4ObzDoCqvGjMj1ntY7FY0t3Y+8ZARf+muavfj8RjrKGI7Do/jxq4R84mWo8ufzH/OGIC284jWnTZ860GnKKKnD/G2uQXV0b0EZYffTxZ+UL/TA4LsQmtLCe/3o3fjmQJtjHh15i8Olm+V1WGN61pZb/cxFvrzsBGjHX1OQuK8Xpb5+FQm7sU56pLdZdnp41rWeuBSWzLJH0IJArC3BpzSzY0YdLhuHtUoRvv+jjl1avx+m0Arz3ayIOX86vIYz5n3vDOwXg66cHgMoADTtTt6JAnbiHz1zPWwPrllp0KrzyUAc8O6ojZEY6g+c7F3Xlp6J8UaUK7Z5cDcIzwiedwQHtAvDNCwPhbKVvR8fq8ciSnVzQlfoVKwwj/n7OAAyNDWxSlhF85l6l0WHI/M24kkXNQoUneu/76LFuGN83EvQ+2dgSXesvLDuAXxOER331c2WR+MUjjW3oJvXX6gSWvZ0Ez45ojVkj2/O+JBVXKvHkl/tw4Bx/cyGpjMGu9+IREdDw0fkI0aDgm7HQZp+FRGc5B+NDsl9HMWvLr9gEDgoZZo5oi+dGtuUEFz7mDqWVarz5/U5sO5EPLUsvsCJ7dbfdYPN7o9AlxAZIXJO2rDsXLlRp8drKg/j7WIZZLg/GdJNqP0lBEOotxZLnR6CZq4EwljAETvZyONrLBWkH0ZVMTf/Kq5SgpBWBBDqwOHQhG4t/PYaMEnqRkIDUvjgxrNFC083joq/gwV4O6BXhho+fHlQTPpsKANYRAtR6ghEL/8DZVGOi9dQt5kZ5stiz9FEr9diYVWF6HjrjT3/2JzYezoJUZie4wkgvFvuWNIxQo2MJXl32NzYcyYNab+R6YvTYOm8oOoZTv5VGlhGMjm0WzCwoQ/fnV0InN11W8bbXYNXL96N9uJ9JZhqmIlVWrcZLKw9j29FrJh3T+xePRYQ3fa23JZrgVnSo7uvb645j2fbzZtlHfb3ssGXuCLjIJfBwsW+wr2LJxiP4+PeL3FlkySST6tEnyg0fzryPO+GohQb1R2lHNaBNaJgjRMoqodYBdI7+TszE3BW7IZU73jhHedevR3NnHTYtHA8/bxcLI8O7c6hUqxE5Yz3/greVoIFtXpvYGaM6B8PfzQkKCz8Y5ZRWIbeSYNjrGyCFFFTO4pOCvBSYOz4Oo7pG8SkmOK+OZfHBmgP4Yc9VVGolRmvOrpo9AIPbB5u0rgV32gYKKtUadHh2DcrUpu8pwZ4yLJ7RBz1jghr0rBMCa3m1Bi99fxBb6fkocDXQu3PmD1NsIoKtEAyElLEqgSWXUv9GkXh7WteayF7GH0fF5VV4+fsD+PNEtnDhRVuGg59N5R3RTgiw9ZchuLbxZThmHIEuz7TINXdqa1VlX3xeGl9/VxogB31RDPV2RHzHQLw8riuvj7ZKpUFWcTXeWXcCO08J105ogGE3aJNEr0TWzzPNHbSvQcd0e+NUMJ31bQJ+P5IKLWcHYN1kIJQI3OQaxHcPx/09WsLLkRIQLCeMGy5eDAhDwNzky4Gai1Gn24bEQAsJDl3KxTe/7kaR2h6MVM7ZhBnKmT4mSpC0DPWCkx2L398cCRkNnMDrKzS9D0UVShxJKcGCH4+Amk0JTf7ujvhudn94O0gR4ucu8PgX2rr5y2n0BJklVZj34xHOgbtQgYb2jJpObFkwFMGeznB3Ek6E8R2lUqPDiWtlWLD6CM6nFRpdnH4DG98Yhu6Rvo1OCDV6kHfJSMnqXaeuYcqn+80W9GXCoCiM7x6KTuEBkFj5dZruKTRC3zs/HcaGg2mAwAhLtZApFATb5o6Aj4sC/p626yNtxfaTWPL7eRQrzbBZc4Mn6BTlhYWTu8PVTgp/Tyc4WdsdAAGGvrkWp9NVgDUiXDNUcYhFC28HPDa0DTpH+RtMhOhZxdLzlOVILblMCrncYDyk1emh0eqg0emh5wznavITAiUkeO2LP3AuX88ZVZtKxDHQI9xbhhWzhyM62DZ9GFWodYiascYcW5OhDk0VPn2mP9qEeiI6xMfs2i7X8spQqtRi6kd/Iq9KD6ZeFzH/HZqLgmBCzyC89ehAk85OY0FTafU4cjUfH21IxMmkAmOLcStw2fP9MbxjiKBHTh4N2WzW45dzMPrdHZx/RHOkMX0iMaVXc3SM8LU4yWqO/tI6Csqq8faaIwYH7iadjwx+mTcc/g5ARJBXo5eDjcHXigQWQViAI+aO74AhHSJ4yeT0WvfttkR8/vs5lKlMU8vu1dIN378UDye7hjOrqJ0YemmFMg9Fq5+EKu0Ip8lhzlSgCMKwlBfMWaVZ6qJy16heLTBrbEeEuFPH4san3JIqbE64gjX7riIll7/TZ+Nbano5WYYg9YepsLfyJcbaSNLv6tll+7DjWBoqtQzoZ2YLib5iGnYvCUdWccJ1Td/oz2giDHNHgoryXSaTVwzQ3M8JgR4O+Hr2ffBR0F5wqo8Wh4i+opZVqXE1pwyVSh12JaZh08F0FFWZbpZCLxOdWzjj+Qd7wNPZDuH+rnBxkDcaLZ5qjQ5XsopRXKlFUbUOa3cn4eD5HBDJrUSnkElycpTj0UGR6BHlB29XB0SFeEEhpUewZeb8WkEFdp7NxOpdV3ApvZR3lx8b3hb9ojzQr30z0Nguluon745ZsAD9+unesONEGqZ/tBWsnXk1ZR0lFfjquRFwsJehQ7gPnO3phd8y80/J8bJqDU4n50HDSLHleDo27LkKhupRmGEvpv4xh7T3wbj+MfBwskNUsAec6IK20HiETTvBki3n8O2fF7g9z3yJICLQGZP6RSE6yBMBng5o4ecGOwtrxNT2X6nVY8L7v+FoUjmISZct4xCp1cjnZGWaGHpSErBaNRRQIcjTBd5uTvDwcOXIlJKySuQWlnGkqYqVAVI7jgg3x7q7uccOCglaBsjw7iN90SHchpzQ3war2QmsmvqdmSp8+jy9R0nQOToQjiaY6VWqNEjJLUdhhQaLfzmEE2nlBo04Gn2c537h4yLDyE4+WPjowJv8fllmn6NQ5JRU4d/TmVizNxmJRvq9unmKxg2IwpA2PujXrhn32MTHAsW4L8gWc1E5mEHC+RxMfud3aOU0eiDPib7DsOgDrzOjwXuP94ePmz06RvnB1dpEfz2Q156PZ67mQg85thy5irV7roAx0Q1I7f2hubse7z0+BDKGIMDDHuFBXjanGWquVWk1AsvDWY6nR8TgyeGxPMEkuJBVxvkU2MuFEzdtM5LLJJg7hUYsaNXArm1vTKGusghFW9+EtPgKtJnnzDW3nDzXKeMj89Vnak0MQa82QYgKcMRbk7tBwsNBNBWcLqQXYf3eZKzZdYW76IuJPwIfPNUNU3pYR62af+/MW+KjNXtxtYzBlkOWD5pg3p5bpjZvFwViI7wxoW8EBrYNhr1FwjYb9LhqfeBSUuZCWgH0jAx6wiIlrwK/JSTjWoHSQsIag4ggF4zu1hyhPs6clpunkwRdY0LgqKh18WltXbNb57OWrNifmIJCysEzQEG5Cr/su4RLmRUGMpG7cZlzjyMgrB5tm3tjwsBWcLGTwEkGxEUHwM/NwYRz1dBPSr5kF1fh0MUc/JuYiS1HasJBC5RLGZ0K78/sD0cZuOhRHcK8EeLjZlZELPOV8auVCrOHL2Qgu0wDDZFiztd7wQq4uBnbKnWHNmtsJwR7KODv5ogurQJgz7mPM22t0Rf0hNOpKKoi0BEWqfkV+HzDEbBSe5M1Xe40NnoNig5yx8N9o+DnYgcpdIiLDkKwl6NVgk/Uh3lBlQZPfrGXI6Itlbq18sGITi3g6qSAo0SH+7pFcQZXljSxLCpXYs43O5FwuRBVWtNNfyyFjaXqDfJxQf+2Pnh0QEvEhNq2r75itQ6tzamBdRuoUgmL1yf2gK+TBHIJg2Z+LmjV3BcK7uHhv4kea1qWRXJ2MS6lFYJI5MgqqcRvh9NwMb1M8JTRY6ZHm0AMbe2JJ+LjbiJETNvXbu4Q3avp/ZPTKq1QI+FsJg5ezsOa3dSCRvh3wOqqMG9qH/i52nGY0bOuhX/j1yS/fTLpA+bJpGxkFCqhgQQvf3cQah3Lm6Q0dpEQosf/xndBM3d7uDnK0aNNMJzk1nOPwRFKdMEzDPLKlDhy7hq0DA1EwCKloALfbDoGNWN3E3dnvrVK25ZLWHRv6YWxfWI4roPKUh2iA+DrZlAaMbRmbjnT2NkxTz6rEFjUF8xTI9th1oiYGtiMBy0pswjvrT+BfxJza7YO0yfZ1VmGBVO74+HuLUwU28wzCdwy0qugyTiGsp1fQn1lL8eempoYKtBlLraJMRK9Do8Mi8H0oTEI83Hh1oGxM1mmVGPFXxex+0wWTiUb77zfVPyaYnl7uQ7J3z1qIfLA9hCjjrDn/XAIv+6/BA2h7tbvveTuKEPXKB/0aROA+M4t4OdBX7zMm6hwpyXAoTOpSM5TQcdy+hY4dDELO0+kgpVS87UbGmfmbb3u2mif6L/B7lI8OLANPOypgEjgJNdjYJco+LvQPhl/FgntM6doq9Xj0Pl0XM2rBGFknA+WVX8cQ3oJ+e+3aLBCtViqrdrNjsXIXlGI8HMDQx8TtFXo3zEC4QHuRorjBPT7+vGvRI6ouJRdivW7L4Nh6EtyrUBv6kAIqLJ0fNdmiG3uR22H4OmiQLeWAQj0pIIY02j2MkOsUKCwrBpHLuUiq4SaYjH4ZddZXM5TgrBSTpinmrIWT4Sghb8LHuwbDWcZQXSIJ2d24WyEZjodRX6ZEocvZCGvTA3CSDgTkNV/nkR6if6mSGG1C9nYk96EURNABjVG9G6J1qGenEk0QwjCfB3RJy4MclLHd2ZCc8YW/WnPFXy08RQKylTGFuGdrxZlV5kGLzzcAzKGhUIqQ0yIKzpGB0Jac4niXfFdCuSXVGD1zvM4cLUSh85Ttx73RooMcsNT97fD0A7B8HC0fXnickEV+s3ZaPHJoXsC9WHbPtIL/TqEcZdlbl2SWsrHcPyzLKBiWRy5kIm9p9JApA5m0P5mORKbzku0n7PFLubVLMFP2xPByu2QUlCFn/65YILvtDqmhHoiZ1nc37kZOkX6c0KAu5MCnaN80dyPRre0wj5qppVSe4KVVCpx5HIu0guqOK2rrQcv4ey1Sug59xkGbUqLJnqWEsDH1R6TB7eGmx2DsAA3dIv2h4u9+a2w6GjySqtx9FIWcuj5Tu2qGCA5rxy/7kiEWupYQ9jdLHdaWgY1YOxuR3B/ryiE+3kY/GRpVRjQJRzhvq5m41YsOpd1VG4VAsvfQ4q9iyfAmUoVPD5C6sLm5z2X8cZ3Bzih35zJ190Br47rgId6hnHCtm1sDQSqnItQndsK/ZUd0GSc5YXXf/BhgLjMjxo0Mh/9dEb2Cke0twOeGRULqgFnLHVFCIudJ1Ox41weVv97paachW935lxkNlgXjdp2bsVE2Ntg3yzVpQqlGj/tPIeLOSpsSEjmhKomnQySIzxcHDCwbQC6RHqjZ2s/hPl7mLaf3AaaVs/iZHIO9iRmQC9RQEsI9p1KQVJOFXQ09KuNJme5HkN7tESgqx1YsHB3kGFguyC05F7TzbM2VFodjl3OwoHzudAzcih1LPYnpiEppxyMRG6dSJl88KfD1lRhSLdoRAV6GPy1ERZ+bnL0i22GMP/aYCAEfx+9isT0Mo6oqNIRrNhyHJA5WJxIqn0x9HJRoFfrIAT7OIFh9Zg0KAahXrUXFz6Dtk5e6rNxY8IlZJfoOHE9r6yKM5/ILFJyWsjXzaOs0506xASCVs080TXajxPq2zV3x8B2obBX3JC5ckoq8cuu86hm5ZxAnltajYTTGcguVRmiClr4HsIHGoOEYFi/Ef5OGNQlEnJ61SQ6tApxx9AukbCXmuc7r69fVBdq5NxfcfJalcU00erqg0LGILaZG7rEBENCCJwULIZ2bIGoEG8z7XAAlc/PZJTgk/XHuMdFq/jFqg9wC/2cPsdE+DnizYndMah9SCNxlEzwyeZjWLT5koVQuXO11BTu9n3NIpK7To1p98Xg1Yc6w93MEbbplrb3VCpOpJVwQUiUemD578cAub3FtIZuRZTl/FZ2b+WPiABXSIgOo7pHIjqYEhDW2b/4LhytXot1Oy8gs0QDSGRcFMmE81lIy6+EhJE2+FlH5zQi0A29WwfA1V6GNqGu6N8uFM4OhuBLQlKVWoMtB68glVoVSCTIKa7GwfMZyCqmVgYyWzoarw+PWz9aJQb3aIkoPxcwDAuqnBYX7oH+sS0sLssJwbmuMhYnsOQyBkse74QxPVvWtG/8h3cuvQSvrTqCk0n55hrvLfUEejlh9phYPNwn3Lac6HHaWCdR+O/nYFMPQsoK86FQovDHoJTZZhNY+E4Cw6oxbUhrPB4fi2aejpwDWWO5ZhpWee6qwzh8IRuXciprnDnakJTMFwwbyS+TMnhkSBjemtjTRnpknW7QC01WUTV2nM7Ev2dzsPNEeoN9F5YesauzAs+MbI/mHvaIC/dGsJezuXiZW7pOzd4+35KIFX+d50wBbiRjv3JLI1F//XRdONsxmDe+E6YOpBrC5kmpOcV47su/cOKaint8ufnUs4ggb55u31oLYeHhLMWLo+PwxH2ta37GYtJHf2PP+XywDUAE/wc7Vo/V8+9H/0ifmgialgDCtDqziisx9M3NKK4inGUoB1vNUWZza4EhiPB3xIbX4uHnTqP9Gbp6PLUAD721BWrW9rVOblvEN5HSOgyMC8V7j/VDqKt5H0TvtkL+OZ6E2d+fRFGlxrSFJLg01WJksWh6L4ztGWnWc4+ujQvphTiYVIgNCWk4k2IZWV3w0M1Q0MNZgZce7IBwLwf0jQ01Q43WqoLgm79OYf5PiZCYwb+OtXptVDsMMLpnBLqFuSG+Sxjn29ES6dmvduP3Y+nQGRtF1xKdqNmFGaLHh9N74OGekVzwAltM1Wo1ur34Cwoq9QDVwq4VfGzy6kbQzNseq2YPRnSw8Ii/9HwfMX8bckuprHdDSYc7223ugDesmv9MCwNOc3di3zC8/0gvXu59GnIdWpTAopP3wthYvDy6LRgjjRJqwcguqsD8VQn445QhqoPxtBc/OAM9nTD7gViM6xPBs4f82hGSW5mbBBSnoGz7PJCidN5VfFveD8vLh/MuZ2oBOu9jeoUjPi4AHcNvhM3lAAAgAElEQVT94OfuZPQEUq2r5VuP41haJf4+mQF9gx8cpqJhe+UDvexxbMlDNXNiqS/L9sZNe6QnBFdzK3AoKR+rd17G+bQig2f0BriMmxMh+uIp0VbimznD4aiQonurQDhQD9gWTJmFVfhoYyJ+PXDVgq1Yo2rChdx+engbs500Z1NyMGr+elRLvDhTpsaaqFPUp4a3xvxxnWqGQDBswXYkptiOKfeKufG4L8KLMxuzxXStsBJdZ21sHK+aDIGU6HB48cMI9qam/gYC60hKEcYs+MMW4eXVp16xzfDutO6I8hb+4s6rwZrMaw6k4rXvDkCjMy0IkZC2uTlkCJY+3hPjekdYRJbWssD5a0X482QqftqVhOIKaiTduBM1gR/VLQgTekWjV9sQyDnTXhvdZO4AdWGFCscu56JSrcPWY9ew42RmjSenxjo3BL5udtw6njSgJUK8nCyqjTR58U7sTLSdSOcLpnTElL5RcFTY5kNCtVqL8BlrG8niItDptPh74QjERfgJ7jM937vP/o2zeqD7bGNNlHt7uHcYFk/vadFvypz4WJTAok57zywbB19H/uz4mdRCjF64HWornIN+Ho54fXwnPNCjuQ0eTwTa3PMgxUkoWjeHU/szNg3NfgWFrHXD+3o7yzC+XzimDWmLAA9+EQbV/+/H4p21R/Db3isopvq6jZxUMHaerJ0vyMcZ+xaPvafMCG/HmDqPvJZfjqxyNV7/7iDS8iqsPQ1maY+++DwR3waD2/rCUSpBXFSA1ezZRQLrzlNoILB+QbXEs3ETWP/v7+jp+NaYJxJYgr9XkcASDJ3ZC/Zu1wzvPGJ9Aqtay6LN02uhVJsrYDw/aKgotWRGT4zvFW5RGbe0So30ggocvlKId9adgFbbMOPlh86tuSlW/Vt74dmRcWju64wgD6rB3LiIq9vHr9OzyC6pRl5xJTJLqrFyZxKOXqJ+hS37yGXKPNxeVi7RY3isL54e3ZUL0OLubHlHGLZJYEVzAWlsMTUuAgvQ6TT4e+FIxEX4CoaTI7DmbKLOK5sAgdWihsBqHPuCxQgsegj8/s4IdAql0RT4bf65xRUYNXcdMssNURmswWl6uCjwzmPdMaJTM9s0RWC10JWko3j/N9Ad/aneS1GlnS+Gpr4AldVU/gm6RHth6RN94eliBxceNsXUD82Xvx3H2r2pyK3QgW6CkkblslDw3tcgBWnE7SHtvbH8xWGN7kXR3IBRPz5ZxRVQaVk8MG8NipT2YKmHQ2K7GzglrbpEeePp4a05e34fVwe40FBijNSq4ihvAos7Bmoj7Bn4aaqdRBiqlUA9vErAOezjArdQL0z0z4bIP9zPaRZCXYFyBWEItsVcV6CrVaTj/whGNbA64Onhbc32PQgisLhLkmHM12GivkQYBlI9A5ZhOT8S1Mm3IQvF5mabNEM5CizFlnobpH5IDDgL+3LMoYHFvUpSZ76cvyfaD+pQu2bOuQ6zN3zpc39t6P+d+1w7GINcsXxuPIbavAbWhpsc2xs5F4xh5dcGI7gOFcWGw08GhrBgaT6Kr8TgJp5zjctBZHCgzJk1GKv4wxDO1wrVwAqpQwOL11qqiaZJ579WeYWuR+4T57zIcivUELH0uq0FXRuGvbd2HNyorq9nappSa6Zh+PbrTBSfOvZwqoH1zrQeiPa2vgbD5fwK9Htpc93drTU3qZm76yEQGOpfjH7XtRHQagZ8XRmoJjYa9/91j5n74hhSQ2BZRgPr9kEpNTpklypRptTi/pfXgtg72fSZath6Wbw2uSuGtAnkHLR7udnbRDRLI3cLo7NR35VFFSpUqbSo1DN4fsk2XM7VAtK7fE9G127+jAo5g/g2vnhpQne4Osrg7WowbbZ0op8UJbB2GauBVXvO0RONW1C1j/A1PgIltee1oee1e+kd99TbLANovrcmN1ENLLrhUVmlli3g5D6Ko4SLniyp8bNIKIY1ZwW1OuBwpJEBuAPDIDPykXUMBJapGlgV6D5nMzehVEYz9O/OiTvLasZqEF4NppZ0nJzvOIOoS/kwSFnD7xIiuYkco3Idy8l2N4LYGMgz+vecT+8asZAPFgYNLJHAMiwq6JG0YopRUW1un+p0ymjOopEz+BFfpm5olNVe8Fg3jO3SDA42amNMdCpoSjKQveZ52OWeqhshhsWEvJeQpPMFYwVnyt6e9lj32jA087CHox0/wfBiegE+2pyI3afzoKV66GKyCgLtW7hjy8JhkILffFmlcw3USEW1GnoWSCqqwIhX1oCx86iXKLZGV+mhptdr0a6ZOz54YgDCfRwgl0phL5dCyl0EGyZlFFXhw42n8Mvei4BOCQ87gpYhfogK9UOnuAiEBXghxFPGrTAqWtCL681R/64TUbc9UtQ+eNRlsFF7X+UuvSzh/OoZgsbTE7v2ciuFnobrZgAa/CuzoAw5RRW4cDkbyTmFuJx0DaVaFtV6O0Aih0SqwLwJnfD08NoouabjeSYlByPmrYOSOIPo1XBX6NG2RSDaRAWidWQwYpr7wdtZAmrIJKNcHNFzLiM4oqdmV6e/U+HlhleFGsH3pu7dPvu3UDtcUCMWEolBQKI4UYVm+qu4So/sIvoiX4qk1BykZ5fh3KVkFKuBSo0EOokMUpk9h8/T8TFYMI6GJjdM1LAFf+DE5XQ4SPWIDnBFzw5R6N0lAq2CXK+Px8C81JKNBhKGvvbXy6Nxl3WWcxDPOX2FHnpIUaHW4XRaES6lFeDwyWScT8lGuU4OInfE8rdGYli4l83uZOmFZegy+3ewOjUYnQo0+GWojyuiQv0RGxOK0AB3tGrmwWlQUjNI+rZu8BZZA/l1f1n/fQrkhNs6lqvh+2A5soeT82vIXvqbFkCJWo8LKYW4lJKLo2eu4lxqLsq0lEB2hEwqx5GlDyDE25mrmZY5lFKEB+ZuA6tXwY5RIdDdDtHN/dG5bThaBHmiVQsvuMgk1+eAW5c1lxDujzVk3K1MJSWwar9ew9de125285q+df0QsLQNjhxluO+d6vtcK6xGTpkaxxKTcSE5E5dSC5Gr1EEhc0LvuEi8+0gPRPk0zLkXOPkrsHoJIn0UGDuoIwZ1jkCAqxwyGrOVu4hJuT3NaIWfWrK7Zg9VEgZXC1RIupaPvYcv4tiFFJSopWAljlj6VB+Mt5AJ4Z12TNq98moVqvU6/H4kE/O/3wuJnL9Fhuk78h17iH7tAvG/BzogzNeFk18VFja9t9xY+NdMvycaZIKeE3pI8O7PB/DjnhTIZIoGdbhNg1totRrs+Ww8AhyksJcxcLCzrtkv3fkmLNqFHcdT4CxVo7mXPXp2jEG/zpGI+X9ZjOp/ybn3Nvrd0nPr1gBVdZ11N+9v3FtNbdRZek5Tv9qMFOU6FhdTC5F0rRAHzyTjTFIWijVSSGSOeHtaN0zmTAhtUwOrUq1GxBO/gOjUYHVKuMpZBHu5IqKZL9rHhKJ5gBeiQz3gaieFHfdQSWqeMehxYSBfauWMm5VXagmd+p6VDYEDDEIT/RP1OkjxPJ9ciItpeTh5IR1nrmQY9kTGjsvzz9umaWBRviLuxQ2cr2p7aBAZ4In2LYPRtmUg2kcFwNdZAXvunOZOZcPJzkXFldQ81tYtw9/NYPnmtXUzTlQm5gSCWlKvJgoilRMoFjRwTE6JEonnUpCaV46jpy+jXMVCSRwgUdhjQp9ILHm8x71tQkgJxT2LxiLC25m3RkC1Rofhr6zGlcKGc1I3MNYDnzw+AL7Ud5ONJvoZVKQcRuGGOXAsTwOhN7aaa8KK8j74sXIglKxlVWxlMik6BOuwccFk7pJkELrqv1DTntJXoH8Ss/DEkl2GF9War7D+0jY6IY2sW21aeGHTgmFwopdbMdWJAD1Q95xOx4KfDiK1mF77JZwGED0bLOHWiEYGoZcX7tLI6CHRVmP+oz0wvX87jgyg+yrVTDTmG7PGlNZGGap9CbNGm5ZqgxIlhuuz+D38F+PbxSVLzULTrZd7LTWalWh4HAy0kpiaEgINvQYNEqrh14Z957Fo0xlkl+rASCWUwYeepVoFlkGcPvRQDUUQKSRSBkPbOmHp8yPBXWGva3tS4pB24N5e+QbdWBap+RX46Ndj2H40E4RqwFDtEJaAZWsu4WaaKrot0vkh9LKtV+GtR/tgYq9msJPLIDXiPmGmbpivmrsxDya20tDfsIndb7LFm5Qs3IhkFYuYEDrYSbDng9EIrnnB47Nqq9Q6RM5Yc0PFjk9hM+aVasqx59MpCPN3M2Ot5q+K7pVl5/9B1e6lYIrTcLQ6DO8U3IccjeX67eFiDxAVji4dD3s7Ba/jvqxKhUvZJXhg7iYQhatlmADzw9z0aiQ6DGrniVUvj256Y7PAiGrp4TPpJfjgh39wqYi+ttGwwLVag1TkI9DqWOh0ek4zgAp6nHN1qn0gAeQyGSeoSWsuspyFDfcKx0IOJeJ7RGD60A4IdHfk9U1ZYLhilSICIgIiAiICIgIWR4CelQVaBh+v/Bd/ncqETOFcY/xqOFup7ibNQ/046fX0bKUKBtRcpuZ8lTCQSSWQy6Q1Z6uBBeMIKxawI+V4fmJ/jO0aBvuaByIDx2BBpsHiqFm/AarBsf9iNj5dswcZZdRkSXaTfxeDMTCNUUDnSE/n6qY5onKPXC7j5qlWD5czedKr0SXCBy880AWtQzxqtI3FZ2zrz67YoohA40PAIgTWc6Pb4Nn4NnC256/ymXAlBw+9849BLdxCrzHGTpNEQvDPOyMRGexhsxGOro+FAMkXT2DpX5k4nc8gPbecO/DNmZwd5fBxd8Tnz/VF20A3yHiYL+lYgitZpXj35wTsPVcIIpGZ7J/FnGO71+qidtYD2gfhx1kDOdVlMfFHgPMvxEnK9AGZQYmWxeWMIqSl56KkQoOyCjVkMgncXR3g5CBBTERz+Hk4wc9JAhl9yQRVG6/RqKpRQry5F6IWBP85EUuICIgIiAiICDReBDiptcb8lMopGjAoUbFIyypBem4+Kqq1KC1ToVqjhoOdHXzc7RHo64GYsCDubJVyj0oGky76zCQmyyFAA3XRpzuGkaFKR5BRosa17ALkFZWhqFSJymolnJ0d4eVqh1YRzRAW4ApPOTX7pRrPEs7HUV0m8uKsWW7OxJpFBJoKAhYhsLa9NRQdwoR59Q+csBSMzNNm8FUoJPj82QFo7i5FmxbCQ21ab0AEWeUaLPzxKEoqVdh/5hokUurvQfiRIAGLFv7OGNkjHJP6RsGfRhc00hyCXvATrxYgvVSFWV/ugUpXv5M762F1b7fUPtwLHz/eDTHB1o1UeW+jLo5eREBEQERAREBEQERAREBEQERAREBEQERACAJmJ7C83BRY+/IQtA7lT0JRc5ygaavAkIbzf1UXiBKGoFWAHeY/2h/do30bhYMzas5EVa+fWbINrMwJ564V41peFc81QhDi44TukZ4Y3b0Z+sS2MChe10QEqq+yE5dzkFZYiY82JCKjsJp3NMr66hd/bhoC9BVsXK9QLHpygEkEp2m9EEuLCIgIiAiICIgIiAiICIgIiAiICIgIiAiICNSPgFkJLGrT/MTQlnh+RDt4uvCPNKIHi9DJq2vCJNffeWvniAxyw8xh0ega6YOwQErQCddqsl7fCZQaPf45dQ0nrhThSlYxDpzLBgvZXSNCeboqMKpbC8SFeWJMz0geIyW4klmEY0kF+HnXJSSmlQDUVl5MNonAQ73DsPiJHjXOwW2yi2KnRAREBEQERAREBEQERAREBEQERAREBEQERARolHhCaBjI7rM2mQwHJbBWzR6AQbHBRpuY3dxoiQ5oO+1HLtqWbSYCN0cpurf0w4z4WHSN8uVB7DT8iKg538X0Auw6lQE1kWH70au4mF52I3QpDekuk+Lx4W3QwtceE/tG83ImXVypxN6zWdhyIBkJF/NRrbkeXLDhBy/2oE4EYkJc8cb4DujXrpmIkIiAiICIgIiAiICIgIiAiICIgIiAiICIgIiAzSJgVgKLsjmUwBrYPlgQsZNcpkffZ9bQsFw2C1htxzpE+CCuuTOmDIhBZEjj8iFE0dUT4NCFTKTlVqCalWDJrwcxrHtLdAnzxqgeEXCQG4LK158ItHoWJ9NLsfLPMziVXIiM/GpBBGb9bYk5zI0AAx2eHN4Kb4zvJs6ZucEV6xMREBEQERAREBEQERAREBEQERAREBEQETAbAmYlsCjh8cOcgRjUPkhQB3NULDrN+NkQQaQRJBmjR/sIPzw3pj16xfjBXmpbvruMhVDDAvvPpqFlqC+CPKjpp3HUFZ2mfJUWry7bj6wSJc5eLbxe1sgajO2imM9iCBA8Mbw15o7vJEYjtBjGYsUiAiICIgIiAiICIgIiAiICIgIiAiICIgKmImBWAouaEP5ICazYYEH9UhEgfOrqRkNg0UFSqq25nwt8XRX48dX74CKXNnlNFpaw0DMSTP7ob5QrWZy9mgdiu3afgtbivVQo2EOGN8d3xIge0ffSsMWxigiICIgIiAiICIgIiAiICIgIiAiICIgINCIEzEpgUTqHEljUhFBIYvU6BE/7uZESQAQt/N3gqGCx/d2xaKpuy7UgeObzPbiQUYbU3DJwIQnF1KgRYEDwxvg4PBnfRowU2ahnUuy8iICIgIiAiICIgIiAiICIgIiAiICIQNNFwKwEFuUyfpxjcOIuJBFC4D/hG8jkTkKK20QZSue4OskRE+KMtW+MgNwmemWuThhMO0urtdCzBD/sOIuP1x+DVOEIQqmPxmH5aS4wmlQ9r43viKfiW6NxGsE2qakQByMiICIgIiAiICIgIiAiICIgIiAiICIgIlAHAmYnsL6c1R8jOoQI1kAqUevQenpj1cK6FWFqajemVxiWPNEbcgaQME1XW0nPAqfSC7Dg+31ITCsFwyg4T1qE0F+kkXg1u3f3CAdGhU9m9Mbo3q3uXRDEkYsIiAiICIgIiAiICIgIiAiICIgIiAiICNgsAmYlsOgoZboybHn7QcRGBAgatFKjQ8dZa1FW3oTUeQgwblBLzBzaCj5OMrg62kEmlQjCpzEUYildRQCWYXD0Sg4+X3MAlws0YKk+GiFgJQyInqBKpYFaqzfeaXxjGHwj7SMlGxc90RMP9w431oV/Ix2p2G0RAREBEQERAREBEQERAREBEQERAREBEYHGiIDZCSwGDJY91w1DOoZBJjAqX05JNca++zfS8yoaI6Z37DPDSNDcC3hzck8083VDWKAH7KRNVyvrViAoIWkYqw5AZmk1Vm07gYNnM6FmHCChOLA0B8O51dLogYoqJcorlNDoaVkJ0IQ12Gxhoc95sB1m3BcDF3uFLXRH7IOIgIiAiICIgIiAiICIgIiAiICIgIiAiICIwHUEzE5g0ZqD3SXY/NYYBHoK82VF6YqLOWV49ot9uJxe0iSniyVaLHl2CIJdpXCQAnHRgfe05gudc2pqSDkqHRjkVupx5Ewy9h67hJxSHRiZIxiJ1OAzntol3oQWwxAQQl2RA1SfS6MjUCrVqFRpkVNUDZZtQtp8FvwaFIwKK+cMRr/YFhZsRaxaREBEQERAREBEQERAREBEQERAREBEQERARIA/AhYhsCgR8da0rnh0YBRkEuGmcmfSivHqygNIvFoIhmma7qUpH+PjqMPcx/pDRvQI8XZGuwh/qm90TxNaty/lWymrW39Kf8bWkFenM4px9FIhCgrLkVpQgb2ns6Gl6lxiqhcBiuOqOQMwWGAU0XobEDOICIgIiAiICIgIiAiICIgIiAiICIgIiAiICAhEwCIEFtcXhmDuxE6YObS1CUQMwckrudh44CqOJZfi/LVigcNsJMWIFh1aeOL+3i0hIyxaN/dCbAsvOMhlYETzuVsmkZKkeobBmSu5OJ9RBq2OBWEY7Dp9DbtPZIKRNa34j9ZawY8MCsPsMXHwcnW0VpNiOyICIgIiAiICIgIiAiICIgIiAiICIgIiAiIC9SJgOQKLWnpJGLw0JhbPj24nOCohHQHVDNl3LhsnruRj++HLuJRbDcI2TY2s2hljWT3aR/qgW5QfHOxkkLJKTB7eBT5OUkhMoATrXRE2k8Ggc3XD+I+gpFKNhLPpuJxZBkhknKnh0QuZSEwp4cwGxWQ6AgqpBr/PH4l2LXxNr0ysQURAREBEQERAREBEQERAREBEQERAREBEQETATAhYlMCifZRKGUzoF4FwbymeiO8EMMJNCgkIEs6kIbVQRdkx7D6Tjr+Pp4ORKmr8IpkJFWqSRm37WBZSogKRNKw2Co3qN7KzD95+fCC8HRSQNHFtLEpFKfUE2xIu49jlXEgUDpyRYEW1FonJubiWV8kRWGIyPwKEIdi2IB5xYd7mr1ysUURAREBEQERAREBEQERAREBEQERAREBEQERAIAIWJ7AM/SLwdJKgf/sQDI71x4juLQV2t7Y2g3+o5OwSXMos4fxjUXJLCwY5pUocPZuO05ezkFeugh5SSCRSgw8tanZGY+Dp9Zxuj4sdQZC3K1pHBKNdZAD8XO2g0gPfbz2Ei5lKgJGB6DUgjIJzHs5YUcmHc2qu1+GpUbHoEOaN1qFuaO7rCkm9BGCt5hL1+yS9SVfrbl6kTJqOegvTuaHRBW9PlJgrrdZh/5k07Dt9DeVqSm4aCE4tYXAhNR8Z+eVgpHKuNOe/vd7WxAymInBfW08semoAPFwalrg1dRxieREBEQERAREBEQERAREBEQERAREBEQERgaaDgJUILANgUgkQ4OGAIG8nxPcIx8M9I+FiJ1wj69ZpIGDBQKnRo7C0CiXl1dyfOeqEaizRX4T+ywKEUieAUqvnTNL2n86EwtEVDgoZ9ARIzixAWZWO0xbjAt5ZNRG42LOYPCAa/du3QHSIB7yc7Wron/+SQLd3reL/fUHNX3UQ13IrOJ9QlPaR6irRIdwH8X3aIDrYE3YUjjrHZDrJZYDL8F86H5U64OyVbPx75DLOpRVCJ3OBTCoDWB3neF2rJ8grqUJ+cSU0LKW56h+jVafjHmxMBj0OLHkQwd4u9+DoxSGLCIgIiAiICIgIiAiICIgIiAiICIgIiAjYIgJWJbBuAEDg7mwPLxd7SCQMvOxUWPjUMET7OUFGNXDMwGFQrR+Wo1AkUIPBX4cvY8Xmg6iEOyRcGwx0LEFZlQolFSqwVMWKUi9W1rS6jgkDtA73wLxJ3eDvJIePqz1cnew4MshA6twZFDrOTfvO46fdqShSAln55VBrKT1Uk4gezg4KuLs4wF5xQyurliyidB7VLiNEB72e6qxpwLAsZBICqYxALqH+xljoWBZ6PQMdw4CwDLTEDhLqYF4iN/CDLKnxz0XRN/SYEoLVKi3KK5UGQpGhPryoiSbhyEFrarXZ4gdoq31KWDIGLUQCy1anR+yXiICIgIiAiICIgIiAiICIgIiAiICIwD2HQAMRWLfiLGEIXBztIJUYtLE4LSm9Fgq2CpHBHoiLCUXLMH8E+PvC1ckBYAnUGh2y8/KRm1+CxKQcXEqhJoN66Ki/KpkdJIQSODccgau1OlSrNKAUiy0lSj7FBUixau5DkEslcHGQG+XjikbhUxMW6xLSsGjdMY6wqlbrzKAxxqmpGbC7rql1w3jvhkIaYyCgmrg/LltaK9bsS5QPwZ8fTIK9QvQ1Zk3cxbZEBEQERAREBEQE/o+9qwCs4tiiZ5/kxYUkSEgghBAguKa4BClSCrRo0eJatIZLHa1QihSHoC1OS3CCW3BLggSLEU+e7u+dfZ6X5KX2S7vzf1tIVmbPzNy5c+bcOyICIgIiAiICIgIiAiICthH4RxBYf6RxDAQKETqGwugWjjRDgsLnTxB0/ZEqWtxL9aI8Vjpeg18W9EBVHyehfnZG79FnxienoePHG5GY40gBgsaz+kirJRYRgT8DAU7C4+6yd+CoYJpIsYgIiAiICIgIiAiICIgIiAiICIgIiAiICIgI/F8ReOUJrP8rena/nIezQg4nRzmqBzhjbv9GKFvSw658TzoeSM9SQq3RYevpe/hs0xUWlkekwt+ensvu7xUvfPUR4HFqYReU9XF/9T9F/AIRAREBEQERAREBEQERAREBEQERAREBEYFXHgGRwPoLm9BJIYVfMVfIoMSgdlXQs3kopCzkziC3Io1YXn0L/TYpLQtJGTlIU0sw8btIPHiRDnBCMneD2uz/lq/rL8RMfPQ/B4FS7mpc+G7QP6dCYk1EBEQERAREBEQERAREBEQERAREBEQERAT+swiIBNaf3PTET4X4e8HLRY7KZT0w8a168HKUFRrHSGnP0zKVuPM4GWpeig2RV7Hr7EPwEsMJhH9yRcXHiQgUgoCO0+Lp2oFiYKrYU0QERAREBEQERAREBEQERAREBEQERAREBP7vCIgE1p/QBJR0vry/ByqW8oRcJsWwDlVQPcATEnZ6n6EYAv7M8lTxPFQ8j8PnY6DkJLj1MBnLdl1BLq9gpySKGa3+hMYRH/GHENj0fjM0rVb2Dz1DvFlEQERAREBEQERAREBEQERAREBEQERAREBE4I8iIBJYvxNBoqOCSrmjVpAPnB0laFGjNMJrBEBGxFO+J/MJJJaG57DzxC1kqHTI0XD4at1x5EqItJKAo7hAsYgI/EMQCPSWIGpRn39IbcRqiAiICIgIiAiICIgIiAiICIgIiAiICIgI/FcREAmsIrW8DmVLuKFFzTLwdJYjtIwXGoWWgoeTnJFWBR0k+DJbhUOXH+DRi0xoIMHqfZfxUslBos+BJeazKlJDiBf/TQg4K6S4u6wXOIl4FuHfBLn4GhEBEQERAREBEQERAREBEQERAREBEQERARsIiARWPt2C53imhtKBh6+TBqO6N4ICOvh5uyKskkBaFVQop9WjhHT8FHUPiRlapOeocfrmUzxLyYaQEEtUWokj8p+PgEwmwdxeVdGnTU2xx/7zm0usoYiAiICIgIiAiICIgIiAiICIgIiAiMC/FgGRwMrTtDx0PPBaJS/0bVHo+AoAACAASURBVFkFEqkEbnIdmtUuD1kB3YCdDMgB5+4l4oc9l+Egd0RKZjaiY5OQmcsLBw+KRUTgFUOAaNZKAW44+EnnAkJjX7GPEqsrIiAiICIgIiAiICIgIiAiICIgIiAiICLwyiHw3yawOB68PueUQqLEkA7V0bhqGVDq9eIejijv58kW7ba0UoyP4nk8fJmDhZtP4EkqKbYkSMjIxt1HLxnxxYqY0+qVGxRihS0RKO3jinMLOrMcbWIRERAREBEQERAREBEQERAREBEQERAREBEQEfh/IPDfJLAYKaVBWAVPTOzVFB4KsOTrJYu5wN1ZYZuw4nnwHIeHSRlYuf8yjl9/AalUAbVKi/jkDKg0YlBgkTswR+c3QsgCJhJ9RYbv77rBWSHBkNaBmNy9kajC+rtAF98jIiAiICIgIiAiICIgIiAiICIgIiAiICJggcC/ksAyROsx5RT9i9dBK9Ghpp8jln3YFY4MAh4KGQdXZ0dI9BIrS6UVZb+S4MrTbIz7ciNealwh4aTQanlk5qqgUmvFPFa/YzBJFVJ8M7IJGpT3BTusUd9YCdkazN14GseuPAWlthfLPwcBaqY6wcWwc0bHf06lxJqICIgIiAiICIgIiAiICIgIiAiICIgIiAj8pxD4VxFYjAvhKN+UDo4SFYZ1rod321SDt5MUxJaw1OmMNbEslHBdCw5Hrj3ApysP424SD14qhYSyXpHyivJbieUPI+DvrsSpbwdBwknyVblpALw5fReiH6SKBOEfRvzPe0DNIG/smdkOnBhG+OeBKj5JREBEQERAREBEQERAREBEQERAREBEQETAbgReWQKL9FHgtNBqAVdOhTcaBmJc72bwlHJmsXwcI58o9E8CId9VNs9jV9RdrN51Bo9SdeBkzozzYtyXGbdFEW10BiH4v1cNpJBL4eJI6eJ5ZORooNLo/hWnv5VyVeP44v5QyGV4mpSB7/ZdxeoDNwFOBjmyMa5bXfRtVRPujnIoZBKkqHVoO2kHnqVkirmX7B7Of92Fro4S9G8ViI97NP7rXiI+WURAREBEQERAREBEQERAREBEQERAREBEQEQgHwReWQJLo8kCpyXdlAZyiRCJptICUokjdBI5JBI5ICWSiwNHJBaEJOvghNBAA2n1T+sZ3RqXx4KhlGsIGPP9UWyPimOhi69ykcuAk191hb+PKy7HJaL99L2QcBy1iEU7cByPiT3qoXV1P1T0c4dUIkHLCSuRDU88Scp6lSH4F9SdR3jN0lgzIVzMg/UvaE3xE0QERAREBEQERAREBEQERAREBEQERAReNQReWQKrSECzsEKSVOn/W6Sb/96LuzUpjwVDGjEV2djvj2B71INXmsDiOR7Nq3rjmxHh8HR1hH+/leA4hwIJRJ2Ex9KRTVG+uBNCA0vg9osMjPv2GG48fPn3Nob4NgsEXqtYHN+NbISSxdxEZEQERAREBEQERAREBEQERAREBEQERAREBEQE/lYE/hsE1t8K6R97WcPKJTGwdUVGYK04cANnbie88nmHNs/sgIblvZGQpUKtkRGQ0NGDdpRAbwmm9WuC1rUC8PBFJsYvP4kLdxPF3Fh2YPdXXOLmJMHQNhUw4e2wv+Lx4jNFBEQERAREBEQERAREBEQERAREBEQERAREBPJFQCSw/oGdg0LpqFDOrn9DWTapFdpWK4X7SdloOWl7kcI35Q4cPh/QEM1qlMLtuEQMXXQY2ZpXO6Ty1W1THqQQXEghrv+KzGyvbkuINRcREBEQERAREBEQERAREBEQERAREBH4ryEgElj/tRb/P3xvs+ol8M3wplA4OyFk4NoiEVhUXSdHGTo3KAtHXTZ+ufgYTzMpyb1Y/h8INKjsizl96qJyGd//x+vFd4oIiAiICIgIiAiICIgIiAiICIgIiAiICPxHERAJrP9ow/+dn81rlTizqAf8i7sjoO9qAEU/2ZFOhFRI1JDK5MhSFf3+v/N7/83vcnGSYmynahjdsfo/6jNJs8gOagAdDiAc6iD0EjpJlM5y+Of2GeGICYoa/ufr2tiprvQ/TsI0eAxtntcn9v/nKUZZtDKvfaXzCP6jBppYmb8AATohWTgGmf5DfZY0xsLf/nlj6i8A4E96JA+dGY7M4vNacK/AITiGGcA4d7HTs//AnMDr2P06dv62MBeyY3P0+PxJgP+rHsOw5+nUb46dXG7AjddpIZHQOPzn+hDWDcFDx9qeDrCiA5PE8u9CwDBP0FcJfpjQb4XyX2xvgxct2Dv6R/pPnj95Gp+CnRHaj01W+tb7c9pPH8elx8P0HrJswkrp1S+vLoGlT8hOEw4kQkgZR38uwO0zz+PObtd3HKGhhU5k/JlZzneLHPBWbc7uyedaw6V/1vN/T3ez9c3mzymo/rbwKUodzN3vHo1K4fPBLbH80B18suEim1hNQ9b01PzqI7SvcJ0BT2ObFdBWhjb9K9r3P7m84IBh7atgWo/a/4jTCB8kpGJ7VAzuPcsUHE/9OQ1G55OMNa+Fj5sj+rWqjEp+Xsb+sybyBs7ceAJAA4WUg4OMg0QiGAatFshR66AhJ1AiR9fGIWhVqwy+230F12MTwOmUcFY4QC6lRQEHtY5HjkYLlY6DVCJHk5pB6Fg/EJ6OhYe7/nL5EbafikW/8IpoVKlkoVMLfdv2qPuIvPSILdB0Wi1knAqODg5wkAI6nQ7ZGh2UdCorZOx7HWQ8wkJL4/V6FeDt5mTX5GUc/7wO+y/GYc/5eGh5gSK0cJfISdYp0adVZbxWOcCmm0/4nL37AhsO3oKOFle0sCQnW0d1B2R0QCxbH3DQanloWEPS/zmBfJTQBTL254+610XZ4oUfJEDnzX677wZuxzzFnP5N4O3uVKj5UvLAvK0X8PDFS0CrAaCFs1wKBxm1owZqNRiuhoUh1dDbVYbhbzVBgIfid42J5PQcfLTqpN4J1UEm4eEok4CtmcAjV61j/QqcA2QOUnw7vIXxO1Jz1NhzNg4noh9AAhVc5BJIpFJotDpkqjSQyZxRt5I/zt54CCmvgbOjBFKOg1qjQ66Gh5aTY2KPMFQo4W6zT0Tdeoa1v94ABxWcZBI4yGiRJ0GOWgOVTgIHBydMfScM09ecAqdTs1OBHWVSyKlRCTGNBtlqctZkkEgcUMKdx7MMWllr2Hwtl/BwcpAwZ1OlA3LVhLjQzotHNIeDXMrq9SAhHZ9vPgdOR88H5FIOShpvWgl4iRxaTgdOx4Gn50IDB46DQiaBVKYnWmlBqiOCQweNloea56HWUV+WsY6n4zhUDfTB6DdqsPGy/WQMIi89AMdr2DMVMkAhlUIm09sGlQZqRjMJRyC7OHDo1KwqXqvsB0c717n0nttPX2LD4XtITM81tqlh3NEcKZdq8Xptf7SrH8Jw+Hb3VVyPeyGQsrwWzg508jKNESmUai2UOh5aqpfEAQNaheLCzTjceEIn+JJt1IDXEplLo4pnp/yyhQ9hQzaPF/Dh9fjTulcCB9DhzQHF3fBG/XL4ds9VcFqyimo4yjjIZBIQqZ2r1EHFc+AlMvh4umFu3wb6/ivM19tP3sevF+NYH3WWk42UIEulBg9HeHq64tO+DdjJy0Urgh06ejkO20/HQaOn/SyfwcNBzqFtNT90fC3Y5uO1v43yaWtPIzk1m/Vhsk0OUuo/gFQqUD8EEGFEHqZaq4Oa9SFyPWXM/vNSGaqW9caYjjXs/gRaRsQ8TcH2U3GITczWn5YtLC9oGcbR3AOgqp8DhncO0/8t/8cTGg9T1fhs3SlIpVLoGAlGddcvcjmBJqN/VfZzxrBOdaBgfYfDwxdp+CziFHScFLxWDQcOcHaQMrNLJUelQw652pwcXp4uGNyuKr7ack4YDPpxTHOoVEpjim4SCDTqGyqyM9QvefoqvaH/bXx7ucrwbttqCPYrhqlrTiIxJQMKmQ4uCjl0Oh7ZKjVUWik4CYe3GoegTZ2gPB+v1mgxb/NJPEhRQqrTwNmBg0zCQaXlka0mRGRwk2swtW8LeLnZsv88yMrvOHkHR6KfsL7Pxoq+LwommC012dzatFoJdG4UynoalTvxSVh7+A6SUrOEuQwqOMocGA4yWpwK8LO20OgArU6HXC3Nf1Jmd6j/eLq7YE7fMMiLPgBsdgY23k5cxaEbaZjVpx6Kuzra0Sd5jF5yAhp1NmQSHVwcJIwMJpuSq5WAkzqgf6vKaFjZL8+zmB17no7Fm89AwqnhJBe+XU3fqpZABwdotErIyHhSz+bJ9qvh5CCFg1Sut8nkr+ig5aUMewkng47me8OspFOjpIcUbzeviqplfe3yX/J+NI/v9t7A1dgXrF8KLUODWg2qJbOHHCeMG+ajUC+meVfKfs5J2FXwcXPG7P4NcP1BMpbsuizYYpq1JICDhPofz66lccDGAPV9HY9cjRZatp8qY2tW2gQM8HHG0NeroYSXSwFtJNi5TZFXcepOMjQ2CHm2nmL2Wo3wGv7o1LAS5Po+rP6t/01fcxLJqVmQSjRwlkqM8zP5Wrkawb/gJA4o7e2CIe2qY/neaDxJzmB2TyHVQUHzMEeWUgIl+ZYawkYKXiJl79HqaE7Qwo2MJs3lbPzRUJKjTZ2y6Now2KZvlKXWYvz3hyHRaeDkADgwu6VDNs2vPPnejvioex0ElvCw0e8EXA5cjMXO07GQShz0VJ6BCKJbdHBxVGB4h1AEl3DT2ybLR117kIi1kTeQnq0Cp6XxK4GDnGwY9QOOtZtKS+DSXCjFx93rItAO/9O6wtSnUtQ8PloaCQnnCJ4cPDM7Y+iTfVpVRViwN5uDilrIwt9JzMbCiNOARM42xfQm34wo0/9Ex6O4swZj3wlHMYVgtQXEgG1R93Do4kNAp4KDRMfGKtlAjZZDtpb8BPLJZWhQpTQGtKxsrGZKtgpf77yEZy9SIZNo4e4oY3NlhkoDjnNEg8ql0L91laJ+Vr7Xv5IEFhkTtTYbayd3gBM5ymQsWJ/V4eTVeCzdd41cWIuPfrOBP1wcySBaElfWXcSctLF1rTlpUdC19HIlL4Faw8NNrie5zLqSNfkh/N3yp9Y8acTxh9DSLFiE8k54kGlXSX+f4T0mYk14k1BMKhbrv5+5lYjYZ5l2vz2ssg+CSrmyJztKdZjauwkzlp9sOm1Uytj9MPMLzVkpKwJRzz8IX2KwD2aMlzWhZ3hsvtca+ouNZzxJzsbR6Be/6xNe5ZsaVvLG1F51UCOo5P/tMx4mvMQXEWcRl6JG3IsMpGdpGK0ieIvkIPHQyR2Z80nFUS5BhdJe8HR2wBthZdG3RQg+23ACKw/eRoYGkHNS/UJQaHDyBzQ6HXPifFykmNarPro1r4LRX+/DrgtPmSMikxpIBnJQhQWgVv/+0Z1qYVznOnArhMCi2i3Zdw2fbL6IST3CMLRVCNzIUy6kfLfzPBb9fA0ZKjIcAp0ilUjZopFGs7BgIJsi7EhJJTyKe7rA39cTlUrK8XHPhvk49KYX01L4xI0n2Hg4FlceJONREo19ckDV8JRrkZaphE7hxiZJTqdFBX8vlHCV4LMBjRFcupjFF5DTs+VMLN7/IUrvGOidR6beIoeVkBCmUMFx1O8wMAdSsE2Cio7D/lkdUDPIpzCI8N1Pp7Hkl/t4ma3B2XlvIaC4e6H3qHjgrembcfFhpuDb8jxkEmpnqoPg1FI7E4ljKAo5ULlcKTg5yBDxQWu2+CtKIQJrxDeROH79KTiZnNlLcoYNhdqS0CLiJbSUA47O72f8XXqOGgt/Oo+le64CUpl+0SQQEiqNFk4yDab2aYTpyw8Bju6QSYVlMS2kqA9Tz6lZ3gerx4ejpKdznmofiX6IKT8eQ2xSNmRSB5BPRTOERqeBjucQ5OOAzdO74o1p2/EijcgQ2vGn9hQeRU6ZhtWfhzOnwtD2VbBy/03k8C7QMGUc4SsoTQhrLSPqOHjINbj0/UA4KoQ5+/qDBLw1czvS1DKhPSQcW+SSI+XnwaFmpdLYf+oWtBIXttNB7hbjPPU7nMJKktpNUOkIi0qqob7PcRxz/NdNDGfv/zLiFL7dexMa1s469t0CUSRgSwShMGcKs6lcwqFsKS+U8HTBrAFhqFLKNiFonG94Lb7bfxM7zzzE/adpyFVpoeN4FHdUIyldCd7BAxxP5K4Ofl4O+Kh7PXRuGIKZa49h/eG7yNQImNFinT6N/szGPNVWq0ZwCXd89m5TkJ04eisFHG3ykS3UL3SYGof1aTPVKlNXspGm14PqxxzHoXo5b0ztVgODF0ciNUfY8Wftph+btBASLC2HAE8OZ74ZYKH8+DziJL7bexNqyCAnAk2/wKXqhPjKcXxh/6IMGXbtxXtP8dmWC3iWpkbc8wy2IOQ1OfB2liI1Ww1e6sy+jjio0sWc0bByCfQLr4BaVvMWYRY+YTXuJgr9g76Exju5lqz/sDYXkGH9hvU7vY1iSlRhJ71VDX+sn9jKru+g51y8n4hpa88gluYvxtxq4OUkQWaOEmoJkeGMLYaPC4d3mgbig15NbD6b6hafpsTHK6KQmKPGlXvPIWFEEc8Wz9AomW2ghTjr7jwHT2cZKgf6wknhiA3jm+JxYho+WHYQR68/Z7hR/zD0LXop2R4tNDTVICzEC3MGtkDvT3YiOZsDDVkioCVEyFjZPiNeervO+hbrMxw8FCosf68tmlQri7dmbMLxe6mQS+SQy6T6+VfLbAxdO/7tWhjbsQYj0c0LkYnzNh/Dkj3XoZW6QSohMoET5mLqkNpcdH0tAJ8Mag1PV0sCi359+NpTLN17A3EvUvE0mYheIm54tpAlH4KXK0AMrmDXePgVc0JgCS/0bR6MN8ICcfdpMkYt2o9bz9TQst6mhZSjedgwLk0brszukD0U5JbCGOMk8PN1Q9RXXeH4OxastjoEfdcbs3biSmwaGob6YMv77e0ih3vO+RnHbiUw8lNK5oLX2xRWXSna1S6Fab3CEFTS0+K19L6LcYnoO/dnpCpp7uIgpU0BPWkHrRoNQ73h5+uFrUdvAzJhA42akvoMmx3YXCv8w17Hfm7WmXgezgoOQaW82Bjp07wCOjUMKfKGUd/5hxB55bFxPAsfIhCUjCwzm7cM493QZ4VxDgR4u+P0grcQdeMxhi2MxMtcYd6jjSGh3YVn0Z8JG2ZTjH6DYHENYyCktCtWjm2FCn6WmBrnCQA7z8Zi3ZF7iH2aghepSoEEprpocpifRBtDNB/Sz6n/+Xu7IKCkF7o1Loc36paFQiFH8/dW414S2TXa3CFm3jQ/Mz+ASHiNCr1bBuODHg2w9mA0Fm27CK3cmY1tYbND6LfMpDDfgYe3kw5hoX44fvUJctQ8IymJ0BfGn2AXA4opMK1nXXRqEJKnuxKx0ey91YhPI4JYwohfwovmMp1GgwAvR6z7sCMqlrH095j9jEnE51sv43FSBtvgok0cTp0NDycOaWo5eF7GvF+yJ5XKeKFxlZKY9HYdOFltMN16nIien/yE55lySGnLmuwYzat6m0XrAJojoNOiTjlffDs6HEGlyJe039EjX7z/gkikK7U4d+spzUrgOBUceCJ2FcjSkJ9DG2k886N9XR2xcnI4vOSFrwUMffjKo1R8GnEBqdkaXItJEPoY+wihzdg6gNwgveCDWtBJCuY7tQz1xug3ahvnuLkbjuP7fbfAczK9jyYQetRPyH6RbZBLtHinaRA+HxxubNeX2Sq8PXMzbj7JZbwMkXDMF9Xp4Cx1wMCW5djBbH9WeSUJrFa1S2JE+2qoF1JScDDIQda3VXq2Eo9SMrHswG3sOB5j7GQHZrdHSW8nswnW0ItNNI6RkTeia97T9Qsu4++ECch0jzl/KZjEl0oe2UodAtxJBWFwDYVOzwyP2QCwJeoz0VnCn+pO+AmqXNovsq+QY3Ht227g2OLQvL4msspyEFrTaqb3kFM3be0F7Dz70K4cVvxvE/7svvXQOawcM+hUijEHgkdKZs4rJcfOD+3j155i1JKTRZ5E7Wu9f+ZV1K4KuQRTe9bFu60rF8GE/3nf8yQlHd0/O4jHyRlsR4AG/8B2oejeuBxo+U/djS0vOQlyVGp0mLIFnINAXtAuyIh2oZjRuz7bNU3OVLLJuNdn+5CYZSKHaa+tcUUvzOjblDlaxb2c4O7iiGdJGUjLIbKMxxsz9zGVlqHUr1QCn/atzxxfH3dH+Hg453HorVH45cJ9vL/qFBIyAB93BX4Y1Qx0EmlhJSUjB4lpuWyiH/X9Mdx9mqFfkAOergp82Lsegst44cj5GCzZcQm81LQL6yjn8W54MD7s0QBypjDIW2i58sXW89ga9QiJaSqodVpAlYnIL3sxfIkQY0opTorNJ2Px44GbAjEFHYKKe2D7lLYo5WUiRLLVWmw4GYvpq06D0yrRonYAmtQox5xdslMLt11EagZt2bFWQmkfBYa/UZuRH4mpmWw36E58hkBgzWxfKIFFmp9xS49ha9RDttP97bg26FyrBHMyCypkqR6+SEWOigeRWe2m7TI7TINHgyp+GN2lFjKycrF092VcuZ9sIkEA1CzvhX3T2kEisT9PH7Xh85dZSMtS4Wh0DObvuIRsrX6xRYtQrRKb3m+P4p7OTGFQrqSX8RNokZCUls1Ijz3k6B69j6QMFRqH+uDjHmFMRVKqmCueJqWzHTPKIfjVjitWEPAILq7AwU/fhiNJrMxKtlKNFylZTNH35dbL+PVyPCOHVk1qgdLFXJkaKqC4B1NwKDU89l94hPk/X7V4xsIRTVDN3xMy6FDcyxmJL7ORptRh6+k4rI28bTGfOCEHC0aGo7J/MUY4G8JfclUaPEpIQ0xCNlb8ehunbj4DOf/j3qyB6mU84eqsQEp6LpRaDl9sOY8jNxPMnqvFwNdD0bWJ4ECbz35pSg2GzdmCLN4N4TVKY92EcOb3JaZmITFDCe1vu6Zjl0bhdnya8Zu83R3xydAmcFdIsf3EPWw7dtciTK1MSQ/89FE4/Lxc8xlbwLL9N7Bo1zWkZqlYfVZPDIe/lzNTpJFy4fbjFIz6+hdwjm7g1blsATCyU10kpmUhJUPJFGSdZv7ClHCmzqBE6xo++KBHU7ZjWtLLBUMWHsSh6wkkJULF4gr0aFMdMiIISD3yOBWbIm8Zb3+telk0q1YCLnJBoRcVfR9Hr6WBjg2uHuiD7R+2RnxSJs7fT8APv9zEvSc0Hk2F53Q4MrcTaPM6uDQtyEy2hfBMzsjFh+vO4dztF8xf2zStA4orJGzhHuRHfdq+BQHV/Wb8S7w7/5BAqkskaFk7AAOah8DPQ8FUgmyfj5Pgky3ncORKArMxtKteyk2Cd1uFYGjHuhZ1j32WAqWGQ7ZSifYz9oCTKZgdpxqVK+6MCqUMCglTsB8tCs5djUUa58mIJiKw1k1sWZjpZvbtzpMU9F94HI/I8HPAoNcro0ej8szhJ3KUOmHH6buRo+Ugk/JoV8UdyyZ1sdriFLzP0Yt3IfqZFrHPMxlp4KaQYOybVdGimh9I28iIWz1RsO98HFZF3sHLbC0bH06OUsT80JvNIwmpgg16kaXGDwdu4OjleGObUNvuntYerg4yuDhKmWLkUUI6aPrbfDwGyw7cMi3+OWDZxHBm/4Vlj6kkpeViQ+RtRF56CAddNlZPbIcWtcrhcUIqswlKlRpvTN0GOLhaHGLk7eGIzwe8hg51ylj0Enr2y4xsJJBNUemw5VQsNkbeRceG5dGvRQV4O0nh7aaAr4cTJPpIDarN85R0zN9+EYeuJ+PZy2xWS18XHh/1qIdq5Usyok7gGSRMQXDodiLmR5yBjjrSbyq8KT1rY2T7ULZB/TQxHTkaHkpwaD91JyO8DKVV7QCMe6um8e8GD5sWxBG/XsOGozHw83bHzhltUSYfe2FHh7K4hGbRhhN3ID45gylyb3/fS69+KvhJT5MyGPGbkpGLj1cdw70Ew3ws3OfoIMGy91ogvFrpPCprUszEJ6RDqeOw+UQMVv5yEx7OwPReYahVzgduLnIoZDIkpGVDreFwIDoei3+KNlaI1giEU7taQvsaxl66WoueMyKgknoIYdZUeB7FPRwxd2ADtK9TxqiGKwwnGrl95x/G4egnbE00sFVl+Pt5Mh/kSWIGluy+whSGVKgOnRuXR81gHzZOMnKVWLAxClqZE/y93RE1ryvUKjWeJGUy5fCy/dexNSrWbLwAW6e3ZypGY7X1v32ako3VB27i9M2ncOFU+GlGZ1QrlzenLPlM28/EYf7WS0hIzRGeo87Cd6PboFKAN/O16GdMR8vxiLqThFlrz+jXwhJ81KM23m1VEc4OMkZ+KUkVlatBxzkHBP5MLzN8q0l5DH09FDJex3xQUqpn5KjwLDmTKeJO3k/ArDXnLPrw0LaV0b1JEFMlujsrmN3Q6YCzD5Lw0YozVk3BY+QbVfFep+pwp90+s0L2KvbZS+RqOJy98wLT1p9lKuGhr1dG96YhUMg4BPi6QyE3+SVqrRaHbj3H9FVn8DgxixH1/duGomfj8nBgGytEoBF5yKPV+xHgHQS1vptCjsahxTH09YpoUMnfWAva6COfjxTlWSoNOs3ex0g4fWdj3zmsraAaIttH/pSgyLen8Lj1PBVTVp/D2VsJzD6X8FJg9cQ2cGAbz0R+ShjZ9/nmU/g1+gWL+KBSqbQnxnSpiq718ypPzd+s4TXo+8V+xCYpEZ8o9BMHOdC+hi9GdQ4zzhmGLyKt98B5B5HwUlB90+Z+76Zl8Ul/E7FEcwGtL6avPopTMen6pAYGSHQILqXAD2Nao5iLAiWLmaIh6PsePE9l9rDD7H1QKnXw8aZNklZQcByKuTnA17MgtaE9mJqueeUILE6Xha1TOyKskj8oCCVs3DZhIGtpF1SNrmGl8UHvpkjP1WDyitPYe/YBIxj6NC8HF4Uwsbi7OGFs51q4/yQFEUfu6Nl+YSHKYlL1kmvtb4uHGb3DkJatwTe7o2nrTdid0eNH/2V3aTR476168HRRYOaGz1U3tgAAIABJREFU0wKhwXNsQCh1WrgrhDAjYUzodz3Z3w2qAx04klfriR6S2bWuGYifo+7ialwyk6NSWf7rXbZoLEoZ2q68sJNn4UYU/ARPZwXGdKqJmKdpiDh6W5DBgseRq89x18ppLehJ4dVLItjPTb8zy+PDHmGMzf8s4lyRchKxL9azxtWCfNCpQXlEnruLM7dfgJPKzRhly9r4l/JE5yaVkPriBQ5efojn6dRjDC6VfkeVA4J9HdGrdW3cefoSW4/fy/tJvA5jOtWCh7MDZm86DQm1HYBHiVnYf/FpUZrj33EtJzhwI9pXKTTc7c/+4EylBmETtuNlei44Yvd1WvRrWQFTeobBlSksLRdBtJtzLS4B3eb+jHSNE7t+ePvKmNk7zGLB9Ou1Z+yES5LMU6lYxgtrPmqNMs75h4UFDl4HJbEc+hJeyx/rx9uzgDHcwWPLiXsYt+KUUdFDCyBaCBWlDPhsCw7dztarRQB/HxdEfdmFhffQwj8hPQcLd17DlmP3jY9VOEhx87secGaSb8tCVmnBjkv4ds91JhWn4sSn4/BXfVC2hEcewjYtR4W5Gy9i3bF7RvS93eU4O/8tuCgEJWxSeg7m7biENYdj0D+8Aj58uzZTLBluaDR5B54kE7FNhUfNQDf8PP1NZraIRMhSavHx2nPYc/YB9s1sj1qFKLCSc1SY/ONp7D/7kD3R1VWG6IXd4GzlQBWEM7Wsf791ejdRqFf3RoFYMLQpc6YzslUYvvAAjt9NEdQNej1OTX9H7P2k++8itlNzVFi46yqW7SVCUChvNqmAT3vXQTEXS1Wxdd2JjBmy+ChOXH+KQ3PfQOUyHnkk82TPxy07wRboloXH54NfQ/+mFfOF5P3vd2Nj1DNoJQqcW/AWAnzyEjSbT9zHe8tPWYzCfTOIcPS2wIPGJYXODlp8EjqavA1FnYq9c7uhVlApm6qBY9GxmLLmFGKSeHzarx7biacdVkNh5Mbjl2g1ZbfpmVoigOpgxBt18nwbzefX4xLQduYhtKpRAmsntMyTM6btrD24GpNivJfG1+l5XVn9iOBbuussG1+81ISHtxuHswt7wcWKEKSHRERewpxNF5GiUrD+Xz/EGyvGtoSvWYgrhUbtOhuDsctPg1cKBNaINy3r3+mj9Tj/xESgNwgtge9HN0VxV1OI8DvzfsXhq09RykWF3XN7s8UJC5MBcDD6CYYtPmL8rr7t6mJMuwoo7koqSwof0mDN0Rh8FnEBNYOKYf/MjuxacvjnrDuOFQfvATLz8CQJnqztk2+mIBKLDlhwCEevPMGSyW3QsWoJphgsanmcko22M/biZZpgL95pGYKPutWGp5OcqeTMC5Fmi/dEY8WBu/rwOR3c5GpM71kXfVqbiAXDPdSegYPWsTBwxmLwHAa1roT3u9awya8pVRrEpeTgzZn77CawniRnouVHW5GeK/Tb7s0rYGqP2vD9zX80L89Tc1BzzGY4O8oxqFVFTOlhSbrRZszob3/FrovPoNEJzyKbenp+Z7g5O7DQZ+tK56g0SMxV480Z+/A8OQtOjhLE/PCOxdikTYM5my9g2X6yQQKeHJS4v3ygzfniuz3XMCfiotFPpevPzuuKgOJ57QMRZS9z1fhs6yVs2H8Z6ye/jtZ1yhk/m8bj+dgkdJ25n5GO5sXdWYIVY1qgSZXSNrsM3bvpeAwmrTyFj7rXxqgOVWxuWCSmZ2H0N3txJkbJwhupjOhYDYNbVWQLeOvFKV2Rq9Ziz7kHGMsUxMCU7jUxskNVptYwFLquVL81Rh+Eqt+9cTAWDm2Yp750bXauGq0mrUEG3PHNyOZoGVq8qEPB5vV9vtqHozeSmAKNxsPbDf2waKhJJVHYS0hhePLWM/T4IjLPpe4uUmz5sC1qlM1PAc1jyb4bmBNxCTP61MGAlpVYSLl5IdtyISYBnWYfMGGnU2HB0Mbo1bSSxdxBJHFSWhauPkpFv/mHLZRTbs5yLB/TDM2q0IZf4XHbRGjQMw5ffYjdM95ART9PyPWKPlpnvTl7vxByywqPeYMa4O1G5dnfiJxJz85F9THbUKqYM3ZMaYsgM0X37E3n8f3+G2aKXuD+sl4sHNa60BhIzFbj49VnsP/kNRz45G3ULF/C4jIKj//p3ANMXXMWWTmCE9a6jh/GdKyKmmV9LeY8w43UR9ccuoMZGy8wDGf1b4j+zcuz9BiGYrJvgt9Hvxnevgqm9qyTL4L3X6SjyeSfjc+QaHOZvRreqU4efzstW4VKwyPyfLOjoxTzBzZEl9dI0GC7B0ZeiUe/BYfRpFpxTO9ZG1UC8o4H6jvnH6agzxe/IiOLZhSgX8sQTOtRBy5OgnrdvDx4looGEzYAcoFkIQU6EXYfvl0LJa1SStCcmKPUoPzQ9Ww9bihEVJP/YO8Gi/n7YxLTMO6HKFy6n8yUu04KGaK+6oQSHi55/IzUbCWGLIzEyduJhnwa8PF0wO7ZnRBoQx0vdFMdei6IZD6fTitECpTwcsSeWR3g5iCDG8VlWhWyPTSm6oxZCTU8mSChR+MAfDGwWZ5rX2bkotvn+3DjsbB5bCg1gorhwIz2xnpa37hgxyks3B3DiPMzX77JNi6LPtPb7ifmP32lCCwyLj+Oa4G2tfyQyUtQb0QEsrKV0NIkQmELjI7WYVj7ypjSrS4mLjmILaces9hV80FDjvfpBV1x6Eo8+s8/nG+/pAn06Zp+eJyUidcm7NAnwLQBqk6L0wu7sYUjLXhM7xLIqqKW4e0qY0rPOnhv6QlsP/VAL7MVpKiCobY/jFCoS9HqQficmt8Fh68+Qf/5h4wyREPeMHu/yNpQ3VnWkxFXFYZHgGP67qKXt5sEY9GQhpiz9gh+OHCXyZHzK+SoB3g7YELnKmhZvxI+oAXtmTiLy8nfbVzBFeundsV+cuipP1gVoquov/j7uCKg31qBaNQz9MZdoaJ/yit9R/0QL6Zisp54/9qP0qHMu+tYPLpBMP1Ww0DMH9wIctK851Oov16MSUCH2fuJDcEIRmDVtzDIMSnZaPX+z4zwoVItyBs7Z3ZAQVmTyg3ZgFxKiKQv9u/ACzeQ+uubfTexdM81o3F3l6Rj+4xuqFrO0qEpCNddF+Px4coovMxUssto/J5b0NV4C9mNmZvOYen+WxYO90+fd8VrftaLDB5rfr2ETyIuI1PjIFgvTobTX3VEoK87W1TYchVvPE3FtHXncPrGc+N75Zp0PNo4ktmsO48S0P+LnQipXBlfvNsQJZ2FpxgmtXrjtyOehXBQ0aFWkAv2zexm8dnvLY/ClhMx2DezA2oFeRfY3p9svsAcaZI6G8qt77vD08WefCCmRxfvvxpSozPDo0fjclg0tKnxAo1Oiw4z9+PqAzOCw9cZZ7/qYrHjb++4oLw6lLfry80XhVs4Hu/3D8eQJqXhakhqkc/DqOfSfHb46iMWMunv65anrSIOX8XYpUchdaScEpYuBcnmn6x6x5ig3/o1GyOjMX/XLTxLzcDZBT0R4JM3D9nmk/cxbnmU0T5S/RnhaGOHOSlLjW8P3MQPO0078bSps29mR9Qul3eBRH1xy8n7GL88CjplOhYPa4YeLarl+Q6ar+tN1M/XNAMrM5kDOqoLkdZ5C4W3brsQj/2n7mLdeFJgmePCo92cA7hyL9F4I333uQVdjH+nhfPsiIv4gS34TcVWf6NvWLqfFngXjYqCPTPao3Z5nzwOHu3Uz9sRjY2HLmNqj7oY3ZlslqkM+2wzdt0SxjyVZjX9sGp8OJzMFmHvLDyEQ5ef4vS8LihXXNhMMngQ+6PjMdhsvhvQoT7GdQhhYcCGkp6rQqWhEagR5Iv9M9uZfbMWY5dHYdvJOItFjJuTBHd/6KP3UcwthRZjlkUxlQLtOp+Z1w1lfAvPY2fdWhlKNSoO3aAnoyQsRGxE20qY1reJ3u/K6yY/SsxAg0lbKZjEuACe3L02RneownKlmZdspQaB766GVGpw/Gm+CMX0nvXyHcIPkzJRf8J2tKkRYJcC62FSBsIm/mT0J4e3o5ySdWyqdYP7LIHUzQdT+jZFv4bmylwey3aexdcH7iE5y+SR3f6xDzykFIpS8JK+0dg1iE0VTngmBZZ5n6c+wvrzPlqQC4XX5iL2x3fzIbCususNCicyuWfndUGADfvDnvVbSNKciPNYsv861k9ojVY1AiywjUvKRIOJ21i4ipABT18HnkeQtxSrJ7VDiL8t+88z9c+45acwpUctjOpQNe+GFoAbzzPR5v0dRs88rDItmOsYbVR+C62kDCW+2XODqW0EBVYVq7xkGpTqu8EY8k72tXuT8lg8pEG+i9+XOSrUHr0FvZoE4tMBjfPtY/b+grAlcvdanGk+CvDxwNl5nVguMXvLldhktJu5Rx/uL4TRGosmC+cWv8OUMdaFeiIjsDZfxIJBDdCrie3cR5djE9B+ponA0qlzsGhYE/RsTqr+vPVkGx5X4jFg0VFj/lyhYyqxf1Zn1Awq/FRs0s33X3AYkefu4ew3vZk/YyjRsUloN2OvicDidFg0pDF6NLbMm1dr+Eoopa6YP7QR2pltNM7eeA7fk/03IzTvLesFV8e8BJbhneOWn0TE0Ts4MKeTRf0Jw0txyeg0Zy8TLJD4gVNnso2z7i1CmQXPj64jZS7l+fpiCxGI9TGgZQjL6WQoZN+CBq0GRyHFer9mOLNvtfW458We7Butfw3F292BXd+9cd6QQHo++cUszyLLeWcqlBNp9YRWCK9uOd4NV0RGx6PvgkN4p2VlNl97KPL69Gm5KoSO2AydXsjRoqY/Pu0fhrLeLvkSJDEvUtF48i5jRagrsw2tdpa5mMju5RKBNWSjWa15jOwQimls88D+8UMPoFC7gfMP49C1x8b56uSitxCkj0yw9DOEV5Las9Oc/bgSm2SsAymAo77qrBeimI84Hn3n7cPB6Ocspxrh7eTogBvfd4ejPt1BQeOdlGwBA9bDQSZBx7rFsWRUW5uXU/hfo0k/IT7J4J9TfkQOvZuUwZz+5Atb4kLRDw0m/IRHSVnw91DhzDcDIbVbJ2mvhRKue7UILF7HpPbhNQPQYPxPQpI5G+XNJsGMUXZyVmDYwsOIukpSaFOhBd6ZhQKB1W8eETS2OyYRFU/W9mey+frjt+ebRJOSN55bJBBYpfuu/V077+b1G0aMb686GLvkGLZFPYDEkEmzaG37u6/293XFGSKwop8wyW3Rhm3+r72zoiczveWHRUDyOwgsMobdm5bHoiGNMHvtEXy//w44WeHMLtth6FUH48mBPkFhpabCCKwQV2yY2hUHrsRjiE0CC6y/EIFVus+afPvL7wb8FbyRdrMWDW2EHk1sJ8b9Kz5p2a9XMWP9ZaPBfC20FL4d1RSl3azVJHnfTslyh319ANefqPUhhJYLkkdpSjSbtJUlI6ZCBNaumR1QEN1RbvB65JJ+XF+IwFo7saXd4+XX6Hj0m3/I0mHjOOye3g51bCxo88P0+K0kjPzuCCiXEhVrAot+diNeTzDdMhFM3tI0XF81xuKxpED7Zs81zP/pqlHZ2KqGDxYPbYFiNpPgGm7XYvyyk4g4+cBiQrvxfQ8mM74S8xyvT9mGHuG12Pi1til5CKxyrtg3622Lui3cehw/HIzFxg/fQO0CCCwKq5q96SJWR96xuN9Bk4m4jSPt2Ks13ebbbw2ltNb/IC+BRb9oM2sfrsWYHA7C/+yCrnb3A/NK5iGwfnOEpg5qhXcblmLJcQsqtFtNO5iRV+Nx/qsuKF3cNoH13tKjmDogHI8TsrHp2F1oKBGzvjg6ynBlQWd4uObNh7X/XAzmbLmCx89f4vTCHowgsy5EYL23LMqiT++b+TpqBdnYTQUpEGMwfvkpC0c34oNWaBJaIs/JkeYKC9oBpp1RwQm0xIUIrPpmDrdWmcYUN6O70ELSdrn6IAnzd1/H0tHNzAgg4dp2s/bhikX7WhJYdM2sTZfw/b7rFq7E3WW94Ga1gCFr8d2+G/g0Qk9QAtj4YWs0rVwyj1qE5jtStE34PpKFbFMIoXmhTZwlkY+NP2peozR+nNDSov59FxzBoehHODP/LZQxU8xRPewhsGhBUnnURhbSeUCvwDK88HmmBqO+OYJTt54Z60AKoCtfvw13yi5vVtJVWkxcGYU9p+ME+xZc/HeNj+qD5iNRbVqsUniHYE/yHxuE45nYZHSduddYI/rZwsEN0bMJKdStFAoDVkIqN/T/wgmslxk5mLQsEmo4YW0hObBow+vi45foOG23McR1UBtasNWGwkZYCqkqa43ejHdbh2Bqd9OcRUqKcSuisOvMQ2P93aTZuLNquF24EtldkRZqnA73lr2TJ50FEVJL95kIWU6TjfurBtlUsC7ZHc0ILLYo1pezC7qgjA2CW/g1j3nbzmHpr3ewfEw4WlSzVFTFJGWi8fitkPI5kMsVyNVakgDr3m+NFqEl86jt6MlbThKBFcUUIiPbV80z2JPSM1Ft7A4I8i7Kj8NhVPsqeP+tWoX67UQOkWJ6/LIzbIOZCCzLpYMOpfqtt3inQGA1ytfu0PgKHbURNUo7Yecsyw2bfG8q4BdfU97HX2ORlmWy6SWLOWP3rI7w97B/88ZAYLk5aFhi8uRcS6X2lL5hGNaygs0UBEv2XcfszZewaHBD5h/aGplEGLWfsc+osuONBBYRNLYLqe+XR94xbe7oL9s8ORyNq/jpT4rMH5xcHY8BCw+jb6uKaFu1NFPjGIo1gUUbKYttEFhpSjWqj4hAp7ol8c3I1sb7Z208w3IGsVyD+nJveW+42lC4G37/4arj2HbqIXZMaY/qgSZC9gER3ON/MhLaVEsiTIe3r6rPflVQzyAF3DXMjbiMyW/XwpA2lS1INEZgvbua5do0bMIP71AF03uQmsp2sSaw/L0dGQH0RpigTjO/z0BglfN1RZu6pbF8P/lgpit8nXTY9HFHVLGh4IuMfow+8yPxbtvq7PmUn8m8kFK7dD9af5n6IrP/gxsJETp5aiPc/SI1E90//Rl3n5t8dZ0mB4uHEmFq2d+o/pYElg4jO9AGQ/4bGPm1hrDhShE9egJRwuHZqj6Frh8HfrkTkTdTodFLUEkvXaesE3bP6WHxqqsPX2LyqlO4GktpLITSuIIjtk7rXlAHsfhdnfdWIiFdjrY1imPFuNfzva/brM04Fas0pimhC1tUKYWV45rDyUplOGvdMaw59pjlV41b3p1tiOZPudpdVZsXvlIEllarxaReYahRoSQmfXuY5f6wVUp7yhgB9HrDiowBPXLFksAiIoIIicNXHqPfPFJg2R66pPJ4vO7vJbDIsWKMeK86GPP/IrAInwUmAsvaSP2eLke7cneXCwRWhaERgia3gEJjlxL0uzg6sLCujFw6KUTY0VowVCCwlu6/A4ks70LL1UkGXwrA15tOkuiTERr3/VFsi4qzWBjZQ2CRqu/M/LcZMSASWKZGm92vLvq2qFiEePDf03OEe1RaDUKGbYKSqYaFU7Ra1yyJ1eNb2xWOSuOK7eAtOMxCH2cwSbCpPMvRodHYCCYhpmIXgWWlwGpZ0x8bJtgXQpir1rDF6cxNl1hS6swcQQ5N5f2+YRjaLBgudiRzp+vPxqZg8MJDSNKH1NgisNLUOkxacQp7TlOeBqGUdMrG5R+GW+Cw+cQdgYBgcfhC5sf9MylpOiVlL5hAmbLuFNYfiTGGZdCDPSRZuL16BAvrGvj1YXSoWxbTrUJh6Lq8BJYL9lk59OSST/rxNPq0roTaAV751IbHkp3n2Q6wo5MbSz5MITGCLeBw64ce8LAhq7bdM3Uo2X+D2Y6vbQKr9ZSduPYo1bgACvBxwZn5nfMQMPb0fopIJQXWVwYFFp2QNqQNBjYoIRxYUkAhi0oEFm3MnFvQGQE+eXfINx2+iveWHsPUAS0xsG1lDF0YiaNXiYAwkXQl3XU4s6g/O8XPvFyLz8CkFScRfecBzn/dhyksrMum4xRCGGUkY8juH5jZFjXLEYGVt/57z8dh8o+n8NJswSVTpeD0NwPh72t58tDjlCx8ueMKdkbFYmrP2hjalpzPvM+0JrCgyhBySHXOq8CKe56GwJLuSM1U4mJcAqqVLYES7iZCnHpO25l7cc3MSbQ1vmavP40l+29ZLOJvLu8NL6sFDGWVIQLrCzMCi9dm4tDnPRAa4J3na/ZfeIi5m85gZIdqeKelpbN96GYS+ny+z9gEzWuWxprxLY2qIlpwT1x1BtduxWD9h2+ihHmuCjsJLMrH9M2eS4h+mIEfRzez2kzjMeHHU9geFQeVWS5AUj2fWdiDjTeBJhAUakSIlHLVYd2HHVClTOGKCeu+lZmrRvCwTUbihxx7ynu4cEjTQsmHy7FJ6DBznwVR+v7bNfQLPBPZRsRQuf4rIHEw5bzKT4H14EUGO3HM39cd1x+/xKpfb+GrgWEFKi/J7g/5cjMi7wgEA+Hj5QRM6VEbvVqSYsiyUMhfm2m70TTYHZ8MMYSB8Zi96SyW0ILZcCIZB9xb2guuTvkrPsyfTEmWKwxeB04iw329Mt70e1JIXcQSMwJLl5uBuHVD8yGwBAUWp1dB08bv+XldUdpKgUXYPk9Oh4eLEzw9nHEx9gXKFHNFSaucKAYCq2U1X/RqWR3vrzqNlxkmpSHZlG3vt0LD0FIWYTgGwpdCmMn/H9WOUhxYlt5zt+HIXTqFQAgPbVnbH58OeA1lPQ1a64Jt7NYTdzFu2Ul82CuMEV+WFlKD0n03QsdOEhKe00NPsFrbKcrn5+PpzPJCHY2Og1TugOZVi5Y6wHp80Pf3nReJQ1efCkd2m+XxqRHogf2z3ix0nBieSQqQdjP3Mn+7XgVfzN18EWlZZvn2OB32z+6ImmWJeLHEjOwb9Z+FQ15DzyYVbJLLV2IT0W7mfuMn6DTZTNncy4pQsP7GiOP3GEEpHOgiFKkmHWcW92PjsKBy63EyPt9xBR90qYFQq6Tg9hJYOSotWny8ExV9ZVj9QSf9l/OYtfGsXQQWpR1ISM0E5VF0c3XCmXtPEernDS+9Mpw2aSJvPUP/zw8acfV24TCtZy10b2Zfyo6NR24y/NuHBWJil1oWuRgZwTTwR0iMod8cBAKLFFi2izWBVSXQiykWm4aW0t9gvgEgKLBqB/liWveqGPbNMSSZKURpNlg4rAm6hAXm8S8ohJCS7A8iwqhnXVhvS998norWk3cZSU/KqDAwPBgf92pYoGdKKYYuxqbgDdrAYBOSEMHx1cD66NkshB1+ZCiM4Bu8QTi4g6Wt0bGNsmlMgWu/lONFei4+WHWK5Rw13PdaBXdsn9a50A1Uimp+bdIOPEk0HZhWs5wX21CX6/s9cSHjV57C1pNmEUU8EL+mN6RFyL/6UqlC6JCNjCDbY0WQmfcGmsMbfvATHpgd4ibjtOjTtCw+G2Ra8yRl5KDHF4dw81EKPulbAwNaV/vLyCs2f/I8z1MizAbjTRLBAq3AK/DLZtVLMQaXk0kwcdkpXLlv2h2n6lsSWEfy7Zd/DYFFE4uO5evxpOPsbYyJd1pUwJg3qv91BBZPR4tKWVJq2oWwrgLt2OyY0u4vU2AVRGDREdZVynozVrdyKQXqhfoj7mkaTlx/hnQlz5I3k/LHQGCRAstYOCCsYnE0DfXGyC51hUO19cflUvLtj9acwyGSW5oVkcD6/QO6biUffNrvNVQJsDxx7vc/Mf87912Ox4hvj0Glz1FF+ez6twzCtF5580vk95Qj0fEYuDgSQ9tWwcdWOyqJKiBs1Abk6EMCCyeweJQbsolJjg2lKATWlZgXeH3qdjStXRH+3q7YdNSkFqLJgnKIlLXzqN5Lj1IxYN5BJNLxYPkosGhX76M1Z3E02pSzbUqv6hjdzpQHhnIzbDp+D5N/NEvCyfN2n/r38GUOxnx/HOdvm07mdHKUI2ZZL3YiYoYWUNDx7DaiPe1RYBEu6XRipIRjJ8nYcicoP8+3e67iq23R6FjHD7efZeL+c70jQIliu4bhgzcr2d1FhR11A9lum8B6feYeRMeahxC64sy8LoUmjLdVCVsKrGmD22Bgw8IJLHpenwWHcOjKE+SngNh4KJqFEE4f2Aqj2ofiyw2HseroE5itD+Hl5ojPBzdGp1qWR6bHpaoxdslRnL8ag/PfUAhJXgKLFhhEgBpUwwKB1Q41bYQQUn3JWSPC7gszwo5+fnZ+V5TxtQxvZSEG8w+hZrlizIFuYONId7rX2uGW67JZiNaQNyx3USmkJKTfCtxdPQAyfeLUvG3Co93MA6AFl6HYIrBmbjjLQkjME0Xb2oEn2oIWeJ+ZEVj03J7h5dGtXiAahhLmlj2bch0xZ81s0UZ/j80AGo1aa6xXixqlsXpCuMUpmJk6wIHj84TK2avAEtpIi0ytBO4SOvHKeskOdJi+C1cfvDTW29fTEWsmhKOWXlXwMCWb5VQ6eO4BfhzbDC1rlrF7IW3eHvN3X8W8raYDCDydJBjRNhhju75W6Him9ms/Yxd4fZJmuoHCUNe/3x6t65iS5DICq98KSBSFE1ghgzchrKI71k3uUOj7DRdQbrNPNx3F0oNPzNwWHj1aVEC3BoGo4u8FD6vT8tjJmexUM6FnkC0lwogOAjAWXov7y3uzI+PtKUR2NJ+0CQmZWtxc+k4ekkEgsEzPV2alIX7DcJaPy7oICqxLZgQWGIFFSn7znhx5KRZ9P9mCER3rYPpAk3rF+nkUQthw/FaEV/PF2skdserQLaZYzDZTO3O8Gr/OfRNVzZQcBgKLFJ3k/5NCyryQK1h6wDqLPEpE0FBKioIUfObPuHA3HrM3nkHz2sEY2b66RXgWoEGpfubhR0DPJkFYOCRvaGDd0avw9bi2aBDsV4RlccEte/d5GsYvOwXKQ6RQyHD7QQrL2Uulgp8HfnyvKYJLmQ4AKehpAoG1jxFYhM+KyNtY9PNVpKSbiETqjbumNEO9imVM3ZDZt+uYG3EJi4Y00Cuw8s7U1gTp0xsRAAAgAElEQVQW1DmM2OjRPLRAPPafj8XkH6MswmZps/vC/K42czKafyO5dsSluEnIh7D8ensJLELzpVo4zc3DTJQmEFg3LRRYMct75wm53Xz0JsZ9uxfT+zTGiM5ktyyxIfsTPGgteLP5iEXk9KxjEU5bUNvlaHl2Omt0zAt80q8BqpYxqbsYQTNwlVkOTDsJrInbjYRonZASrD5hwXnD/Jn9HLKREVh02E7k1Sf4eM05PE40RUtRAn06rKh93UALFSURWH3mHxIItZ51rYgeHmUHrIRa62DkZZtWL42V41rCtZCNPcLqcpwQImo+zrs1Kov336oNfzOlKCW5DxoiEFhszoWOpRyZ1tMy5UhhNnbWhjP4nja0zMix6z/0RjEnk54//2foUG/iT4inBPX6Uq6EG74d3gi1ywtK9muPkjFt/XmcvZ1gusZHjlMLehVWNYvf56i16P75Lyjvq8Ci4QXnyTtx7zm6z/nV4v7waqXwaf/6KFNc2Gz8eM1JRJx4gCA/D+ye2k7Ic/sXln8dgeXr5YQJnaujb4sKmLzsKDafeAidYZdKD6QlgXVU2K2wUewNIdT+lgflvFkIIXka1o+k4RDs74VAX2dIeSWCS7miegU/CxmrqbN6IqS0N8YsIcXQnxdC6OPhiFoVikOqVSKwuAuqlPPVJ76j7zcZUjrBqHGVMn8qgWVLgWX5VsDXQ4GQUk747N1GCCxZDJS78PHzZPiXKMZOU4mOS2S5jAa1DsWctUeZAsucwKoU5IODM9sxEuLEjSf6Y3iFt+w+eQv7LsZDzVs6YHYRWByPM/qkxaICyzRQKNaZQuZa1zQ5MH+FrSLiou7YLXiSSuf8CCU00Bubp7aHD9s8t29n5PajRKw6cBnNagSiXViIxV0pGqDuiI1FUmCVHbTeQnkQzo5RL1yBRcfyUgLlwYsPo3vDQDSvVZbtcMYnmCasr/rXRq8Woez44sIKHZ/brxACa03kDcz/+RoS001Kr3vLe8BVYVrwPE5Mx+fbLmLHaVKsCjZRwquxb1YnVA/yNR6jnF99mAKIYv6jTYpXShJ/e1kvlqy5oFayR4FVGA70+xvxLzFnyyU8S0jD3L71seyX24i8YiLtnBVS3FvWO08CTdvP5lGy73rjKaqEiXUOLPpmUnYYchZQEs0mNfyxaUILO3ul5ZtthhAOaYN37VBg0ZP6LohEJBFYFDJmRQDR7zceuoIxFEI4sDVGt6/CTh76ZPMlrDp0F+TcGkrZkq74emhj1AumdhdaLkGpwfDFR3D60l2c+6avzRwoRSWwqJf9sPcK2zHW6ckFWrB/0a8W3mlZFTL9KZm0aN9/KR5DFh9iCkpT0tm8vcqawHKSKBnhNeB14ZhoQ9lxIRaTlp3G/aW96SC7fOxI4QQWfcOczRRCeIOdkEXFSa7D1SXvwNVKXm/IETPXisCie7TqTKyZ1B6+rlLUCfEvlORJ1gJVB5oIrJY1/LFmQkvY4c8zStaeEEJ7xtzM9Sex9sgDixNZqwV6Yc/MjuxEqG/23sCnmy+gWeVimNOnAUIC8ub7Kvw9PMoNWoscjcm3alLdD8vHtYCHHSdC3XuSgkELDuBeovkpzjzWTQy3ODTDXgKLQuiDh27Cig/fRMugopyqxONeUhaaUE5Vs4+mzVIFVBjZqQZa1QpkxIwhwTRdJngxwr9vPXnJCCzzzQiFLhPXVw7S23Nrz8o2upEX7+Bo9GPMHkgHF1jOM/R81p/1JScjGU83jYKzo3VSYB5LdpMCy5zA4lgIs3kSd6rRweh4DF34C8a0r4yJ3fPfeBIIrG0Ir1YC6ye3w82HCZgTcQFHbxKJbEKtTnkP7Jz+JiMThEI5sCgH3ylmHyiE0Bzjh0lpCJvws8UitntTIQTJXgKLvuNo9AN2Kl2rWkFwpuO+jEUDv74bTcKnfBRYuVodmk7+GdtmtEeZIoT1FTZG3lt2HJtPxmHNxHCU9y+G1h/8hFyVoPSTcTzb0FkyplWhdoWuNxFYQSwEUskDk1ecwPYTsSw0yFAUyMHlH96Fl175R74ahRDOibhcCIFFObZMIb2cJhcLhzZG90IILDqQZv7P0VgbedcEByds+NmTU8902rvlGLGXwLLdBuYKLMJG6HUxy3vCWX+IjaF/Rpy4j1nrT7P5iPw7a981S6lE+aGbLdaPlAKFrrfPyxXGwb4z93D2xgP0aVMLFQJMalea44MHrAIvN/l9hYcQpuO1CaYk7g2qlmT1qWlGjBlwyVKqUH5oBGqVEw79oHmG0gp8EnEJyenCqXfCUNVg3SQ6sCjQ+KPIK4/RZ0EkhrevlofAolOxQ4ZuAeVANKytW9YUTg0u3EOm/pyIttN2QSI1jVdOo8S6yW0QXqussQ5EYJUfak5CaxmBNb2n5aFPBY1FpjjefBFLzQ7ioca7/0MvuBSQE81kxSgiYQueJJvw4ngt2lT3xerJdJAKj9kbzgmKb7P1wdrJzdC6Gq3F7O8prCl4LVsrW88B1t9IZPiAhUdw0DyijaeULJUxvXdD0Bw7buVpXIxJwuHPuqKyn1uha4bCbFphv3/lCSxKPPta5RKQSiUo5u6EusHF0KVhEGKfpGH2xou4YJZ81QCGvQQWjZR4O3JgWRNYtpKz1Qr2wbiutdC4ki87lUPLcXiRmoOMrBy9zN7UVMVcHdmxv39mCGExdzne60ySvlCmTCLDQif0pGXmgrcK56NjtsuVcGc7+bQgLdpwyL/L3VnRi4UBmhRYpklEymnRv1WIcPphfDJiErORkAOci45Bvarl4OcmRVlfR4RVCWAGa87aYxYEFj1p05TX0TDYmykw5u+4xuJ1C6u7SGAVZiIK/j2FEfZuFvKXMu3UtmETdrDDFAyFTjXbO7ODXZOX5RcILgwV876RpgVqDc+PwDIcnW7ZmwIHb4BS7yDS82gBSQRWYX2Oxt2oZcdx//FLvN+lOjo1qsgW8D/+ajrSXqbJxJ0fh4AUTIU9L/pxKvp+lb8Ci4g7WpAcvp6gl1ADnRuUw+LBjdgJJIYSeSkOfb76BZycFmTCQtxTnott0zqjSqB9JyRRzjxSyhiKo4MMh77qiiCvgvNv/BkEFtU4giX5PslO7BrZrgqW/3ILX++6ZkxwTwkr5w+uj7cb5k1AmrenF0RgCfgcZDuMZ/S7ZRwcHaTY/FE71C//+1SJf5jAmn8IB68+xtn5b6OsjVMCNxy6hrFLj2HKwBaMwKLlKH3JrM2XsPLATVDImKFU8nfF3HfqoFEVwcFLVmkwbNFRRF28jXPfEoFlGeJH12w8epspsGSUY4MVUvC1z1eBRVecuBrH+v+1eFNKAF6VhpjVw40O3/O0HMzZFo2Ld56xE4TerB+Y77iwJrBcZRq2Y9yvTXUjDZCYoUbYmLXg5E6M0DRLh2LVDQonsK4/SmGnbh2/biJK320egJn9mto8LerQtafse+88JtWSZaHktyHF5Rj+Zj1UL1uMHZee3/gnujuYcoLor/h/EVj0BR2n78Clh5nGxPR+vyXVndWvPkJKuuOTbVfw8Ldwu7nv1EPjyvYfTmGODG2WBA/eiBwzFU54jdJYO7GFXSEKWSot1h6Lwex15ke888IGjFkScVsElnBKV11jO2h0wE/nYjF5+SkcXfQ2gtzszy1E3/TsZSY6z9mHR0lmCzrDx3Icqpf1wFsNg/F6vUAEeOfN8fm9nvA1V5M1C/XGmomvQ8FOHvzjZXbEBaYoMZSc9EQ8jRhjH4EF4JxBEaPvvAl0GuTPV7D/Qjwmd63OfIb8SmxSJhqN34ZW1Uti3aTX2Qbz3nNx+HzbZdx/btrkoUd/MbgB+rA8ZsLp0gYCS1BgWebAmrz8INafMOVrg06L7o3KYvGIFkVc9Bk2vK1HphZ+/dYb/Qv6PqZgGtyQpSmhqymEeMfpB5ix9iyOz+uC4oWcLGtvS95+nICpG87j9M3n2DujE2qU90XIoNXIVJvm9yZV/fDje83ykOq23iHkwBJCCBcPIbKRw86TN/Hp9mt4lGxSYdEGw/huNTGuXRXjptCSvddZCP/CIY3QM58cqQaCzPBuiUZQYHVrVrACi+g4Ugaa5xCkZ5yd38UuAis/PP8YgQXkzYElQczyHiyShNqdeszj5EzM234Zl2NTWM67NjXzJjO/8jAJ7aaZwsLpTtqwIUVS0UteIpvleBrwIyAXbBZdMcIsB5b1HeT5UoTWaxN+Mr6+cXWBwKpm4yCFLFKQDdnEDtmhw3aoPEnJxOyNZ7Hr7CPjac30c79iwLmF/YxzLyOw5kVieMe8BBappSsO2WSxyUYE1oYJ9p2uGR2biA4zf4bWLDCRNgSIAAuvaQrdZQqsoRvMCG1BgTW9CAosmqKo/68wU8jSu0gha+8p2PXHrMPjNPLFDDaGR6vqpbBuUhuGKfkPtMFgkt7wuLOsF9zzbDAUvdcUdEe6UoOQQWv0KUaEK5tWLcn687aTd7Hm8H00reaH+YMaw9vVUSSwCoPfwUGG3TNeB5EuJbzdkJiQgMOXH+HA/9h7D7Cqrixs+L330ntTkaIUUQEFxIYFe0ONvdfYTUw0llGT2GLiJJmxJyZ2Y8deYo1dURR7V4ooAoogvXPvPf+sfW45t2OZ7/vne7KfyZMM95R9dl37Xe96191sXH+qOLBpPaSyANbHCiEM9nXDN4PD0apuFRyJTcSzN8WMFZaSWYTcgiKdRIVRjWpgYKuAjwZgUbrZ2QNCMaJdXTx5mcsQVClEeJ1ThLe5RSy9p7BQfPa/x7TA2Y8OYGlrYKmXy9bBbvh2UCO8ePUWvxy6hwfppSwLjbJIxHIEeVhjWr/GjPJPArZCBhY9KX79EFDeC99Rm2AusapU/kcCsFoE2GLH3L4GRdz/1sAyPAuDfJyxelIr+LvrHmZNzd3K/k5922T6fqQKY8L9XBlFmS+mIB7Tb9IGsNydbTCsfR1F7gx+fqhhL37cLj54F1I6zSgKHai2MgDLeH2SKSvW9L3oEFoDW6aR91uERTt4DR25SqCSw/Z/kMCtl8mvu/MyFyMEAJazrTlm9ghgzyooleFGwhucu58OmYjPwtW5iS+WfNoUbnaa4SYEPFEIGmW9UZba1cyYuGOAZ2UAGQ7DFp/hNTgUhVKSL/+8LXo30gxH0+6RjwFgPXudi4U743AjIYt54Ae2qoNymQzdFx7HA2FWJhcrxC3rb1JMkxZmbQZWY38n9IuoicJyOcrlYuyJeYZnGQUKYJDDjD5hmNYrzGSfGRqRegGssZ0wupIhhJTFh8RQry7ui5p6Qvx2nHuIyWsuYvaIVviya7DKnCuRcwgbuw75UsFhnJOiR9MaWDy+HewtxMgpl2L8ivOIufkYcb+M1MPA4rDj3BNMXhMDcwvl2DINYNEM+mHXLaw+SgYZP9doCCatHQJbhYbULRL9/e4I+jUPYBmgKBTVUNEGsCwlHNqGePAZU0Ui5thIzy1F9LknDGCiUA/Dj+PQZcEJkAGsLC52ZpjdKxClUg5F5WLEJWax+UVVZ7pMrQLw3eBGcLTVH85Fh9iNfz3CLwfv4W2hmhEp/B5rSwma162C4e0C0akBrQG6NdQHYBEgUxkI42MysKjeh2MfYsr6O6BU7soSXqsKmgZWx29H7mJKzzBM7l4PthZqhoLpVVl9hRRy1BkXrXGAaR/miS1T+fXTVKFaEeNMO0kLAWDGASygcZ2qaCMQGie5rw0n7yO/WIoHawbDrRJedWH9issrsP3MA8Z8LJMb0KwSAb1b+KOuuw1z6gn7nw/RuqEWBwawZHJ7DAz30Ctsbqpt9P2ufUAqKXiN9J1TDYQQamlg0aE4KhiOJOTP40pIzSnCjtOP4VPdBbP6h6FnYzXrQfv9iVmFaDVtHzuwbVEc2OghR268wKJdt0HaY+r9RYy5A0MwplN9xiwSMrBIo0pYao9eiwLB+sbJyjGwmSdWfKHOrvk+baW+Rw4PylItcKvV93FBt4Y1VCZKhQjYfiYBr7OL8HTdEDgYEfl+l7qsPHQDK488RMcwT8wbFAF3Vzss2X8dSw6qnWJeVWwxs38Y+kX4m9yf1ABWLQWAxddm16UE/LjnNjJy1eCrg60ZA1iGtqrN1m1KZkEMFGK2GRJx1w4hlEiLWZa9/iYYWLQ70PgnRo+w/N8HsLRDCEWY1jtEQ+Q+4VUu9sckoFGgF3OoNNGTiGbG+rPYflGo2cyxUFjShPoYhQ8h3AiRQgOLOYfrVEO7+h6KvZfXh+IL/ReHvOIKrBawMSNDeQCrnqduJlBeBH07y+h57Dulfc7h7B1+7j5OKxCcy+SYPbARs0NoDecBrFOY2D1UETKp/uIXbwvRZtYhFaOQfqH1f1slAawn/yFFDF98AqnZ6v2J1hRdBq6CgaU6EisBLP0ZjPX1SUpWAQOYjsSlaPyctG5wpQGsqG934+7LUo0zbIcwD2yZ2p7ZMDzDSxBCTuffdYNhr8X4VldAYVkRQ1xENBL9RWF9GTzDkETHvC0x2HwhRcU2JzpMVCNPvMkrx43HaTj6XU+EB1CSFtP78oeO6f95BpaFuQRHf+gOc3MJqjvb4U1GJi48SMWft97g2uPXGt4Q5aQkkV3KEnWGibhrhhBS2KByCtP0Td0ygqWPbDpVTflWIurKxtfOQqj0ttDvNCBGd+FjmI9ei8fPu24gJasMYiNCa0TppOs/VgihJ6V1X9oP8Wk5WLDtOi4+eMUmATuGa2JX7JP+21kIlQwsJXxF7UdZNj7rHoKxlBb0XqaGEaAa5Jwc/Vv6YNnENjoAFl0zs28QPv+kARYfuI1Vh5+AaYcoPpD/Vt0JRQBW8wAb7Jzb728A6z1WE1oWjy7oigb+7y7KW9nX0WGrqTaA5evKmB3KOV3ZZxm6Ll8OhE1QM7DY3FVojvCMLW0Qi3FvNR7XQQFgGQPUaAOYsSEGJ++kYWynYPyjVwibi3FPU5mg+23Kba4oob5uOLYgyuQB7XZKLkYKQggJxLUzq2AgeSFlVVTqKXAyDG1bGxO7h4CyxEi0Dn5KjSFh/cN9bPHr5+3g625aO4PGwvAlp3GG6Wzxc40ALJqvfZpoZprS7oePAWD9dfs5hv/7NHpG+DMAy7uqAwMUeizYjxvPilR7gbOtJX4cFoqeLUxpYekCWASGWJsRcMExAEuZBS/Y2w69m5MuCn+Qet/yUQCsO6l8SIUeDbXoC08wZc0lfDmwOb7qHgw7Adqx5a9bmL39HjhFem36hhrVHDCzXxj6NqmJvAoZxhGAdesxrq3UB2ABO849xuQ1l2BuofDwijicWGCcgUWzaNvZxyzzZUae2rs/po0nfhjdngFOlxLeYPD3RzCopR+WTmhtFLTWBrBo7srl5eBkBB3RyBQDZqQ/KWIAGXlG3wXAkojksLfgUCbjUFJBKebNmJYlRQP1buaLKb0aoqpKFFr/SEh5k48r8W/w29FHSEhTz3ntq2t7OuGbfg3QqaG3Th2JjxowcrNKm4RCmAnAqkxIxccGsKiNfz2ZgEXb1Qwne1tLONpZwdvVGnMHhiPMx/W954Yya54wzJUBWJUMIaHvPXE3FWOWnNEYO1unt0UHbQaWhog7hV9JYSaqYO1MYRRlhGBRCI7IDE/WDIYTA7B02Q7G1oC3+cXYHROPc4/e4uK9VIPGvhgyTO8bhqk9G/C7EMeHaFHIuSq7FYCV0zuhT0i199Ld01dP0jCi9yh3OJ6BNdmwBtaum0wQni8cZBUlPM2f2dNiiMzMWIID32pOmN0/DD1MAlj70SG0OrZMV2tlUV3mb7uC7ReeoViRLZje5mJrhl8/j0Tb+t7YdYnPQqhPA8t39GaUyATyHrJyDGjujRUG0se/+xpODKytGrYrJ5dCLlWsaWRPmFlCIpKwvYhnTFROdN9YXUhHkMbD2uMPWBIHyoZMaxsd1b2HbwWdaZSlv0JU3vARlr+Skh50VWhgCbMo0viPvvIcC7ddQ16RGnx3czDHzN7BGN4+hI0bJYBlkIGl0CRSuQWlRVg2vhUGtNEV3hd+O30JG/8CAIvmBWk+ehvMemm6Jz+MgUUhhHEKDSwlQM9BXlHMbETW+pSJzcyShWk1CvRgAFAjX12nYMNJG5BeIBwTHD7rFoR575EFT99XM4bpqA16kl+RaLkiNkFxTmKxCiKyJmUaZydjABbPwNrBGNdq+5yvyfkHaZi/7Qbi0/NUVTMzE2FK92AmNs8cqItP4bPuoax9hPvY4WtP8eWa6ygXOozfAcBKzsjFl2vO4WaiGvymSvAAlto2pfbxH79TQCp5dwAr9slLBmDdfpYv6AIREtcNVjnkTI3I4UuO4+y9TI2sf1RPcnhzBGBF38QaAahIz0tcNwi2GiGr6rdQX+6PTeazKTM2KMcfXxSh46QVTWHxtG40D6qGLg1qGLSJUjPz0GHuAeQVq3vI2kIEIu/3jfDGrP6NUc35XcLqTbWG4d//5wEsav8mdd2ZVoajrQUa+rtgQOvaePkmH0lp+XrOkiLYWIjRuWENnmHEshCqjQ8xV4zp/ZqiRlUnthFTqA3FkZ+48VL1LE3Qh+/4qEY1QdpRnsO3qOjCbCvnOEwgCuLgxpi69hJ2xzzjDWgj5WMCWGRYN61tjz1zerMsbGOWnjUk+aWqEXlqYhf3xrl76aCQoPc/jml+5NP1mgwsZas72YjYgTMy1Btf/nYZccScM1D6R/pjmYEshI42YtxaMxQVpVKcvpWq8Cjwb5GKgB1nEzQEpukVBGB1qO+IDf/o+TeA9V7rCIdFo5qxdORWHyl8QbsaegEsBUX5Y41NbQCLDv90cDBTMkIUlRJ6Fb5adwkVAkkVMhyJgWWsFJaVgcR/63q74I/p7VHDlV/oaZR+tS4Guy8lCbheIiRvGa6TjUX7+Tdf5GIUAViKLITODlaYM7gxbj/PxtaTDwXzV84OfOSlJS+xdtvxDCzN9cHPTYRN06JQ20tXsFPfd5KGwRmB5tT/qRDC/JJyrDn5AEv33WNZY+YMJtFNfsm+eD8Zk1bHIUuhVE6yAS0DqyB6VpSJtY3SopMeglrEvVGdKugTGYg/ryYj9oHaU+plV47zS0cwD9vHBrC+HdcRo5u5w6YS4kbUf2fuvkTc4j56RdZ3XXiKKWtiMKpnE0zrUQ9VrNWjgMYgJRP4amMc6IilLAGejizNdpMgd4w1CWARA4sArMozsOg96dkFmP3HNZwSjB0RV4y0zRPwtrAMY3+7iILCUiYY2iTA3Wi/vcgq0Ah5sJLI0KupN1oEKw1VMaPAT1lzGpaW9sywNA5gHQcdcJTFycEC3wxuiltJ2Yg+zXtByYNsLZFi/eT2aBOqZlwYWwtoVMU+eY1/RV/BrecFqrTZ2vcEeDiwrIukNSisJwOwtEIIycA1HA6pfvLHB7CAUrkc/qO2q4SjeftHjolRgZg/uMkHzQs6jAeM34GSUvWCW1nGK9VDDWCdVTUCGfFbdDSwpPD9dAPE5sqsdECnMHf0a8YzhmhWVEjlKJKYY86Ga7i1aoCCgfVuABY9q1wmR/yrfPx++AYOXU3WCG8RjgFbSxHGtvXFrCEt2YGYB7CIgaIeDYPbBeCnYU1BIdIfo9DzKVSL7FcqJflvkR79hR4Ai8NvRxQaWArBYjoIfzcwlIWQ8GuwCJxEgvupuThxPRWz+oahTzO19o12fYmBFUkMrDAPbJ2mKfaekJ6NsctPI/41JSzhv58SEXUI88S6ye2wL8YIgDVmC0p5DJvvS1kFA7BWTuLDcj68yOAxkkTi1X3QtLYrhrX2V485sRmyS2RYuu8Orizto9KO+pB3/3U7hQFGAV5OmNu/IfyqqbPxDfzpCC4+UicY8Xa1xKy+IejbMtDoKw0BWGzcyoHOs3bgaQYFdqlaE83qumH15I7YdzGeHbCXj+MZWPrKHQZgqUPlxDIewOrPMu0ZLjSPKQmGMISQ5jExsLxNZCE09sEfBmAJQwh5AIvPctcQlip9PhEDeK/GZ4HYxATQtA5WZvFT1yxg1G8olGkmL+FDCDWzZr/veCEHgM+nGyARrG9kt5LjhXfYKrJXKn22IpKaKcK8bWrGm3EAqwy1xu0CSXxQ9mph4dlz97HqyEPkCpjHjtYSzBsUhirO9iyEUB+AFX3xHmb9ce+9AaznGbmYvPYcricIASz9Goj+43YKqv3uAFbMoxSmiXkvWQ1g0YgghpRdJRmXny47jlN3hAAWhRB6YOuMDgQnMoBMCGDxjHXDABZ90PXETOyJScDBqykoKC5TuFzUfLuqztbo29wXvZr6IsTHxaBThTLjbj79AN9F39PoX0drsDW4ZbDpqJH3Hb/a9/3PA1jaH+TiYInx3etjVPvasNNJQy/kTnHsoMUDWOqncFwpo8A1oHADFe+C/92Ykcuwa45jAJbwACPipJgYVRdfD2mOqesuY++lJKMLNE1yikn+WAwsc4kYsweFYkjrOlhz8iGW77tvcux4VbFB7OI+KgDL+LebfBzfjiKiOGqHEPL3Bnk7YM7ghmxCLdh+EwkEPBoo/VrxWVEWKkTcxcIshP/RpGlRrzocLKWY0D0cjWspdXtETHtg+trL2McAAnUhzYi1MzqgXVC1vwGsynWlzlXeVWxwYE4Uqrv8d1B3BmBN249UgQYWZQk8tKAb1MeM96y84rbscg6NJu1UibiH+LmytLWGczpRFsLtKBV4gokBwYcQGi5zNp7CxvPpaFjDHod/6KOxrpy8m4bvd95AksBD1S7EDdtnKJlm+p9743kORi85rQKwWIj00j54nlXEBE8PXExU3di6ti3+Pb4dvKvqMqpO303D8GVnIXT72EmKcGBeH9TzNa1dQ/N3BIWw3VFn2CIRd9q4JSagog9jYHF4nPoWgxefQ4CHExNvr13dUfVG8j41mb4XqZl8lkYqlRs/ugys/i39sXhsSxbCs+4EgReK3paXI2H9SOZh+9gA1sxRbTGhpSdstFMn6QwHjgGQFEJ4fUlfvXy2er8AACAASURBVB7pXRfiGYA1qHMIY/95OmqKMpMG1oaYZ1iw4YrG0/3cJJg9pCm2nnuOy7ce4erKT/UeGHae5wEsM4FI7HHKQuhnnKHJAFyFg0fllRcBL/8YjvTMIjSZsQ+keUHZ7Uzl8dEGsOzNeQ2s4R1DNb7pyN0XmLIqBvG/D4JEYijwjkIIj+Hus7eqez2r2OPK4t44eSsF45aeZswS1uecnGUB7Bj2bgbc45RMZBaUY9y/DqAAjhpZ0viXcgpGiaamDx9CKBRx5xlJ/7cALKrnn7fTMH75GRUrzM3eAlN71ceojsYPpqZWbwKwao/boRlCWMmQbXq2PsCO6ksAVsdQgQYKhcCM2gSYqVf+z7oG6WjQlEOGoPG7cfSnXqjj8mG7UGpmPpIy8lio5cWHJHuhnbmJQ2hNJ5z4vgdbbwhYogOMsNhKCnF/9TimufMxinYWwpKCTKTv1MfA4rDq6H0m4q4UAeZEclxf0g8U6SC0mk/deYnPV57B5O6B+LKP4ZCc+KxCtJm2Hx1DPbB5egedz7mVmIFRK86xkBVlsbMxx6hOAfCv4oCv1l3Vy8DyG7MBJRXC9pGjfws/rBgf+UFrtrqCMlQfsVXAjOMwkGXx08xCWCKVIXLmQRz97hNUs9cWxX+33lOJpu+6iX+OaIThberCXKIeP/eeZ6LzvOPqh3IkSh2EeYONh0TdTn7LM7BaKjWwNOt1Mz4dvX8+jQqifykYO0QgGN8lkGVmpAO8MoRQyWQXPkE7hFAs40MIB5jQwCJz69ejD7F4j3r8y8rycGPlMNSoZpolbqh1PwzA4rCQGFjHHwk0nuRIXDtUS7SbA4m4/7AjloUEDmxNIu7CwiFq/i7ceV6malNiG1A47vtpYOl+LQ9gbYJEKOLOshzyGn/6bNeUrHyW/EBZlABWsKcuyKEUcQ9TRg9oPfFNXhEG/XgYj9PKVOwfIhFE1HXDqC5BGLOEGFjhOgysJ68KEDX3sFYIoRe2TTOdNInqTQLjo1f8hcTXgpB9hYh7B6GIOwuBFIq4vzuAlfg6l63Pf91S28HUjwlrKalL5bLydZu7C7dTytRBHpwUHeu5YMusXoxZqQ1gsW9cOwh2RjSwyMbKyClGUkY+Jq66iKw8dRiwb3V7LBnTDLWrO8HFnpffMTQe6F3P3+Rh8rpLuP5UDY5/+Ukw02tztn03Tch3W/E0r/5/DsCiz3O0t+A1UCJrYf7WOFyLz2TaSLxCBYdqTjbYOqM9zt5JxYjF5zTi6GhD+HVya3Rv4M3CX6i8zinB8MVnVPoc2g0ukkuxdWZnVHOy1gGw5LIyTIiqi7nDIhmApQ2g6Ou8j8nAIgBr1oBADGodjF+O3MOaI09MjhevqjaI/bcawPpYLBddEXe+Kh5O5pg7OBx1/atj2prLuK1HeJ+uox7s34o21Bb4TqGBpQ1g0XXurpY49WMvFBeVskPm5cdvwYnFSM8qRH6hMA0wYG3F4eHvI2BuJjIMYInAAAFKn/53FkLd4UNe2ivLesPnAzxgpgZlkxn78fKNWsTdwUqM8R18MX1AC1O3Vur31IIKtJq6B+RdoGIawJLDd2w0ShXX0z2mshASG4EOYaSfZG0ugl91Z5XIIY3tsgop0rKLWBZNZbG2ECN+3VCWxc9QuZ6cgzFL1QAWjdO4pX0gk8ux/WICZm28prrVXMzh0LwoNPDTFWU/dSeFUbjFghTOInkpji/shVA912vXh8YBpUE+K9DAsrKS4NmawQqRXcNdoQtg2eHYd/0q1Xd0OL2a+AZ9F56Ao50FPNxseMCMbGvFE8hzX04CJIpCbNlBrf2xaHiEEWiNNE12UACa4i5OIWrbEi9zivH1H1dx5raahVXX0wanf+xrEqwz9lH6QghHdA7Ft32C4WBt3Pihbx2+5AxOk4i7AQ2s6IuJmLIuBn1aB2N2nxDUdNGFaJPf5KHl5M2QWxALWfnpMnw1pDli7qbi5t1HBkMIo4nhtfYSxBL1wYy06sL8TDP44pKz8PWmq3j0XG0URXibY+boLug9bz/aBTphx5y+JsfE86xCNJu2X3WdvYWUGcTDOmgCWOUcEDh+B57+PgBmZobbtvOCo7gnALAoVIVCVgqI9XfiEZYeUHsia1azw6YpbRHo9e6HKUq2kFsO9P7umI4+W5MAZywY0hgN/N1V36UNYBEjibIQaocG62uw/wYDi96TXSZF8PhtgIKF4ulqjZl9QjEgsjJJEwx3LdltAVoivpRGfeNXbWFbCdYR6ZXtvvoSs9aeV79EVoqtMzpD+wDjN3ozRKpsVfpFlOWQwX9sNH4Y3w5Dm+gyKUwOUj0XpGYV4HVROab8fhHP0smJp16v6vm4YN+cLnCwMONDtKJvanjI5XIpkjcQA7RyByRT9dPOQlhWmImUHZNhpxPyxmHVEarPLVBCJSpqAMtGI8yRNG6G/3SUMWTnjmhlsApPCcCauo8BwQQw6iv303LRa/4xFFVIVREFdlYiOFmbIS23AnMGhuuIuDf/cj2S89TrEgEr/Vv6YSVlIfyAsG91/eTwGLlFwMDSD2DR9U1n7MXvX7ZGeM0Pk144dTMJs/+4jPR8OTxcbOFkS2CqctxwjA359GWuxtklsl51BvDVr2FY1/Lms7forhJx129j3X+Rjc7zDmswzpztLGBlLsarnGIsG9uSF3HXY7poi7jzWQgjMaBNoFFXV+yjFMzddhUPU9WH73lDwzGyTZ1K6wvpG08fBmARA4sHsPhkAjyTiZKDaGedi74Qj5nrzmHe0CYYG9VApypnH2di6I8CwPE/58+JCoDpY3ArCcCqMWojzBUaWFQBU8/XDsk3roFVDv9x0Qj1c8HReV31ZNHmkJieg37/OoOMbLVDkZLfuNlbgkLrP/tEN4SwWM6h3gS1g5nqTSHkW6e2q9TcvfcsE58sOIRylraGL10auWPuwCbwq6a2c3gNrw8DsEqlMrY+b/pL86wdv24I7Cu5PkdM2YoXOWoRdy83G/w4oiE6hPkym5aev/r4AzXQCTA9RldFNlBj67u+iJZQFtHSVU9chv4npWcXYu72Kzh2/bXqgiXjWmAwJdQwtbl8xN//nwSwqH2+GdyQoYHDl5zC2bvpGo1KB7yrS/rg7F0hgKVudvIkbPm2Kxp6OTBti5eZhWj61V6NlJXCPuDk5bi2fCCI+UAMLE4sglhxciJAbALz4DXGtPWXsfuiJgNIuy8/NgOLjnABVeQ4s3gkTt58yUJATG3W2gysjzEg9TGwWMw1895I8e3ghhjfuT5GLT2Hs/cEyLVWA1EI4fLxhgEselo9TzPsXdAfO0lwcuctplnBvlmkiPtV9I1cBDhJ8vF4wyTI/5PN8sQdXZFX9noxh6uM0fA3gGVo7Vk0rgWGt/T7aCKy2u9pOm0vUrLUWcrIQOgU5ok/pul6aN9nfUzMLkbHmQdVgBQBWH8u6CbY7rSfKofvhN0oLVF7dNqFeWP7NMpopL88zy1Ciy/3Qc7GvQycSMlLUjBDSW9AS1eLzgQdg+zwxyyeraWvXEvOxtilZ5ClCCHk17debMw/Tc/Fot23cFrgDXK3leLYDwNQ3VWTqn478TWmr7uAx6/UIC+tX8e/64YGvqYBCNoYRyw5gzN303g6OgfYWcjwdP0ok7o8H8LASssuQKe5R5BdQDxLEqlU6xhSe/FhnyKdtm1PISpT27M1Xp+VTd/jPZJCoqiv6LEEYFFa8Ug+5HNDLHYTu03VZxxStozEh3Ag6AtIpPZnxrDgG7G2M4fd8/uhmrNmf2mPBRqJny45i3N3XiFuSXd4V9VNrLArJglT1l5BVEQAvukXioCquuwRAj7P33uJ4UvPaei52FpboLxChoqSPMStHKaXgUUAFom4S1RZCIFjC7roBUy160/ZfEcsO8f2a2URiaRwcXRENQcL7JnVAS72ptku2ga3IQCL+vdNbiHcHW0V3a+701E/d9ECsLyqOOD6kl5sDFCK8KlrL2uMn/0LuqKpn5vBMU9zisaUmMxFxYFH+b104Lzz7A26LTihAWKJpHlYPr4NBrSpr2obArD8R25RpxVXaGT8/wnA8nK1xj/6hKF/ZMAHGrYcC00hD7+ykPTAZ50DMLl3hMkl/2lKJkb8fBgpAn2Zr/qHYXzHQDgLQBk6wNQcvQVmAhYLz8BShvCox0hCbjFcbSzhosP0N14d/ljC2yLaAvTMS55fgq7zjuCV4IBHiXW+6h2Gse1rY/upO/g++gbypOYKhJ6vE6+x8iGrj7re5OFfdfyhamxVlGQjZdskvSABMbDoetVYFskQt6Q/s5eEpaSiAtkFZSwM0dlGP7eZ2iTuZQF6zTkAWp+3GdjfqZ2+XHEM+26qQ3v5d/GOan0aWC9yixExea+gShz6tPTDsjEtYa6gLX6orVtdwIikuuhjYFEFXuUWwNXORuUkNzmA9VxA6whJDpBjnABefrsQKxRRqB1IJkAEOSEfgkzjFhISvg/HmM6Bes8CdOctBmAdMVh/ZXWuJOeh7/xDWrXj68IDWOrwSeFFd5IzEbXgmPoAXlGEZRNaYaAJDazdMQksy7CcUzBmOTGOLOiCcL/319ejen0YgKXQwDr+WDAHOCSu0QWwSsoqkFtcCntrSz1sGTlySuQInLhdQ3OqcV3K8tYQjfWIvr/ruGEAzZitgCLcl+6n9U3JwNL3vJdZ+WgiYGBFBLszSYEGProi7iSRETBuF0J9FYCIAWA4Pa8EkTMOoLi8XOXsUL6bPy+TBpZ6NpJdHDAhGkWCGOB2YV7MYVMZyJ4Yf13m/8n0Knlrj8PPn0ZgSJsADZCN2oc0vNShse/CwOLvkrMQvxtYLcjiSqD+kzVDFXqJxnuNnhIxfS9SMtXnnRBfZxyeQ1lmeb1FYjj+piXi3qtJNfz+RedKDAkOjacf0EiKRQDWCa2QT2MPIskHHsDKUF1GANbASL8PcuBWovIal/xPAVjyikLI5BWQWDpAbCLXzgxKo9stGGMWn8I5gagwfT0LsVnSG2fvEYClKeKubB0ziRSxq0eguqWEibg3mbpXRZHWbmQZV4HrywaoACxtgIiANAJopv96HLuvpIKTGA5MomcTA4sYZJN/O4+9l59DTKItH1Doe2OX9cJZCpmkkAdBjL6+x/6f0sBSv5vDnEENMLFbPXyz9hR2x75GKYlWaRXSMhnR1gfzRrbFQgMMLGtLM1xfMwgpyW/Qc94+VEjsDbacXCRF8vqRIPSfaWQYBLDkuMoo8X8DWAYbUyRHwrphH80DrP2eXrO3Ii6dyQyqfiLG0+ZKZt0yNX3is4rQeTYBWDz7qTIAlt+4aFXIId1jKoSwzuc7UFQoRcOaZtg1byAzHoUzm74uv0KOQf88iUcv1CyUmq52iF3SGyKFh1v7Wy4/eYuJv55FVj7v0aLQDVrfKKSDDsS/H3+oIXpK18Qu6QOfKpoHDNl/jITtl5Iwc8MV1cGFDAcGYFWCQfOmqAwTfz2P2IfqTe3ammHwsqajuvHyIQwsxrj5ag/ahXph4+RWEJFxxvQc1EIOUk6GwPGbUSZTr70SUQWGRtbEz2MNg6BVh/8BiQJkoAMDpRVfqQgJySqVYsLKc7hCSTEUxdHWDE9+H2JquBlekxRpwhcJQoTE0gJcXT5MLyAlfFBWWQUmrDiP2AevFJogumsfA7DWXUHbBj6Y2z8MQZ7610caNydvvcTYlec0ssHS+0TlBbj2y3D9IYQUorg2BhIlACDicGx+VzQwEULIfweHoYokANoZbN7FQ1hZAEu7E4h7WSQHM4htxGpIU5uBpQSw6P5yjsMvFNKyW60RQqznK//qCS89WSDpntXHH2H53sv41+hI9NCTSIB0ak8+zMSYxcdV81BeWoQVE1thUDt1ZjV9IYTMoK8Em+S/ysASeLB5BlYYBkQGvPecUN7oN3wVSkTC8SrDgJa+WDG+jcln84yPIypGkISTY+m4Fuj/n4yRQkuDMRRGb4a5BgOLd0B+rPIiqwijV57HmqntUctZX7iFHIMWbgWpHSgzMVMm6TGd6mBWn3BUyDnmgV9/4pFGlWrYl+PaqrEfXE06QJEo+O8sKyhfZKUFeL51vAEA64ECwFK0pEiOOIW9ZKwyNAYL5YC1SA5zxRpLGbGP3krB+JUXWHp7YyFCBLR7jvhDIB6vfps+AEsO0jTcqnEwFotkmNg1EHMGGmPiVr5JKwtgaT+xjKOkICLYVyaFqOLmpFfZ+G7nVZy6m4Wv+zXABAKkxLRyCke0HKlvi9Fy5iENbboZ/Rrgy271YKEn3pj6/Mazt+ix4KgCwDLMcifR6/rjVqMYms4Sck6TBtaglgY0sNh8VGtgceWlWDYhEoPaGmdgUQjeV2svq4C3mq5ibJ4ehTpeumBK5XsNYOvD/KMqpwEBDivGtcRAA/XXfrY2A4sWbn0AlvZ9NAcKZICtmGPrdnGpFH4Tt0IkVw8EsuNoPJOW4IcWloVw7FaIRPzzaaR8HkWaoYazHFJIftPpB1R7EWWYo/pEBOiyBwvLKhhTlgCso/Oj9DCwlF8gx4/bY7HypC6hYwLLuthQ44RP7VRr7FaUEG1aUSh5w6SugSxxl6lyN/ktohYcVfkaRYrxOUCrf6l9fMdsE5y5KwdgUa2SXuUgIT0HncP9sGjXdfzGACz1XBzRwR8/DW9ukkBC39JUA8DiEObrjGPf9VA9bcHWK/j9xGOIVfsUr+ecsnl4JQAkuQLAIguCLx8LwCLA2pStb6qv3uX3/ykAa9GYZhjauhZW7L6C1aeTUVKqTmGv/dHf0ITvFowRi8/g3N00jSVdCWCdUQBYNJj1FZkIiFs1CEV5RWj/zZ8Gxc8pw1GcgIGlDWCZoQTfDmqIMV0bYuKqCzhx/SVoo9ZXPj4DC3C2t8K/P2uJzvU9WJaWmeuvGHw/1UlHA0vBpniXgaV9rTENLLrWjCvBj6NbsCwka4/dxJrTz1BWIoOMkzNPtbubNb4b2hitgz2Yk23h1vNYffypTjYNBmD9PgAZr3Mw4ueDSM2jbEGa2RYJKCAv4M1f+kJWLsXkZfuxdf7wvwGsD+hgOvA+Wt0fznYUNvDxC830gHHbUSwIryMvSu9mPlg8pjmsLT7M8/woowDdvlXH2FdGI8lvnGbWQmJgbZvWVi/TIKukAhFf7oFcLGex8IY0oWTg8MmCo7j9TA1guTnaYMWkdmhXVz/l/+yjNyxjaXY+T6vnGVgEYPGb54FLfJrz1wVqo4iDFEnrRmhkRaG1Z+/lJMYUlQqyDa+d1QldAqvB3ACApuztz349hn2xaZAoAHpbCzMkrq8cmEMA1svsIsUaK0cDX1sc+66/yYFEBrTP0OWwtKuGLg1rYM0k0jNRZgfUvD1fKked0ds0/tivmS+Wjm0Gc3NdPx4deDxG7oCIspkqCgFYwqxMY1eex/GbL1WHA9LU2zGnK5r7vnsIGb2C+oA0bn7Q0rihrLm0bxkzDiavOo3dV1JgJeEQs7Q/vNzUYr7K+hOA9dW6Kwj1ccbCoY3RpLZhbbOCchnWnY7Hv6PjNAwxkbQQ11boY2BxiL6YgMlrr6gMV1r3T5AGlm/lQmXyZRz6LjyGB8lqzSnK+temti22fNuvUhT35KxCNK9ECKFwIFAm3KPXn2H6uhhM71UPE7qrAYtO84/gfrJ6PlKW3utL1IzIdacesQN8BcV/Kkr3xl5YNbE1KEuydqH+XRQdx7RxiJmks1cCuPksC58IDnj2khIsHtsKPVqoDzH5HFD7UzUDq00oMVLbwfI9AaxhXRpi+id14G5fGZ+2/qmpHUL4sRhYNBeJs1ZDg+EiR/9IXywf28pkplYSTiZWk0jhDDTniplodN9Iak/1IYMd8MZs5UFwRdGngWVyYTJyAQPcp+xGuyAnbPumt94DDXFggwSaXwFezlg/vQNqu1qzNeKnfbfx25EHkMrUY04kkuPhqsFwtjPuIDVdd46NZ/4ApijSYiRtGqMHwCINrIeMEaAKXBPLcH2xLgNL+72bTt7Cyj+fYsO09ghXhKiTBh8l4/gh+o5JAIueV1BeikZTDiG/SMAaFik046J4zTghnBMwdhsL4ReW4e3rsgOzveU7oEd6G5H2i+0Cpq9hBpbw9hdv8tB0ym5ERfhh0xT9IZP6XnfqTioLGSfBZWKstCTbWE9Jf1uADrN3I6dMbSMZOsDT7TSi4pLfojfTwPJjQJSxkppdhNbfHkZxkUAhH8DScc1ZCKE+VtudZzygoCyUsW/5hFYY1CbIIFPzYUomZm+JwY14Xojb2lKCDZNboW190rD7MO4cD2D9qdKwIgCO9vnKAVjEwLqO3xkDSwniKgEsGlOGdm0Oy/bFYvXJJJz+Z294utmhvFyKqDnRePJaOEY5tAqtjrkDGqGet+GwT9PzGkxD0G8s6TSr13jSXCZGlaHyPKsAzaYdUP3s627L5ktUuG4ihvyyCtQZt5OJuFNImrYjSvgOpms4eiOKpZr7zVim+dUQ5lpdunj3JSw5kqx6BO9Q9MPKcZFGP53OJleeZqD/P0+pVK1HRwVhWs8QuNpoatAVlkkR8B4hhLeS3iBq7n4MahvMGPoHYp7gp333kPJWHeoq4SqQunWMyW7KK6tA29mH8Ootz8Cq7maHE4s+QRVrc9UozympwD82xuLotecaz3vw2yC42hnX1aO9lADJ1MwPA7DmbL+C4zoMLH8T1CKTn/9OF/xPAVgRgW74YXhT+Hu7InLqPsaM0lckEg7fDgrH+M71MGLZWZy9rRmSxosc98YZFkJIIXX6wSTls2ViESQGACe6RsaV4/oydQihvhC9id2DMblHPRY2NH75OcQ+fm0QRKIFhRhYdCj9GAwsqmOQlxO2zmiHtJx8fL/jOm4kUFy8/kX/v6eBpV/EXdnONdzM8c3gJujYwAcUKlwqkiA+vRA1q9jBXsKhuFyKotJyVHWyxfcGGFgSsQj9I72weGxbXH70GjM2xLKMC8Ul5bCzsWQx6VxFPvYv6MsQ689/OQlLMYcdc/v/DWC909Khe/GcERH4rOOHaZ0Yq0LkrGgkvhKIMAIwRzmGtfbDzIEt4GTEcKcZTpt3dn4JnGwtYK8VwnA5IQtDfzqJsgoeuQn2dcXeBd3gZMQuqjUuGoXl5Spg2xgDq9GXO5CWJwVlFDv/Uy9FUJv+r/3qlwM4cCsf5YSgK0qInxuOLYjSC3yduJuGaWtjkKPIskcAFgEeqgMFAb47rzPmhyJejoW97fmhJ1rUcNQ4QD3LyMOPe2/hyLWXqncTUHhlaV/4aIWECGtfIZNj8tpLOBD7XMV82jarM9oHqzV7DPUt9Q2J9L9UifRzCKtpj+PfGw6bVD6LsstETN+PIJ+q2DY7Ch52hg8hFZAj4NOtKKPYYUWp7mSBGb1DMKSttqAqf0H1T7dphF9oA1jXkjLx1eoYPM9QZ7ehFMLH5naEhx4AqTJT7LdjfEiO0vAlEGjH153Rpk5Vgwf1twVlmLHxCk7cSMHI9gH4ZkAjOGgZZ/RuyoJLaea9nUX48dPmaBfmZ7RKR64l4B8bLyO3RG2Ei+RluLZskJ4shzyARQwvpaAzPbyyIYTKinScewj3X+SqjN8aVexwdXEvJvpamWPK+wBYD5Jfo/93e9GheQOWJEQYhtdlAWUhzFS1k1JjTvmHEhmvSfHHST4jIRWSEDj5fRfU89HVmiMNI+rfJaMbY1CrOhALwBK6lw/hyUJ3AYA1e2A4JnUL1hCwTy8FGo5Xi7i3DvXEpmntYP2eAFaPFrXxTd8Q1HR7fycEA7CEDCwXa8zs++EaWNQuZHg3m34YKZnqJC8RwR74fnhT1PMwzLSmbH9/3k7FFyt5/Stba3N8OyAcI9vVYTaAsLAD3ugdUBAUWG8Qg37uwIaV8pxXZn4rxyftF1umtdU7p3NLyhE+ea+K4csYDQu6qQT6kzML8M3mazgv0Bukd1tacbjwzz6o6Wa4Pfg6cniRQVm6RahZVRfo1hZx52QleLaRACxdgflVxwjAJQBLYUdXgoGVXVCKmZtiEPv0FXbP6orgGjyDplwqw6w1fyH6WibaKxxCpto0PrMQbWfs02CKkv38eVfdxAE5bHxu0wiNJvN/UvdgfNEjBA6CQ6K+95L9+Ta/GI521nDUDoPkgOqjtgqSoJgGsOhwfelpBj7/5Rxm9AphyQ4qU4orZNgR8wxzN13mx+egxgbXRp5RRYD4UQ1A4ZuBDTC6Q6CGE0u5/sQ9e4telWBgKa+/l5KNAT/+hfwitX22bFxzpkOsF8CiLITEiFREg3AVZTwDq01dvdeTPujemATM/COO9TNl5vzh0+bo18wPZiYca5VpTyWAxYklKntu+fjmlQSwwJLv/HZcndSFNJfj9WhgCetCWaMn/nYRT168xqlFveHhys/DF2+L0HH2QRQInLUE0M0a2ADD2wTA2cbCKGBfWiFlobr21haw19JEYiLuY7ZpMKNMZTnUBrCqOZkzgKlPc11bXwkAEaPn+PyuJtfM4vIytJ59GKlZaj2sTzsGMoBMO2kNAVYhk3arsklTW0U1roF/fRoBN3vDwuEZOUXot+gIkjLKmBSEo40Fe/6QNsqxqR6hhWXlCBgXLegm0wwssn2P3U7FtN8vYHR7X3w7pCXTTf1681VsP5+kcjKQgyHm557wczfu3Bz28yGcf5wLmVzE2q9ZoBv2ze6iBdJyWBB9C5tPP9XQ4bW2EOHCjz2NZuSkujWddgAvBfhJqJ8bTiwwnixKOHbT3hbgm61X8NctzRDCvxlYRlYb0o5Z/WVrdG1YExNXnsFft1/pgECW5mKE+tlheu8weLs5YsqaWFxP0IyTZyF1S3srNLBMA1imFkA5V444AYBFVpEOJibiMLlnPUzsHISnr/LxzR9X8eRlvo4uy3+DgcU2GU6GxrUcseqLDriT8AqLdsYhJYcO67regf9zGliazCilYfXj2BYI8nTkdYKYvowIUpEY/LctnwAAIABJREFUl59kIPVVPpaOb2EwhJCeUc3RCltndUCQtwuKKuQ4fjUBl24non1EINqF1mBG2KPnb/HVb8fxNEOGlrXssGNuXyMi7hyuLv1bA8vkPJBL8Wr7aFOXvffv5IPvMuc47qeo2RDsYbIKfNqhDgZGBsDXwwkONpYqI0jKcUhKzUZemQzXErKw9tBNfNUzGKOjwjUMpc3nnmDu1hssRTqV2t4u2DSrM/wcDDO7/MbvRIkgJp/SEW+ZTgwsTZPtwYsMDFt8ARl5Jbi9biSq8aRAg4V5SKYd0ADo/T0csXZKawRVJ6q+5t0bTz3ET3vvoaCE94AKQwiVL1l//CaWHXqIbHVYPTiRGEe/bY+GtYUixBz2XknE97tu402O2nv02+Q26BHurVfjjGZobPwbfLfzBu4lZbHa1fO2x6H5PUBi6aaLHE2mHUDKWyUDi0OojxNOLOxp4lYOfRbuR2xiEcJ9nHB0IWXpMl6G/XMPzjxRG0t0NY0dZjBZaB7OaKOntOjKLEt0rTaARUBg1/kHcfu5WnSZUoU08bHB/oUD3otOvTcmnhnEbwr4hAJUKNh016x2cLKSIMi/muq5eYWleJFZgDUnn+JA7DNYizkcnNcNIQY0y3ZdIhH3y6hiLcO/xrREVBPTgPP+K88Y4PI6l283DhW4vnSA3iyHSpF4IYBFB2/SKKls+eK3v3D4RgbLcEVjqY6nI87+2LNS4BW9IymzkOlrKPXkDGlgKetTWiHDvthkzFgfw2clm9BK8C4OXReewu1EMtT4AzqF2Mct6au+hgP+vfcWfj32EOUCRgxXVoCX0ZM0PMlCht2ILvUxtXsQ3B00GTMlFTLsik3G1+v5TJCujraYMzAMA1v4amhmXU3KQe/v/lQ1a2SoB9Z/1R4OlUhDSKvcsbuamo/1azhg8ZgWCKkkW05ff75lIu7EWuR/dbWTYHrPehjVWVNAv7JjQfu6/GIp2nx9AK9ylHOYQ5+ImkzDxd1FVyOOAIKbiRnovvAUxCIORIgb2DoAM/uGo4q9LlOJacSM364x5z+LIo2YjwdgJWUVouW0/WgcUAUrxjeHbzU6uArXdA5L9t/E8j8fs8MPsfj6NPPBkrHNNRiISw/ewdoTj5FXrMl8qepohfVT2sDe2gy1PFxgJnh0XlEZXmTmo0wqw4CFByGxdkDCmiE6c0tbxF0kK0fixpH6GVgMkCUAi38RJ5Lhuh4NLGVfFpZK8f32q9hyLgGLxrXE4OZ+sFYwFSkpSo9vt+J+hoSJNG+bZpqRlJlbhNHLjuJGMo0JPmycDyHUzNpJ7y8rl6Lvd3tw62W5lgOXw8QeIegS5gWfqvZsbCgZzDSGsgvLkfw6B9cepuHXI3cxqU9jfBFVX+UPomfTvu31TgwsDpcepqH/T2eZ6PWJBd01nmdsjtxKykT3BcfhaG+OqT3rM2e9sXL/RSb6/ngSBcVqZg8nK8PWGR2Zw1hYSErg3JMMDP/xpCppian5mldMCS0eYBkltFCEgxoDsG4zTaKjakcHV8FE3AdG1tYZi+RU3B+biKnrL0MEMzjZW6FXRA1M6BzEwNfKODVM1V87hJDGETkySMOsMmXhzjjGWFTrwBkPIcwrLsM/1sXgyI1U/PJFJD5pVAMWirB7Sg6yeH8c1pxIUIX6sTqI5Bjcvi56NfKBfzU7eLjYqcYL8StyCkvx/HUOHqTm4o9TTzG0bW0Mb1sHlopkZPQIBtCP265ho/IAqNIe1m1N7aQojtZiBmANaasb0lhQVoHa43YyCY7jC7pVyv6h9bDtjL2oYGJtwJC2tdn8ddIjSH7wWjw+W0Wak7xdyXFSDG/rj3mDmzHATrtQmPHxm88wbmUM6xsne0t81TMEYzsF6q1bUVkFao3bqVjH6HxqHMCS0/NvJGPMyktoF+6FzVPbw1zhQDp/7wXmbb+OhFdEtOHb1UZUjGurPoWrnZXecZuQ+hZjVl1CQhpvTzYJdMeBrzvqrWtemZThIBfuvxasZRyq2nLY+XUPBNagLJH6im4IYYi/G07OrzyAlZyRh8lrzuFGotqZ9POo5hj8n8RIpiI1KjOfKnvN/xQDi2yivq1q4ev+YXB3smADubBUhqfPMyGRiODn5Yaarubo29wXobU88PXaM9hz5SVkWjJvHxvAMqWBpeoMeQWm9KqP8V1DcOXxSyyKvovnGYITpeLCj62BpXw/aZX2bOqBGf2b4tK9ZCzedwfpubShaYJY/w0Ai+pgKAuhcLDycBVfOHkFZBWlkEjMITKzYN5Cilk2BWDRvT7udpgzuDHMRRzsLMVsTy0ormBhCBX/+efb9VeQVVjKFvKWAdbGGVh/ZyGs1HpC3oI7qwfBzebDwvmMvexVQSk++/Ui4h7Toq0u9N8O5lKM6x6G4Jpuiu1NhCKZHCt2X0XC6xI4O9ogzMcJnzTyYlR1Zckvk2HCssO4+LgASqKlm6M1pvYNw0gSedR4Dz9Cn6RmMw2HMkE4QrifC5aPjUCAl1LwnEN6TiEGLzqI+Iz/0DTEHF5uHgUJ2270by3Kb2o8bR/StBimDXyd8e9REQjyqaIw04H8EimG/7QfN5OLQcG2VNwcrLB6UiQiAquzd1F9aZaT2CuJvgqLNVeIDTN7IrK+p2qVJAM2+lISlhy4o6IxE6V+3edt0CzYHS62Sg8gh5JyGRJe57NMbCduprBHt6hTBau/aA1qQ2MUcvKoUUtcfZSCCb/FIitfHQYSXNMZe2Z3gpMtf8jUPN7xX3DmdjKGrrgAsUyEsBo2OLaIDznU17J8u3J49qYILWeoM9TRX4N93TC5Z310CK7OwG1lH1x79BK9fzoLTqR2SHRo4MHEPz0Eguo/bD6DTRfTUSwIIfOp5oD5wxohoKot/Ko7KepUOVOb3r/u5CMsP3QPOYVqj7aEA5wtyvHDF51hzuvk4nbSK2w//RjZJSJQNtxOIW74YXRreLkJNUn4dqbD4cbTT/D9zpuwEFXgp9EtMbBVXUhYxhHDdaOxs/LwXfz65wMUkVeYkyNuGa8JqFipmbYEZfDcdPopftil1oOi3+cPCsXwDsGwsaDAWdNtUMYBLafvR2pWIUhPambfYHzR3ZTOBYlii1As4xAdk4g5G2NVw9zaTMYOIm1DfbWWFr5dMnKLMfOPa3CzlzBNjYndyJjnf3uWnoOxv8bgSVquSqzfzdESm6e0QoNa1VVZRC/df46Fu27jQYqaiUcvWzGlLWpaA02CvFVzdhULIeTTwE/rWR8jOwejiq0FO4yQvlH0pXjM3EBhm5RGU4bhHepi3uAI2FkoAAJwKJOJMGHJIZx8mKcCi2rXdMX8kRFo5a8ELQytMRwyCyuw5q9H+O2gOoOimbQI62Z0QacGPiZD8nTXaIJ7Rdgb9xxTfr2o+lksL8f4LnXxzdAWDEjha2R6DOg+n/+LTM5hT8xTrPjzIZ5nKBj4snIWSvKP/k3g4WrLQB42ojkOJ64nYsflZJy6/Rrk3Gzg64AvutVDuwa+WnXh+/teciY6LTgGiVykwq0/aezFDlReVRxV/W2ofpX5OzGGWk/fz57VItANC4dHMA0fprX9H1bBtacZGL/qHLLyyhhwHV7LFfu/jYKFFtOEk3NYduge1px8hHwhiEXJauQc6njb48teTcAiQikpKwfce/4Gf5x5grcFUlR3tEJEHQ/8OilSAXLxbZD8Oo+FMB+/pc6wSqDU8fndEOZXVaP33uQWYemBO9h8LlHdryI5Fo9qjiqMFUHtSM9VahICSRkF2HUxEfFpudgyrR3LNqhcRwrLZAj/bAMKpNZoElAFv05sCQrZZRrlRpiFz17lY9KaC7jzLIc9ikTKGYClZ6i9yS/BxJVnEfs0UwW2KPuNXkEgQevAarBk2S05ECk7Nj4LG47ehlgigU9VW8wc0AjdG9WEmSIklfrt1K1n+HR5jMYQaBlUDeM6Ctm9nGpcUauMWXwEnMQeITUdcOJ7YpkaH0F0T3G5DBvPPMU/d95AZH0PLBrZBAF6EnYon0Rtn5SejQm/nsSjVDXYSX+f0iMY46PqwcVW6fTjGCC6aM9tbD3zFJHBVfDDsMao7Wk6icvdpNeYvuEyHqby83IZE3UWZiWj9UyEonIptpx+hIW77qg+liyU0R1rIyq8BmMum5uLkZqRg7xSDpl5pZi16QpknIjN75EdgzAo0g/VGAD9/msJ9S3NCWJoHr6ahClrrgp9Vfg8qg4mdQ+Bi2Ic6+sZasP0rHzm4DkUp8la/31SK1gxYFa3jvdfvMWemCSkZBXh6LwohPlX0TiFPXuVg0m/n8K954WQa8uUi0Xo3sgTvSJqwYycFRxApkdcfAbW/XkDMLNCbQ8njGgfgF4RvnC1t+GdOSIRLj9IQf9/CTKxAujW0JOtbzUF2fh4a4lDhRxsrs4U7KecrBz/6NsAX/ZoAAtFBljl8w9eTcLnv12Gj7s9fhnfHA1rkUSBYXuX3pNTUIIZa8/i2F0imojQo6k3A8g8FYw0YbuXVVRgxL+O4tKTt+BE/DnDt7otBrX0Qd9mteHhaq8A9fi17NC1REz85QxEYmu4OlhjTFQQxneqC1ut0H7qR/rn7K0kDFtxWUBAkSMq3JsHVgXdqGhOlEvLMH75WXBmlmgf6o6t0ztrOL8W772GdSefgjdtRTCTiDGyc210D/NERF1P1bpH76asnjPWXcD9FzwztlVoDaz/qg3sad1nHiHdcbT6z2tY91c8XuUrEpQpnuhT1QbzhjSGk40Fc8Y72lqisKQcj56/QUGxDNM3XcNbheQI3RLi74qT87sZXXz4FuX3Vhq/A/95FAqfJruP9CSn9w5FDVebD5qVldlDVes1x3FcCsXkT9U06t/lIf+nr/28R310aeCJEH8XJnx46PxjWJiL0aFpIBwsOCSmZePy49eIvvgcDwQpuZX1VAJY51RZCN/9C6gzq7tYo55/VThaS7BgUGOmPUBZCI1ttOT1+KpnfXzWIwxjV/yFmIe5Oi8nAIsWlI8ZQqh8iYudOQa38cOnnevhp+hY7L+cAk4b4Ktig9jFfXDuXjqGLznLbv2QbYIthiIgfh0fQkgINxmXyowxlWp9RQUGtPTH0vHN8f0WXgNLZGY43IHeYC6Swd3RDGKJCOlvC1HOWfEaOUqTSsQpAKwBf2chrFRHGL/os94NMKePOlPWR3ikxiNo3r3IKcHCzVdx/PpzQJAtSnihkn1Bc9HCQoyIutXQJsQLozoEwlKB18Y+eY3kjAKk5ZVj/fG7KChSM15obNau4YRRHYNYVrkGfq4I8HbGpftpSM8uxp/XkhDzKFOY3IeFvUbWrYKoJv7w93ZjG8bRuHgcjUtTHTBIx8/eXIzmwV7wdNRkAJARfP5+GtKyi/HjnlvIEQA6bA4Si9LfGf0p1TQ7kIiRlluKreee4C3tJCpEj4O3qzU+7xUGc06OIC8XNKhVFZvOPcXyg/fwRsVe4FvMwUaMWYOawpKTwc/dHs0CPdlBKvpiPH45eAspWWXscEp76JjuwahV1Y4Z7hwnR05RGU7deYXr8W/g6UoAoQvz5tWoavywdzMhDY9T8yAXm2PF3lgeSBdkZCOQgJgSNavYI9jbGeECEfkj15OQUyTDN5tiUMHxamLerpaY3Ksh80w2q6ud1l6OfZcTUSLlcONZDqLPx2swZKnZwvxdmaHySXN/PH7+llHwf9l7FSkFlDFSPbJc7M3RpaE3wv2roWmdavB352n/EdP2MWNUWKzNRYgMrooO4T4I96+C4HfQr0jNLsD+2Of443Q8Xr3VHyqvWpdFIlRztkJ4DTtM69NQAXCqV+zC0nIcupaC7MISHL+VgtuJb9k3dW1aCy0Cq8BCLEevCD+dlN/Cb7mXnIH5267jagKvTXVtaV/UUABYNM4PXn2O7KJSHLuRgrvJOYLMjIR3lWD2IDrQWsLZSoyuTcmrbXxHafjFVpYa3sbSHIlrB+lk69NeVw5eTQYxO7LK5PhpR5xifxFcxVE/ahuBHORsIvEO3bahXvhjajsQTnQzMROPU3Nx5mYyLj7OQkmFVMXKIcAv2MsGwzqEwdfdnq0tZhBh8prz2B3zXKOuFDZQw1GML/o2g6eLDVrU88SaE4/wTwKwqE7g8GnXEARWI286h1Iph3lbY9nctrcxY6G0w9vUQvdmvLjxuQdpSMsqRH6FGD9Hx7GskKoiEiGsVlX0b+kLSxHH5oGfYnwqr9lxIYHpSiZkFGPd0fsaezutrYM6BCLc24nVZVBkADO4TZUTt1ORnV8EKcT4ZiN/0BSWZsHV0a1xTbbutq1fHZ6upsLbjL+R+uLUnefYfu4ZLt5PV6wbHPq3qoVGtaow8I3t8XI5vln7F0okdnBzsEa/lj7o3MATzeryWkEqxhCAw1eTQfotf8Ym4uLDNwIbTgRLMym6N/ZBRKAXW3e7hNeAq5GQFWO1JwDu8I1nmPTrZUU4N4fIetQ+PszZIBWJ8Ouhe0h9W8DCq6Ka+KFXE3f0aKJfDJv0PFccvof9l+KR9KZEnRDVSCWsJFJ0aVILEQEuGNE+iLVVbmEJzt1JRpHMHOfvpuBY3AtwYhrVSiuNQ7PAKujdLAC21mZoGVQdf91KwaPnWWxtzVOTdXnQSk7uFP7Io9yY2H/T/9g6z0HMlWPL9E5oH1YDh649R2FpGUhGacGWq+w+RxszdAzzRNO67gjzdUNwTVeDqwZNYQq7JV2YxynZTIKDACxDq0xKZi5+2nsHj1IL8PQlD3oZLZwcHi5WaBtSHe3rVUeXJgFsLGTkFONqfCbySivw9bozkIu17FFm5mq62tj/UyQZ4cRiUKT3uPZ+mD2ohdFVke7bfuEJsgqk+Hn3dbZoVXWyRFRjb4TUqIKIOtV05jtpilGm1NTMQqw8dAtykSZLhb5hYvf68K1iD5G8AiKJBNkF5fhx9y1+WRRJ0S6kOjo3qsWEnut4ODGngr5C18fFv8GCHTeYKPoShQaW8uo9lx6jXCZBVmEZftoZCzCtTHUPyaVl8HC2RsNAT9hYm+Pq3Wd4mStnZwdnWwt0aOCDiDpVMLhVLbaW8+es9z+ZkN5o9PkEEGto59mHeJpeqgFS2JvLMax9EGp5OiEswA2B1Z01znap2YW4cP8VbsSn4WjcCygUHBSdy4HYOXzRrCPLDcmyogNW5hwOzOmKEIVTUtmu1JZPUjKx8dQD3HtZgnvPtLNtavaA0rVRs5otIuq445PGNdE2hAeGyQF3+OozFJRKsebwDSRlCe1cwOI/jElan1vU92ZzrlWwJ87eeYnC8gqUSEWYr5iP6jdyaFHPi2UBt7OQwNFWgvzickghway1F8BJLNiYD/Syx6jO9WFnJWb2T80quqHKymemZBZi5qYruPDgNTqFV2fn31ru+vW+sgpK8OPOyyBZythHlEBHzsbugFYBaEzRBCI6ZZLKKxjLjfQMXezMGOA2okMd2ChAN+W7aa298uQNSqVy/Gv7Bbwt1WJycTw4JMxWTbYv22fElFFYDFsrCUa288OcQc00epvW55X74/DkTTn+vJrMzgu05/u4mGFSL4XOpoh3XBB7/VZCJji5DD2a+WHx+Eg46NHQ1J57m0/ewt20Uuy+9AwymXLM8c4v0lXr3tyftX16dhH2X3yAdOp/st+JuiICfKvaoHdkbczoEWL0TE6r+c4LiSAH9/O3RfjtEG8/qIscn3YKQrCXM2M7E9mkMvaDqaXX2O//Uwws4Yc0rl2VCduZyStQ1d4ClhZmyMgpRQVnhltJ6UwboFymX4yUYmAndK2NZ68KsDfmxTutgdTpRLdrHlQNAe52iAytATdHK9CQJxTcb8RWk/0hlpdifLcwbDz1GOVsLdFc4JrWdkObkOr4My4FD0kLpBKaFiZfKriAgLe2oR649yIHD2gVEOyvNKDbhLlj7eSOiHv6GtPWXERGDtGthZvwu7yNv5buntormBkvSw7crxS1VN9b6vs4o2sjb5y7+wJx8VmAAoU3VSNDHAMy1Gu6mGNA2yAkvCrAgctqkUDVM0UcJkYFw8HWHP/ec++D28JUXf+XfycWb8KGER9gVlTu60mYdNNfD1ja4SuP0vEso1CDbk0hsz5u1vikeR1YW4nZASSgmoPGXNod+xwPU3JgzjKO6SrC0Zih4yElJuwY4oGIQHfsjEnC89e5DPJVHoCUs5eHZEVsgQ+p7cmEZVPSs9hYF85wc0tzdG3ij2B3TWOXoo92xCQi6XU+Y33pMxNpe6LwDzq3WpqbGaw7tSJdS+FRzWpXZd7iwgopoi8nI+1NAdu4iHijXFqIeVYmk6G+tyMGtFSGlXE4fPkJHqYVIrOYw66/bkBqZqv6ctrEJZChvl8Vdrir5+2AdiGecCF6tIk16/C1RFxNzIKVuSUzNpgpKvRwKepPBDeqf9cG5K3iL1h6+DbyS2QwJ6EaAbpE31u/pjN6NfbVWlI5LNh5HZBImLYRPYWRjpRLL8e3FfV195b+iH34Glk5RYo+IGNTuYLxvBwZ62Oge+MaaOjLMydWHrmP7JIKxbjgFzweZOSf3S7UE83rVHuneSHleFH9+Fd5OHjhIV7nk8nNGx6sSnICHO3QpoEf6tWwR5v6HnB3stVhOeUWlWLpkccwF9Pdmk1DdSuWivCPHsFMG87wcYDDkWvJWLTnLpJfZSFu+SDUUGTZyy4qw9I/H4KiRal1GWORWXzqtZ/eQ4a0jagCM/qS4Wb84EHitkv/TER4QBUc+pb0H4yXHw48Qrm0lL2bhgQ5pvmjMxlyio5W/Y3/jdWJaVjyc9y3qgPGtPNjBvDx26nsMMavDZq1VbpeaM4E+riiZ5OabP8/eDUBd17kMk0rod+drqd3+VV3RN+Wfrj5NAN7Y5Jw4c5zpOeUsSxqLN09u0oEG4kUn0QGoq6HPdrW90AdDxfV3NhwPhEv3hQwZrFyfRCuP3Q/Gc0EhPVu4oNG/pqhmzO334KtOd3L64mRocmPaj79N/s3Y0nI8MMg8rCbDgFeduIpcvOL2JpCLEHF2UxlMSi/v1wqwtBWvgj0dDLVnSZ/p2cmpOdiz6UElmXt8qN0vMkrV71cTDIOMhk8nMzQIzIIHs42GNm+rkY4nfIlNO+XH36IojJiZPPrLt+mymMhP07on2Ip8HmnuvB2fT+dMAppORGXhNj4bFx+9BJPU/PBScwZQ0K5n4hlpejVNhgeDlbM0ejpaFyUl2p2/Foi7rzIR1Yph+iTtyCTCDVhOHZIbRXqjTpeLrA3l2J05xDY2yjDWER4lV2ADafuQya2ZisMG1vqKcxagiQZaVpb2ZqjX4Q/1p96wuY8XatcT1mLGZja1M78sitizA5LrgxDWtWGn4cLfjz4AOUVZQwIFt6unJ+0r7Soa3z9JI3UTacf4ocdNzBnSAQmdTWuJ1VUJsXlpxmIe/oG15+m4k7iW5QrwpiUnyHhyjCgYxicLTjUcrdF/9ZBGvp4Cel5OHjjJdNmZeNf8fn67E3lliM4YjLGt5m5BaZ0qwN7E4loiOM4f9dtWIpp7vJrhXKfp32yV5OaCPfVnO+kKTZvz13YmPEZj/ndQ91F9P/oCELfXVxcCjs7C7aWKdc8djXH931rsoH8qyqYafqnKNVq8+mHWLTrJuYPa44hrWopdNs4TFl7DhIrB9hYimEhWFeVc4vOQsRiLi0rZ/PB0d4KDma0JklRzdEWwzsEqliI7w9bqetNXDRKPkB4HLOF9NggrH04oE0Dd7Su5a4KeaS/P07Pw85LSYpvUbarLsdYeHJS7R0Ku9LJSo6RbeqiqpNu+DPVlOYMCZBfuJuGG09SQeL3ZWyMqlzwsJJUoHOTWvAiQoWPMz5pUkuxrvOtRFbDymMPUVhEjE6+fpp7Bj8vaRw4WpthaGQA1v71BFLFOqBtMyitIVqxymQcnG3EKKQNlKO9X8HSUbQn1d/aSoKOoZ4Iq2mYxUfvf/AyB99suQZbCwpRDEeQt+Hrac9+lJaPw1eS8PTlG1x+9ApFFZS8h1+jWAZuWRma1K6CpoGecHe0wOhOBGjrjpwHqdk4fP0lpBUydr/2vqocMdr9qLQfaC2ztbJA/wgv1NJisSnvzSuXYfWROygq47Dv3H0m5UHgNZuLVGey5arZoUWwNxysxfiie9g7JOPgUE4hrwduo6RMjlM3nyHxVQFEYnOFEaRkwHKwksjQItQXAe6OMJNwDISr7+2Azk1rgWIPTDHkZ22/xUBXypjJE/eFhrTapiIm7Q+DwhUMvY8xW/WvN/+zAJZyEkFWDjd7c3aYe5NXCilnppidxhqN0HEZGzlitVqnSaOJLqhT0xkzBzZC23rVcexaMtN84eeECBTs8QcJJVei0MbFM8L1bHWcnLEbSPBdGYdfiUe+1yXCt5vJCjFnRBuE+rsg1M8dbwuKcf3xKxBT7dTtVOQWC7y97/g2tnCzNuc9cKYmiuHHEz1ezhDk93+G5tN5Mhh9GyHq+r1LcpaJjINEZM4E+v4u+luAMsNcXDYQHh+QyaqybUvLcm5hKa49fcXCSVjfMe8//SJHDVdr5mnWPoAqn0/iyzQHySFjaJNWAlhkmNJhluY4u0dgBAiNAWZwC5yudJDWfjYZTpSF1FI7JISo4IoNjTc2hVun2lglo4EBWGYivQdstYFBoBTPILJmQigcSsnIUNRJWC8a0eVyWhfBjF1hobFPQOH+s7chNbPhjTjmlaL5IENQTVc0quOpMkor038s3E4MlsZbWQ/lcZE/UvMrIxkH5G3lE0TxV1B2PAoHUmoNKNdQpUGhz22RWypjXjLlu7RnuRLAoueTwUptpOxj9TGWrxf1LxlQVCVlU5HxR88QjgtlOyiPGqa5LPpbjp599PJjvCkgiIOvg5jGOSdDzaq2aBlaE7bmSr6D7r5Hs4GE62n8CvtceCi3IfBJFeJloAc5joUVvXidhaHtglWaE9QeZXKo+l/5Dt604XcYagMGlpVImZFsqtDE9bzbAAAJUUlEQVQz//jrCYJqOqFZHdOJAAi7sLTg258K/Vv9fvXYEb5X+f30LppP5Ly0V0Q/K6NB1WFvmkY/3av8JrqFWl05hui/9QFYrN/ISOQ4ZBWU4sqDl3iVW848xDw1n6AnEawlUkQ1q4uqerIJEUmUMCWql9DQFhrXDOSWEfuYX7OEJbccoMcq10ThQVV4uCop59uiMr6z/Apai/h10TiAxY8RLQe4qaFg9HeqMzGrrz559f+1d+exUVRxHMC/sz1pobalUC2NUFpLSzlqS5MCrQqowRZiQK6KiSgCjeI/IEegGA0QE5UYo0hiEGMiiEFQMAQJMUCAIoZAQyK0IkeQQ4SWSOmx14z5zXba7XbbZZdt6e5+99+dfcdn3nsz89t57+HWXUvrWxn6xjyqikfjw1E6NqslSO7+nlDSkPYr5ZIjXMdrZ5dmO9DH5BgffP1Ieo1mC06cu4bz1+sBk9xTGA8PGkx2C0qLs/W10bwZM2Q8viMPSL9WtQawjKuhBLDGjUzFEykJLRuBtJ/WJ2+GNdpUREe2jZFGrzFmrxjtXcZH6V96nzcCWHpXN96K6Shj9Bejncq4LmkY7bPeKm+jtPVf4/HcyNPoU57Ma67W4tCZqyjMHoTRnawD6JqG9P/T52/gzKU6WFs2+DDuLcO0JkybMBrxUSa39+JWuRbrU4Mc7cY53OvaRIy6twtg6X8yAX0jHLttd/1R0aSZEO2ScGv7lf7e4TsN92wKZMhtf0/hyMm4nsn5aLJq+uLoMp4ZJXFu+3Kw8cdAV+X881qtPg02PzMFWYPiW59z/q5rRExMHz2AJeV0HXtkDG60qmg2W/W2FNcvGo49Wdr6hqc/Pjy1D9fx3+j3nQdpHPcD8swRrXf6NmC5Rsh3Mqa19hU38VvXwIfRFyTmI38qyX1M10+rjr56uua6Ps3MrDquLsazmwSwJuYNRWpirD7+Gfk5pykz2JzvZ9ruWR2pGO3AYpMgh4J6i4pYWXrFzXhotBv5jQRObTZVnwHlGsCV4+Q5V6bFS4nlXq+rj/wxW3W5Dv/WNWBs1kAkxXn+k0CumH9drcNv1f/of8Q5JFuu/KoV+RkD9DVejW/c5S9TSO2KqfVe2rkXOpfY9Twa95vSBmw2oK+EHrqsogazTcPuI3/gTpNcwEWlJdKnOu7lZFqhTPfz5fIi9w+yhO/B05dx6eY9/bri4DDehJU2bEPhiCHISI5ruQ63tZe2ftb5WZJrvSxN1jaWtG9thkmDRUVchPHnry+1ub+eHNABrPuron+PmjY+DR/PH4d9J6/gw51VuOK0+5SRkzxbeNjY0L+F8kNqqqJiw7x8vFSchbXfHMZdWx9EhttRnJWE/MxUfPD9cez5/VrH+dh+yJtJBI+A7AI5rSgNny4oeoiVMi7tD7EIzJoCPSbA9t5j1MwooAQCr2d0V4m7K93e2xz8U2P/pNJ7lfxfMncBFP/nwhSDVYDt50HPbFdjVnCNZwxgedFW5NTPLErHytm5WLf9FH5yN93Mi/R606Gy0Ob47ETEwozD1fWwqDLdRkNKQiTefjEXhdnJ+i5tsuMBPxToSiA1KQpHN8xAhMv28FSjAAUoQAEKUIACFKAABShAAQr4KsAAlhdyegCrOB3lpcOwfvspHKwKzGBOZxFufU0bRaapOE3x0DQsLB2OirIxWPrlMew4ctELMR4aigLJiTHY+f4UpMU7r8MRihKsMwUoQAEKUIACFKAABShAAQr4S4ABLC8k9QDWUxn6VvayzfBX+8958etecqiiYO6EdGg2O7YduqCvJeXps6AkBxVl+Vj6xSHsOHa503WiPKXD70NDQObCjx+ehO9WvOBxMe/QEGEtKUABClCAAhSgAAUoQAEKUOBBBRjA8lJwenE6Niwch027juOzn8+hyday6mtLOppJQUpiFG7cbrevsJe5dN/hMlVwUUk2VszIxfItJ7Dr6GV9l4rWXbncZF1ekoPVc/KwZHMldhy50G7Xwu4rKVMOZIHRQxOw970pDGAF8klk2SlAAQpQgAIUoAAFKEABCvQiAQawvD4ZGuY/PwyrywqghIdh+ef7sP/UVZjtVqx/YxJmjs3AL2dvY9FH+71Ouad+oNotWDZjFN6amovFG4/gwJnrsOpbbXQsQXiYgjen5OCd6U9i6eZK/HD0or77GD8U6Eog8/FEfL1yMob0wG6EPBMUoAAFKEABClCAAhSgAAUoEPwCDGD5cI5llahFU0filWcyEa7ZYVJk+3nZMtKEexY7Ji3birCIOB9S7sGfqM1YNSsPr04eid2VNdh84CLqG224WXtP3/o0KiIMSQmxmFqQioqyAlTW3MK6bSdx5uLtHiwkswpUAVlPbeKogfh2eUmgVoHlpgAFKEABClCAAhSgAAUoQIFeJMAA1gOdDBV2qxkxkXY0NFkRFvWIvqaUEiAvKGlQ8e7LBSjOGoCM1P64Xq9h1cYfcbdZRdbgRKx57VnA0owrtQ3YtLcaeyovgfMHH6jBhNCPNUwanYItS55DuOdl1kLIhVWlAAUoQAEKUIACFKAABShAAV8EGMDyRS3IfpMca8fKuUVI6BsNzW5GTFS4/kaZWVVw9kodth6sxrVaMwAlyGrO6nSnQPbgRKydV4ixGUndmQ3TpgAFKEABClCAAhSgAAUoQIEQEGAAKwROsjdVtFv+w4C4PrBYgHp7uGPHwQB5o8ybevLYHhDQVMwqTsMni57ugcyYBQUoQAEKUIACFKAABShAAQoEswADWMF8dr2sm6J0fMOKC7Z7icjD2wlML0rHhgXjEGni23tsGhSgAAUoQAEKUIACFKAABSjguwADWL7b8ZcUoIAHgaGP9cOKWbkoHZPGCahsLRSgAAUoQAEKUIACFKAABSjgswADWD7T8YcUoIAnAdmNsLxkuL5ZANdQ86TF7ylAAQpQgAIUoAAFKEABClCgMwEGsNg2KECBbhV4vSQHFWX5iOrWXJg4BShAAQpQgAIUoAAFKEABCgSzAANYwXx2WTcK9AKB/nERWDMnHzOLM3tBaVgEClCAAhSgAAUoQAEKUIACFAhEAQawAvGsscwUCCABRdNQMScP5aUjADcbBQRQVVhUClCAAhSgAAUoQAEKUIACFHhIAgxgPSR4ZkuBUBJYMjsfi0tzEMXNCEPptLOuFKAABShAAQpQgAIUoAAF/CbwPw2R+RhzI7P9AAAAAElFTkSuQmCC;" vertex="1" parent="1">
          <mxGeometry x="250" y="290" width="365.22" height="70" as="geometry" />
        </mxCell>
        <mxCell id="qEs55O2ABg0GS7RNk2vI-3" value="Email" style="rounded=1;whiteSpace=wrap;html=1;fontSize=16;fillColor=#FFFFFF;strokeColor=light-dark(#1A1A1A,#B2CBFF);fontColor=#1A1A1A;" vertex="1" parent="1">
          <mxGeometry x="360" y="480" width="160" height="25" as="geometry" />
        </mxCell>
        <mxCell id="qEs55O2ABg0GS7RNk2vI-4" value="Department" style="rounded=1;whiteSpace=wrap;html=1;fontSize=16;fillColor=#FFFFFF;strokeColor=light-dark(#1A1A1A,#B2CBFF);fontColor=#1A1A1A;" vertex="1" parent="1">
          <mxGeometry x="360" y="525" width="160" height="25" as="geometry" />
        </mxCell>
        <mxCell id="qEs55O2ABg0GS7RNk2vI-5" value="------------------------------------" style="text;html=1;align=center;verticalAlign=middle;whiteSpace=wrap;rounded=0;fontSize=50;" vertex="1" parent="1">
          <mxGeometry x="122.61000000000001" y="610" width="620" height="30" as="geometry" />
        </mxCell>
        <mxCell id="qEs55O2ABg0GS7RNk2vI-6" value="&lt;span style=&quot;color: rgb(0, 0, 0); font-family: &amp;quot;Times New Roman&amp;quot;; font-size: 19.2px;&quot;&gt;© CHARUSAT Student Service&lt;/span&gt;" style="rounded=1;whiteSpace=wrap;html=1;strokeColor=default;align=center;verticalAlign=middle;fontFamily=Helvetica;fontSize=12;fontColor=default;fillColor=default;" vertex="1" parent="1">
          <mxGeometry x="275" y="660" width="300" height="60" as="geometry" />
        </mxCell>
      </root>
    </mxGraphModel>
  </diagram>
</mxfile>
